  0
SECTION
  2
HEADER
  9
$ACADVER
  1
AC1024
  9
$ACADMAINTVER
 70
6
  9
$DWGCODEPAGE
  3
ANSI_1252
  9
$LASTSAVEDBY
  1
ezdxf
  9
$INSBASE
 10
0.0
 20
0.0
 30
0.0
  9
$EXTMIN
 10
1e+20
 20
1e+20
 30
1e+20
  9
$EXTMAX
 10
-1e+20
 20
-1e+20
 30
-1e+20
  9
$LIMMIN
 10
0.0
 20
0.0
  9
$LIMMAX
 10
420.0
 20
297.0
  9
$ORTHOMODE
 70
0
  9
$REGENMODE
 70
1
  9
$FILLMODE
 70
1
  9
$QTEXTMODE
 70
0
  9
$MIRRTEXT
 70
1
  9
$LTSCALE
 40
1.0
  9
$ATTMODE
 70
1
  9
$TEXTSIZE
 40
2.5
  9
$TRACEWID
 40
1.0
  9
$TEXTSTYLE
  7
OpenSans
  9
$CLAYER
  8
0
  9
$CELTYPE
  6
ByLayer
  9
$CECOLOR
 62
256
  9
$CELTSCALE
 40
1.0
  9
$DISPSILH
 70
0
  9
$DIMSCALE
 40
1.0
  9
$DIMASZ
 40
0.175
  9
$DIMEXO
 40
0.125
  9
$DIMDLI
 40
3.75
  9
$DIMRND
 40
0.0
  9
$DIMDLE
 40
0.0
  9
$DIMEXE
 40
0.375
  9
$DIMTP
 40
0.0
  9
$DIMTM
 40
0.0
  9
$DIMTXT
 40
0.25
  9
$DIMCEN
 40
2.5
  9
$DIMTSZ
 40
0.0
  9
$DIMTOL
 70
0
  9
$DIMLIM
 70
0
  9
$DIMTIH
 70
0
  9
$DIMTOH
 70
0
  9
$DIMSE1
 70
0
  9
$DIMSE2
 70
0
  9
$DIMTAD
 70
1
  9
$DIMZIN
 70
12
  9
$DIMBLK
  1
ARCHTICK
  9
$DIMASO
 70
1
  9
$DIMSHO
 70
1
  9
$DIMPOST
  1

  9
$DIMAPOST
  1

  9
$DIMALT
 70
0
  9
$DIMALTD
 70
3
  9
$DIMALTF
 40
0.03937007874
  9
$DIMLFAC
 40
100.0
  9
$DIMTOFL
 70
1
  9
$DIMTVP
 40
0.0
  9
$DIMTIX
 70
0
  9
$DIMSOXD
 70
0
  9
$DIMSAH
 70
0
  9
$DIMBLK1
  1

  9
$DIMBLK2
  1

  9
$DIMSTYLE
  2
EZDXF
  9
$DIMCLRD
 70
0
  9
$DIMCLRE
 70
0
  9
$DIMCLRT
 70
0
  9
$DIMTFAC
 40
0.5
  9
$DIMGAP
 40
0.1
  9
$DIMJUST
 70
0
  9
$DIMSD1
 70
0
  9
$DIMSD2
 70
0
  9
$DIMTOLJ
 70
0
  9
$DIMTZIN
 70
8
  9
$DIMALTZ
 70
0
  9
$DIMALTTZ
 70
0
  9
$DIMUPT
 70
1
  9
$DIMDEC
 70
2
  9
$DIMTDEC
 70
2
  9
$DIMALTU
 70
2
  9
$DIMALTTD
 70
3
  9
$DIMTXSTY
  7
OpenSansCondensed-Light
  9
$DIMAUNIT
 70
0
  9
$DIMADEC
 70
2
  9
$DIMALTRND
 40
0.0
  9
$DIMAZIN
 70
3
  9
$DIMDSEP
 70
46
  9
$DIMATFIT
 70
3
  9
$DIMFRAC
 70
0
  9
$DIMLDRBLK
  1

  9
$DIMLUNIT
 70
2
  9
$DIMLWD
 70
-2
  9
$DIMLWE
 70
-2
  9
$DIMTMOVE
 70
2
  9
$DIMFXL
 40
1.0
  9
$DIMFXLON
 70
0
  9
$DIMJOGANG
 40
0.785398163397
  9
$DIMTFILL
 70
0
  9
$DIMTFILLCLR
 70
0
  9
$DIMARCSYM
 70
0
  9
$DIMLTYPE
  6

  9
$DIMLTEX1
  6

  9
$DIMLTEX2
  6

  9
$DIMTXTDIRECTION
 70
0
  9
$LUNITS
 70
2
  9
$LUPREC
 70
4
  9
$SKETCHINC
 40
1.0
  9
$FILLETRAD
 40
10.0
  9
$AUNITS
 70
0
  9
$AUPREC
 70
2
  9
$MENU
  1
.
  9
$ELEVATION
 40
0.0
  9
$PELEVATION
 40
0.0
  9
$THICKNESS
 40
0.0
  9
$LIMCHECK
 70
0
  9
$CHAMFERA
 40
0.0
  9
$CHAMFERB
 40
0.0
  9
$CHAMFERC
 40
0.0
  9
$CHAMFERD
 40
0.0
  9
$SKPOLY
 70
0
  9
$TDCREATE
 40
2461287.8018055554
  9
$TDUCREATE
 40
2458532.153996898
  9
$TDUPDATE
 40
2461287.8018055554
  9
$TDUUPDATE
 40
2458532.1544311
  9
$TDINDWG
 40
0.0
  9
$TDUSRTIMER
 40
0.0
  9
$USRTIMER
 70
1
  9
$ANGBASE
 50
0.0
  9
$ANGDIR
 70
0
  9
$PDMODE
 70
0
  9
$PDSIZE
 40
0.0
  9
$PLINEWID
 40
0.0
  9
$SPLFRAME
 70
0
  9
$SPLINETYPE
 70
6
  9
$SPLINESEGS
 70
8
  9
$HANDSEED
  5
33E
  9
$SURFTAB1
 70
6
  9
$SURFTAB2
 70
6
  9
$SURFTYPE
 70
6
  9
$SURFU
 70
6
  9
$SURFV
 70
6
  9
$UCSBASE
  2

  9
$UCSNAME
  2

  9
$UCSORG
 10
0.0
 20
0.0
 30
0.0
  9
$UCSXDIR
 10
1.0
 20
0.0
 30
0.0
  9
$UCSYDIR
 10
0.0
 20
1.0
 30
0.0
  9
$UCSORTHOREF
  2

  9
$UCSORTHOVIEW
 70
0
  9
$UCSORGTOP
 10
0.0
 20
0.0
 30
0.0
  9
$UCSORGBOTTOM
 10
0.0
 20
0.0
 30
0.0
  9
$UCSORGLEFT
 10
0.0
 20
0.0
 30
0.0
  9
$UCSORGRIGHT
 10
0.0
 20
0.0
 30
0.0
  9
$UCSORGFRONT
 10
0.0
 20
0.0
 30
0.0
  9
$UCSORGBACK
 10
0.0
 20
0.0
 30
0.0
  9
$PUCSBASE
  2

  9
$PUCSNAME
  2

  9
$PUCSORG
 10
0.0
 20
0.0
 30
0.0
  9
$PUCSXDIR
 10
1.0
 20
0.0
 30
0.0
  9
$PUCSYDIR
 10
0.0
 20
1.0
 30
0.0
  9
$PUCSORTHOREF
  2

  9
$PUCSORTHOVIEW
 70
0
  9
$PUCSORGTOP
 10
0.0
 20
0.0
 30
0.0
  9
$PUCSORGBOTTOM
 10
0.0
 20
0.0
 30
0.0
  9
$PUCSORGLEFT
 10
0.0
 20
0.0
 30
0.0
  9
$PUCSORGRIGHT
 10
0.0
 20
0.0
 30
0.0
  9
$PUCSORGFRONT
 10
0.0
 20
0.0
 30
0.0
  9
$PUCSORGBACK
 10
0.0
 20
0.0
 30
0.0
  9
$USERI1
 70
0
  9
$USERI2
 70
0
  9
$USERI3
 70
0
  9
$USERI4
 70
0
  9
$USERI5
 70
0
  9
$USERR1
 40
0.0
  9
$USERR2
 40
0.0
  9
$USERR3
 40
0.0
  9
$USERR4
 40
0.0
  9
$USERR5
 40
0.0
  9
$WORLDVIEW
 70
1
  9
$SHADEDGE
 70
3
  9
$SHADEDIF
 70
70
  9
$TILEMODE
 70
1
  9
$MAXACTVP
 70
64
  9
$PINSBASE
 10
0.0
 20
0.0
 30
0.0
  9
$PLIMCHECK
 70
0
  9
$PEXTMIN
 10
1e+20
 20
1e+20
 30
1e+20
  9
$PEXTMAX
 10
-1e+20
 20
-1e+20
 30
-1e+20
  9
$PLIMMIN
 10
0.0
 20
0.0
  9
$PLIMMAX
 10
420.0
 20
297.0
  9
$UNITMODE
 70
0
  9
$VISRETAIN
 70
1
  9
$PLINEGEN
 70
0
  9
$PSLTSCALE
 70
1
  9
$TREEDEPTH
 70
3020
  9
$CMLSTYLE
  2
Standard
  9
$CMLJUST
 70
0
  9
$CMLSCALE
 40
20.0
  9
$PROXYGRAPHICS
 70
1
  9
$MEASUREMENT
 70
1
  9
$CELWEIGHT
370
-1
  9
$ENDCAPS
280
0
  9
$JOINSTYLE
280
0
  9
$LWDISPLAY
290
0
  9
$INSUNITS
 70
6
  9
$HYPERLINKBASE
  1

  9
$STYLESHEET
  1

  9
$XEDIT
290
1
  9
$CEPSNTYPE
380
0
  9
$PSTYLEMODE
290
1
  9
$FINGERPRINTGUID
  2
{0AEB8BC1-E88E-4D51-A03E-0348069FE075}
  9
$VERSIONGUID
  2
{06BA5682-283A-4FF4-AB3E-BE23BEA9B624}
  9
$EXTNAMES
290
1
  9
$PSVPSCALE
 40
0.0
  9
$OLESTARTUP
290
0
  9
$SORTENTS
280
127
  9
$INDEXCTL
280
0
  9
$HIDETEXT
280
1
  9
$XCLIPFRAME
280
1
  9
$HALOGAP
280
0
  9
$OBSCOLOR
 70
257
  9
$OBSLTYPE
280
0
  9
$INTERSECTIONDISPLAY
280
0
  9
$INTERSECTIONCOLOR
 70
257
  9
$DIMASSOC
280
2
  9
$PROJECTNAME
  1

  9
$CAMERADISPLAY
290
0
  9
$LENSLENGTH
 40
50.0
  9
$CAMERAHEIGHT
 40
0.0
  9
$STEPSPERSEC
 40
24.0
  9
$STEPSIZE
 40
100.0
  9
$3DDWFPREC
 40
2.0
  9
$PSOLWIDTH
 40
0.005
  9
$PSOLHEIGHT
 40
0.08
  9
$LOFTANG1
 40
1.570796326795
  9
$LOFTANG2
 40
1.570796326795
  9
$LOFTMAG1
 40
0.0
  9
$LOFTMAG2
 40
0.0
  9
$LOFTPARAM
 70
7
  9
$LOFTNORMALS
280
1
  9
$LATITUDE
 40
37.795
  9
$LONGITUDE
 40
-122.394
  9
$NORTHDIRECTION
 40
0.0
  9
$TIMEZONE
 70
-8000
  9
$LIGHTGLYPHDISPLAY
280
1
  9
$TILEMODELIGHTSYNCH
280
1
  9
$CMATERIAL
347
20
  9
$SOLIDHIST
280
0
  9
$SHOWHIST
280
1
  9
$DWFFRAME
280
2
  9
$DGNFRAME
280
2
  9
$REALWORLDSCALE
290
1
  9
$INTERFERECOLOR
 62
256
  9
$CSHADOW
280
0
  9
$SHADOWPLANELOCATION
 40
0.0
  0
ENDSEC
  0
SECTION
  2
CLASSES
  0
CLASS
  1
ACDBDICTIONARYWDFLT
  2
AcDbDictionaryWithDefault
  3
ObjectDBX Classes
 90
0
 91
0
280
0
281
0
  0
CLASS
  1
SUN
  2
AcDbSun
  3
SCENEOE
 90
1153
 91
0
280
0
281
0
  0
CLASS
  1
VISUALSTYLE
  2
AcDbVisualStyle
  3
ObjectDBX Classes
 90
4095
 91
0
280
0
281
0
  0
CLASS
  1
MATERIAL
  2
AcDbMaterial
  3
ObjectDBX Classes
 90
1153
 91
0
280
0
281
0
  0
CLASS
  1
SCALE
  2
AcDbScale
  3
ObjectDBX Classes
 90
1153
 91
0
280
0
281
0
  0
CLASS
  1
TABLESTYLE
  2
AcDbTableStyle
  3
ObjectDBX Classes
 90
4095
 91
0
280
0
281
0
  0
CLASS
  1
MLEADERSTYLE
  2
AcDbMLeaderStyle
  3
ACDB_MLEADERSTYLE_CLASS
 90
4095
 91
0
280
0
281
0
  0
CLASS
  1
DICTIONARYVAR
  2
AcDbDictionaryVar
  3
ObjectDBX Classes
 90
0
 91
0
280
0
281
0
  0
CLASS
  1
CELLSTYLEMAP
  2
AcDbCellStyleMap
  3
ObjectDBX Classes
 90
1152
 91
0
280
0
281
0
  0
CLASS
  1
MENTALRAYRENDERSETTINGS
  2
AcDbMentalRayRenderSettings
  3
SCENEOE
 90
1024
 91
0
280
0
281
0
  0
CLASS
  1
ACDBDETAILVIEWSTYLE
  2
AcDbDetailViewStyle
  3
ObjectDBX Classes
 90
1025
 91
0
280
0
281
0
  0
CLASS
  1
ACDBSECTIONVIEWSTYLE
  2
AcDbSectionViewStyle
  3
ObjectDBX Classes
 90
1025
 91
0
280
0
281
0
  0
CLASS
  1
RASTERVARIABLES
  2
AcDbRasterVariables
  3
ISM
 90
0
 91
0
280
0
281
0
  0
CLASS
  1
LAYOUT
  2
AcDbLayout
  3
ObjectDBX Classes
 90
0
 91
0
280
0
281
0
  0
CLASS
  1
ACDBPLACEHOLDER
  2
AcDbPlaceHolder
  3
ObjectDBX Classes
 90
0
 91
0
280
0
281
0
  0
ENDSEC
  0
SECTION
  2
TABLES
  0
TABLE
  2
VPORT
  5
8
330
0
100
AcDbSymbolTable
 70
1
  0
VPORT
  5
23
330
8
100
AcDbSymbolTableRecord
100
AcDbViewportTableRecord
  2
*Active
 70
0
 10
0.0
 20
0.0
 11
1.0
 21
1.0
 12
0.0
 22
0.0
 13
0.0
 23
0.0
 14
0.5
 24
0.5
 15
0.5
 25
0.5
 16
0.0
 26
0.0
 36
1.0
 17
0.0
 27
0.0
 37
0.0
 40
1000.0
 41
1.34
 42
50.0
 43
0.0
 44
0.0
 50
0.0
 51
0.0
 71
0
 72
1000
 73
1
 74
3
 75
0
 76
0
 77
0
 78
0
281
0
 65
0
146
0.0
  0
ENDTAB
  0
TABLE
  2
LTYPE
  5
2
330
0
100
AcDbSymbolTable
 70
26
  0
LTYPE
  5
24
330
2
100
AcDbSymbolTableRecord
100
AcDbLinetypeTableRecord
  2
ByBlock
 70
0
  3

 72
65
 73
0
 40
0.0
  0
LTYPE
  5
25
330
2
100
AcDbSymbolTableRecord
100
AcDbLinetypeTableRecord
  2
ByLayer
 70
0
  3

 72
65
 73
0
 40
0.0
  0
LTYPE
  5
26
330
2
100
AcDbSymbolTableRecord
100
AcDbLinetypeTableRecord
  2
Continuous
 70
0
  3

 72
65
 73
0
 40
0.0
  0
LTYPE
  5
2F
330
2
100
AcDbSymbolTableRecord
100
AcDbLinetypeTableRecord
  2
CENTER
 70
0
  3
Center ____ _ ____ _ ____ _ ____ _ ____ _ ____
 72
65
 73
4
 40
5.08
 49
3.175
 74
0
 49
-0.635
 74
0
 49
0.635
 74
0
 49
-0.635
 74
0
  0
LTYPE
  5
30
330
2
100
AcDbSymbolTableRecord
100
AcDbLinetypeTableRecord
  2
CENTERX2
 70
0
  3
Center (2x) ________  __  ________  __  ________
 72
65
 73
4
 40
8.89
 49
6.35
 74
0
 49
-0.635
 74
0
 49
1.27
 74
0
 49
-0.635
 74
0
  0
LTYPE
  5
31
330
2
100
AcDbSymbolTableRecord
100
AcDbLinetypeTableRecord
  2
CENTER2
 70
0
  3
Center (.5x) ____ _ ____ _ ____ _ ____ _ ____
 72
65
 73
4
 40
2.54
 49
1.587
 74
0
 49
-0.318
 74
0
 49
0.318
 74
0
 49
-0.318
 74
0
  0
LTYPE
  5
32
330
2
100
AcDbSymbolTableRecord
100
AcDbLinetypeTableRecord
  2
DASHED
 70
0
  3
Dashed __ __ __ __ __ __ __ __ __ __ __ __ __ _
 72
65
 73
2
 40
1.524
 49
1.27
 74
0
 49
-0.254
 74
0
  0
LTYPE
  5
33
330
2
100
AcDbSymbolTableRecord
100
AcDbLinetypeTableRecord
  2
DASHEDX2
 70
0
  3
Dashed (2x) ____  ____  ____  ____  ____  ____
 72
65
 73
2
 40
3.048
 49
2.54
 74
0
 49
-0.508
 74
0
  0
LTYPE
  5
34
330
2
100
AcDbSymbolTableRecord
100
AcDbLinetypeTableRecord
  2
DASHED2
 70
0
  3
Dashed (.5x) _ _ _ _ _ _ _ _ _ _ _ _ _ _
 72
65
 73
2
 40
0.762
 49
0.635
 74
0
 49
-0.127
 74
0
  0
LTYPE
  5
35
330
2
100
AcDbSymbolTableRecord
100
AcDbLinetypeTableRecord
  2
PHANTOM
 70
0
  3
Phantom ______  __  __  ______  __  __  ______
 72
65
 73
6
 40
6.35
 49
3.175
 74
0
 49
-0.635
 74
0
 49
0.635
 74
0
 49
-0.635
 74
0
 49
0.635
 74
0
 49
-0.635
 74
0
  0
LTYPE
  5
36
330
2
100
AcDbSymbolTableRecord
100
AcDbLinetypeTableRecord
  2
PHANTOMX2
 70
0
  3
Phantom (2x)____________    ____    ____    ____________
 72
65
 73
6
 40
10.795
 49
6.35
 74
0
 49
-0.635
 74
0
 49
1.27
 74
0
 49
-0.635
 74
0
 49
1.27
 74
0
 49
-0.635
 74
0
  0
LTYPE
  5
37
330
2
100
AcDbSymbolTableRecord
100
AcDbLinetypeTableRecord
  2
PHANTOM2
 70
0
  3
Phantom (.5x) ___ _ _ ___ _ _ ___ _ _ ___ _ _ ___
 72
65
 73
6
 40
3.175
 49
1.587
 74
0
 49
-0.318
 74
0
 49
0.318
 74
0
 49
-0.318
 74
0
 49
0.318
 74
0
 49
-0.318
 74
0
  0
LTYPE
  5
38
330
2
100
AcDbSymbolTableRecord
100
AcDbLinetypeTableRecord
  2
DASHDOT
 70
0
  3
Dash dot __ . __ . __ . __ . __ . __ . __ . __
 72
65
 73
4
 40
3.556
 49
2.54
 74
0
 49
-0.508
 74
0
 49
0.0
 74
0
 49
-0.508
 74
0
  0
LTYPE
  5
39
330
2
100
AcDbSymbolTableRecord
100
AcDbLinetypeTableRecord
  2
DASHDOTX2
 70
0
  3
Dash dot (2x) ____  .  ____  .  ____  .  ____
 72
65
 73
4
 40
6.096
 49
5.08
 74
0
 49
-0.508
 74
0
 49
0.0
 74
0
 49
-0.508
 74
0
  0
LTYPE
  5
3A
330
2
100
AcDbSymbolTableRecord
100
AcDbLinetypeTableRecord
  2
DASHDOT2
 70
0
  3
Dash dot (.5x) _ . _ . _ . _ . _ . _ . _ . _
 72
65
 73
4
 40
1.778
 49
1.27
 74
0
 49
-0.254
 74
0
 49
0.0
 74
0
 49
-0.254
 74
0
  0
LTYPE
  5
3B
330
2
100
AcDbSymbolTableRecord
100
AcDbLinetypeTableRecord
  2
DOT
 70
0
  3
Dot .  .  .  .  .  .  .  .  .  .  .  .  .  .  .  .
 72
65
 73
2
 40
0.508
 49
0.0
 74
0
 49
-0.508
 74
0
  0
LTYPE
  5
3C
330
2
100
AcDbSymbolTableRecord
100
AcDbLinetypeTableRecord
  2
DOTX2
 70
0
  3
Dot (2x) .    .    .    .    .    .    .    . 
 72
65
 73
2
 40
1.016
 49
0.0
 74
0
 49
-1.016
 74
0
  0
LTYPE
  5
3D
330
2
100
AcDbSymbolTableRecord
100
AcDbLinetypeTableRecord
  2
DOT2
 70
0
  3
Dot (.5) . . . . . . . . . . . . . . . . . . . 
 72
65
 73
2
 40
0.254
 49
0.0
 74
0
 49
-0.254
 74
0
  0
LTYPE
  5
3E
330
2
100
AcDbSymbolTableRecord
100
AcDbLinetypeTableRecord
  2
DIVIDE
 70
0
  3
Divide __ . . __ . . __ . . __ . . __ . . __
 72
65
 73
6
 40
4.064
 49
2.54
 74
0
 49
-0.508
 74
0
 49
0.0
 74
0
 49
-0.508
 74
0
 49
0.0
 74
0
 49
-0.508
 74
0
  0
LTYPE
  5
3F
330
2
100
AcDbSymbolTableRecord
100
AcDbLinetypeTableRecord
  2
DIVIDEX2
 70
0
  3
Divide (2x) ____  . .  ____  . .  ____  . .  ____
 72
65
 73
6
 40
6.604
 49
5.08
 74
0
 49
-0.508
 74
0
 49
0.0
 74
0
 49
-0.508
 74
0
 49
0.0
 74
0
 49
-0.508
 74
0
  0
LTYPE
  5
40
330
2
100
AcDbSymbolTableRecord
100
AcDbLinetypeTableRecord
  2
DIVIDE2
 70
0
  3
Divide(.5x) _ . _ . _ . _ . _ . _ . _ . _
 72
65
 73
6
 40
2.032
 49
1.27
 74
0
 49
-0.254
 74
0
 49
0.0
 74
0
 49
-0.254
 74
0
 49
0.0
 74
0
 49
-0.254
 74
0
  0
LTYPE
  5
8A
330
2
100
AcDbSymbolTableRecord
100
AcDbLinetypeTableRecord
  2
LANE_LINE
 70
0
  3
Lane line  3 m dash / 6 m gap
 72
65
 73
2
 40
9.0
 49
3.0
 74
0
 49
-6.0
 74
0
  0
LTYPE
  5
8B
330
2
100
AcDbSymbolTableRecord
100
AcDbLinetypeTableRecord
  2
EXT_LINE
 70
0
  3
Extension line  1 m / 1 m
 72
65
 73
2
 40
2.0
 49
1.0
 74
0
 49
-1.0
 74
0
  0
LTYPE
  5
8C
330
2
100
AcDbSymbolTableRecord
100
AcDbLinetypeTableRecord
  2
CHANNEL_LINE
 70
0
  3
Channelizing  0.5 m / 0.5 m
 72
65
 73
2
 40
1.0
 49
0.5
 74
0
 49
-0.5
 74
0
  0
LTYPE
  5
8D
330
2
100
AcDbSymbolTableRecord
100
AcDbLinetypeTableRecord
  2
UG_CONDUIT
 70
0
  3
Underground conduit
 72
65
 73
4
 40
3.0
 49
2.0
 74
0
 49
-0.5
 74
0
 49
0.0
 74
0
 49
-0.5
 74
0
  0
LTYPE
  5
8E
330
2
100
AcDbSymbolTableRecord
100
AcDbLinetypeTableRecord
  2
PROPERTY
 70
0
  3
Property line
 72
65
 73
4
 40
6.0
 49
4.0
 74
0
 49
-0.75
 74
0
 49
0.5
 74
0
 49
-0.75
 74
0
  0
ENDTAB
  0
TABLE
  2
LAYER
  5
1
330
0
100
AcDbSymbolTable
 70
23
  0
LAYER
  5
27
330
1
100
AcDbSymbolTableRecord
100
AcDbLayerTableRecord
  2
0
 70
0
 62
7
  6
Continuous
370
-3
390
13
347
21
  0
LAYER
  5
28
330
1
100
AcDbSymbolTableRecord
100
AcDbLayerTableRecord
  2
Defpoints
 70
0
 62
7
  6
Continuous
290
0
370
-3
390
13
347
21
  0
LAYER
  5
8F
330
1
100
AcDbSymbolTableRecord
100
AcDbLayerTableRecord
  2
V-BASE
 70
0
 62
8
  6
CONTINUOUS
370
13
390
13
347
21
1001
AcAecLayerStandard
1000

1000
Aerial photo / GIS reference
  0
LAYER
  5
91
330
1
100
AcDbSymbolTableRecord
100
AcDbLayerTableRecord
  2
C-PROP
 70
0
 62
9
  6
PROPERTY
370
35
390
13
347
21
1001
AcAecLayerStandard
1000

1000
Property / ROW line
  0
LAYER
  5
92
330
1
100
AcDbSymbolTableRecord
100
AcDbLayerTableRecord
  2
C-ROAD
 70
0
 62
7
  6
CONTINUOUS
370
50
390
13
347
21
1001
AcAecLayerStandard
1000

1000
Edge of pavement
  0
LAYER
  5
93
330
1
100
AcDbSymbolTableRecord
100
AcDbLayerTableRecord
  2
C-CURB
 70
0
 62
2
  6
CONTINUOUS
370
50
390
13
347
21
1001
AcAecLayerStandard
1000

1000
Curb and gutter
  0
LAYER
  5
94
330
1
100
AcDbSymbolTableRecord
100
AcDbLayerTableRecord
  2
C-ISLD
 70
0
 62
5
  6
CONTINUOUS
370
40
390
13
347
21
1001
AcAecLayerStandard
1000

1000
Raised islands and medians
  0
LAYER
  5
95
330
1
100
AcDbSymbolTableRecord
100
AcDbLayerTableRecord
  2
C-PED
 70
0
 62
3
  6
CONTINUOUS
370
25
390
13
347
21
1001
AcAecLayerStandard
1000

1000
Sidewalk, curb ramps, TWSI
  0
LAYER
  5
96
330
1
100
AcDbSymbolTableRecord
100
AcDbLayerTableRecord
  2
C-MARK
 70
0
 62
7
  6
CONTINUOUS
370
35
390
13
347
21
1001
AcAecLayerStandard
1000

1000
White pavement markings
  0
LAYER
  5
97
330
1
100
AcDbSymbolTableRecord
100
AcDbLayerTableRecord
  2
C-MARK-LANE
 70
0
 62
7
  6
LANE_LINE
370
25
390
13
347
21
1001
AcAecLayerStandard
1000

1000
Broken lane line
  0
LAYER
  5
98
330
1
100
AcDbSymbolTableRecord
100
AcDbLayerTableRecord
  2
C-MARK-YELW
 70
0
 62
2
  6
CONTINUOUS
370
35
390
13
347
21
1001
AcAecLayerStandard
1000

1000
Yellow pavement markings
  0
LAYER
  5
99
330
1
100
AcDbSymbolTableRecord
100
AcDbLayerTableRecord
  2
C-MARK-STOP
 70
0
 62
7
  6
CONTINUOUS
370
40
390
13
347
21
1001
AcAecLayerStandard
1000

1000
Stop bars
  0
LAYER
  5
9A
330
1
100
AcDbSymbolTableRecord
100
AcDbLayerTableRecord
  2
C-MARK-EXT
 70
0
 62
7
  6
EXT_LINE
370
18
390
13
347
21
1001
AcAecLayerStandard
1000

1000
Extension lines through intersection
  0
LAYER
  5
9B
330
1
100
AcDbSymbolTableRecord
100
AcDbLayerTableRecord
  2
C-SGNL
 70
0
 62
1
  6
CONTINUOUS
370
35
390
13
347
21
1001
AcAecLayerStandard
1000

1000
Signal heads, poles, pushbuttons
  0
LAYER
  5
9C
330
1
100
AcDbSymbolTableRecord
100
AcDbLayerTableRecord
  2
C-SGNL-UG
 70
0
 62
30
  6
UG_CONDUIT
370
18
390
13
347
21
1001
AcAecLayerStandard
1000

1000
Underground conduit and junction boxes
  0
LAYER
  5
9D
330
1
100
AcDbSymbolTableRecord
100
AcDbLayerTableRecord
  2
C-SGNL-DET
 70
0
 62
40
  6
CONTINUOUS
370
25
390
13
347
21
1001
AcAecLayerStandard
1000

1000
Detection
  0
LAYER
  5
9E
330
1
100
AcDbSymbolTableRecord
100
AcDbLayerTableRecord
  2
C-SIGN
 70
0
 62
30
  6
CONTINUOUS
370
25
390
13
347
21
1001
AcAecLayerStandard
1000

1000
Regulatory and warning signs
  0
LAYER
  5
9F
330
1
100
AcDbSymbolTableRecord
100
AcDbLayerTableRecord
  2
C-TRAN
 70
0
 62
6
  6
CONTINUOUS
370
25
390
13
347
21
1001
AcAecLayerStandard
1000

1000
Transit stops and platforms
  0
LAYER
  5
A0
330
1
100
AcDbSymbolTableRecord
100
AcDbLayerTableRecord
  2
C-BLDG
 70
0
 62
8
  6
CONTINUOUS
370
18
390
13
347
21
1001
AcAecLayerStandard
1000

1000
Buildings and driveways
  0
LAYER
  5
A1
330
1
100
AcDbSymbolTableRecord
100
AcDbLayerTableRecord
  2
C-DIMS
 70
0
 62
4
  6
CONTINUOUS
370
18
390
13
347
21
1001
AcAecLayerStandard
1000

1000
Dimensions and radii
  0
LAYER
  5
A2
330
1
100
AcDbSymbolTableRecord
100
AcDbLayerTableRecord
  2
C-ANNO
 70
0
 62
7
  6
CONTINUOUS
370
18
390
13
347
21
1001
AcAecLayerStandard
1000

1000
Notes, labels, leaders
  0
LAYER
  5
A3
330
1
100
AcDbSymbolTableRecord
100
AcDbLayerTableRecord
  2
C-LEGEND
 70
0
 62
7
  6
CONTINUOUS
370
25
390
13
347
21
1001
AcAecLayerStandard
1000

1000
Legend, north arrow, scale bar
  0
LAYER
  5
A4
330
1
100
AcDbSymbolTableRecord
100
AcDbLayerTableRecord
  2
PALETTE
 70
0
 62
253
  6
CONTINUOUS
370
13
390
13
347
21
1001
AcAecLayerStandard
1000

1000
Symbol palette - delete when done
  0
ENDTAB
  0
TABLE
  2
STYLE
  5
5
330
0
100
AcDbSymbolTable
 70
27
  0
STYLE
  5
29
330
5
100
AcDbSymbolTableRecord
100
AcDbTextStyleTableRecord
  2
Standard
 70
0
 40
0.0
 41
1.0
 50
0.0
 71
0
 42
2.5
  3
txt
  4

  0
STYLE
  5
41
330
5
100
AcDbSymbolTableRecord
100
AcDbTextStyleTableRecord
  2
OpenSans-Light
 70
0
 40
0.0
 41
1.0
 50
0.0
 71
0
 42
2.5
  3
OpenSans-Light.ttf
  4

  0
STYLE
  5
42
330
5
100
AcDbSymbolTableRecord
100
AcDbTextStyleTableRecord
  2
OpenSans-Light-Italic
 70
0
 40
0.0
 41
1.0
 50
0.0
 71
0
 42
2.5
  3
OpenSans-LightItalic.ttf
  4

  0
STYLE
  5
43
330
5
100
AcDbSymbolTableRecord
100
AcDbTextStyleTableRecord
  2
OpenSans
 70
0
 40
0.0
 41
1.0
 50
0.0
 71
0
 42
2.5
  3
OpenSans-Regular.ttf
  4

  0
STYLE
  5
44
330
5
100
AcDbSymbolTableRecord
100
AcDbTextStyleTableRecord
  2
OpenSans-Italic
 70
0
 40
0.0
 41
1.0
 50
0.0
 71
0
 42
2.5
  3
OpenSans-Italic.ttf
  4

  0
STYLE
  5
45
330
5
100
AcDbSymbolTableRecord
100
AcDbTextStyleTableRecord
  2
OpenSans-SemiBold
 70
0
 40
0.0
 41
1.0
 50
0.0
 71
0
 42
2.5
  3
OpenSans-SemiBold.ttf
  4

  0
STYLE
  5
46
330
5
100
AcDbSymbolTableRecord
100
AcDbTextStyleTableRecord
  2
OpenSans-SemiBoldItalic
 70
0
 40
0.0
 41
1.0
 50
0.0
 71
0
 42
2.5
  3
OpenSans-SemiBoldItalic.ttf
  4

  0
STYLE
  5
47
330
5
100
AcDbSymbolTableRecord
100
AcDbTextStyleTableRecord
  2
OpenSans-Bold
 70
0
 40
0.0
 41
1.0
 50
0.0
 71
0
 42
2.5
  3
OpenSans-Bold.ttf
  4

  0
STYLE
  5
48
330
5
100
AcDbSymbolTableRecord
100
AcDbTextStyleTableRecord
  2
OpenSans-BoldItalic
 70
0
 40
0.0
 41
1.0
 50
0.0
 71
0
 42
2.5
  3
OpenSans-BoldItalic.ttf
  4

  0
STYLE
  5
49
330
5
100
AcDbSymbolTableRecord
100
AcDbTextStyleTableRecord
  2
OpenSans-ExtraBold
 70
0
 40
0.0
 41
1.0
 50
0.0
 71
0
 42
2.5
  3
OpenSans-ExtraBold.ttf
  4

  0
STYLE
  5
4A
330
5
100
AcDbSymbolTableRecord
100
AcDbTextStyleTableRecord
  2
OpenSans-ExtraBoldItalic
 70
0
 40
0.0
 41
1.0
 50
0.0
 71
0
 42
2.5
  3
OpenSans-ExtraBoldItalic.ttf
  4

  0
STYLE
  5
4B
330
5
100
AcDbSymbolTableRecord
100
AcDbTextStyleTableRecord
  2
OpenSansCondensed-Bold
 70
0
 40
0.0
 41
1.0
 50
0.0
 71
0
 42
2.5
  3
OpenSansCondensed-Bold.ttf
  4

  0
STYLE
  5
4C
330
5
100
AcDbSymbolTableRecord
100
AcDbTextStyleTableRecord
  2
OpenSansCondensed-Light
 70
0
 40
0.0
 41
1.0
 50
0.0
 71
0
 42
2.5
  3
OpenSansCondensed-Light.ttf
  4

  0
STYLE
  5
4D
330
5
100
AcDbSymbolTableRecord
100
AcDbTextStyleTableRecord
  2
OpenSansCondensed-Italic
 70
0
 40
0.0
 41
1.0
 50
0.0
 71
0
 42
2.5
  3
OpenSansCondensed-LightItalic.ttf
  4

  0
STYLE
  5
4E
330
5
100
AcDbSymbolTableRecord
100
AcDbTextStyleTableRecord
  2
LiberationSans
 70
0
 40
0.0
 41
1.0
 50
0.0
 71
0
 42
2.5
  3
LiberationSans-Regular.ttf
  4

  0
STYLE
  5
4F
330
5
100
AcDbSymbolTableRecord
100
AcDbTextStyleTableRecord
  2
LiberationSans-Bold
 70
0
 40
0.0
 41
1.0
 50
0.0
 71
0
 42
2.5
  3
LiberationSans-Bold.ttf
  4

  0
STYLE
  5
50
330
5
100
AcDbSymbolTableRecord
100
AcDbTextStyleTableRecord
  2
LiberationSans-BoldItalic
 70
0
 40
0.0
 41
1.0
 50
0.0
 71
0
 42
2.5
  3
LiberationSans-BoldItalic.ttf
  4

  0
STYLE
  5
51
330
5
100
AcDbSymbolTableRecord
100
AcDbTextStyleTableRecord
  2
LiberationSans-Italic
 70
0
 40
0.0
 41
1.0
 50
0.0
 71
0
 42
2.5
  3
LiberationSans-Italic.ttf
  4

  0
STYLE
  5
52
330
5
100
AcDbSymbolTableRecord
100
AcDbTextStyleTableRecord
  2
LiberationSerif
 70
0
 40
0.0
 41
1.0
 50
0.0
 71
0
 42
2.5
  3
LiberationSerif-Regular.ttf
  4

  0
STYLE
  5
53
330
5
100
AcDbSymbolTableRecord
100
AcDbTextStyleTableRecord
  2
LiberationSerif-Bold
 70
0
 40
0.0
 41
1.0
 50
0.0
 71
0
 42
2.5
  3
LiberationSerif-Bold.ttf
  4

  0
STYLE
  5
54
330
5
100
AcDbSymbolTableRecord
100
AcDbTextStyleTableRecord
  2
LiberationSerif-BoldItalic
 70
0
 40
0.0
 41
1.0
 50
0.0
 71
0
 42
2.5
  3
LiberationSerif-BoldItalic.ttf
  4

  0
STYLE
  5
55
330
5
100
AcDbSymbolTableRecord
100
AcDbTextStyleTableRecord
  2
LiberationSerif-Italic
 70
0
 40
0.0
 41
1.0
 50
0.0
 71
0
 42
2.5
  3
LiberationSerif-Italic.ttf
  4

  0
STYLE
  5
56
330
5
100
AcDbSymbolTableRecord
100
AcDbTextStyleTableRecord
  2
LiberationMono
 70
0
 40
0.0
 41
1.0
 50
0.0
 71
0
 42
2.5
  3
LiberationMono-Regular.ttf
  4

  0
STYLE
  5
57
330
5
100
AcDbSymbolTableRecord
100
AcDbTextStyleTableRecord
  2
LiberationMono-Bold
 70
0
 40
0.0
 41
1.0
 50
0.0
 71
0
 42
2.5
  3
LiberationMono-Bold.ttf
  4

  0
STYLE
  5
58
330
5
100
AcDbSymbolTableRecord
100
AcDbTextStyleTableRecord
  2
LiberationMono-BoldItalic
 70
0
 40
0.0
 41
1.0
 50
0.0
 71
0
 42
2.5
  3
LiberationMono-BoldItalic.ttf
  4

  0
STYLE
  5
59
330
5
100
AcDbSymbolTableRecord
100
AcDbTextStyleTableRecord
  2
LiberationMono-Italic
 70
0
 40
0.0
 41
1.0
 50
0.0
 71
0
 42
2.5
  3
LiberationMono-Italic.ttf
  4

  0
STYLE
  5
A5
330
5
100
AcDbSymbolTableRecord
100
AcDbTextStyleTableRecord
  2
ANNO
 70
0
 40
0.0
 41
1.0
 50
0.0
 71
0
 42
2.5
  3
calibri.ttf
  4

  0
ENDTAB
  0
TABLE
  2
VIEW
  5
7
330
0
100
AcDbSymbolTable
 70
0
  0
ENDTAB
  0
TABLE
  2
UCS
  5
6
330
0
100
AcDbSymbolTable
 70
0
  0
ENDTAB
  0
TABLE
  2
APPID
  5
3
330
0
100
AcDbSymbolTable
 70
4
  0
APPID
  5
2A
330
3
100
AcDbSymbolTableRecord
100
AcDbRegAppTableRecord
  2
ACAD
 70
0
  0
APPID
  5
90
330
3
100
AcDbSymbolTableRecord
100
AcDbRegAppTableRecord
  2
AcAecLayerStandard
 70
0
  0
APPID
  5
33B
330
3
100
AcDbSymbolTableRecord
100
AcDbRegAppTableRecord
  2
HATCHBACKGROUNDCOLOR
 70
0
  0
APPID
  5
33C
330
3
100
AcDbSymbolTableRecord
100
AcDbRegAppTableRecord
  2
EZDXF
 70
0
  0
ENDTAB
  0
TABLE
  2
DIMSTYLE
  5
4
330
0
100
AcDbSymbolTable
 70
13
100
AcDbDimStyleTable
  0
DIMSTYLE
105
2B
330
4
100
AcDbSymbolTableRecord
100
AcDbDimStyleTableRecord
  2
Standard
 70
0
 40
1.0
 41
2.5
 42
0.625
 43
3.75
 44
1.25
 45
0.0
 46
0.0
 47
0.0
 48
0.0
 49
2.5
140
2.5
141
2.5
142
0.0
143
0.03937007874
144
1.0
145
0.0
146
1.0
147
0.625
148
0.0
 69
0
 70
0
 71
0
 72
0
 73
0
 74
0
 75
0
 76
0
 77
1
 78
8
 79
3
170
0
171
3
172
1
173
0
174
0
175
0
176
0
177
0
178
0
179
2
271
2
272
2
273
2
274
3
275
0
276
0
277
2
278
44
279
0
280
0
281
0
282
0
283
0
284
8
285
0
286
0
288
0
289
3
290
0
371
-2
372
-2
  0
DIMSTYLE
105
73
330
4
100
AcDbSymbolTableRecord
100
AcDbDimStyleTableRecord
  2
EZDXF
 70
0
 40
1.0
 41
0.175
 42
0.125
 43
3.75
 44
0.375
 45
0.0
 46
0.0
 47
0.0
 48
0.0
 49
2.5
140
0.25
141
2.5
142
0.0
143
0.03937007874
144
100.0
145
0.0
146
0.5
147
0.1
148
0.0
 69
0
 70
0
 71
0
 72
0
 73
0
 74
0
 75
0
 76
0
 77
1
 78
12
 79
3
170
0
171
3
172
1
173
0
174
0
175
0
176
0
177
0
178
0
179
2
271
2
272
2
273
2
274
3
275
0
276
0
277
2
278
46
279
2
280
0
281
0
282
0
283
0
284
8
285
0
286
0
288
1
289
3
290
0
340
4C
342
74
371
-2
372
-2
  0
DIMSTYLE
105
7C
330
4
100
AcDbSymbolTableRecord
100
AcDbDimStyleTableRecord
  2
EZ_M_100_H25_CM
 70
0
 40
1.0
 41
0.25
 42
0.125
 43
3.75
 44
0.375
 45
0.0
 46
0.0
 47
0.0
 48
0.0
 49
2.5
140
0.25
141
2.5
142
0.125
143
0.03937007874
144
100.0
145
0.0
146
0.5
147
0.1
148
0.0
 69
0
 70
0
 71
0
 72
0
 73
0
 74
0
 75
0
 76
0
 77
1
 78
12
 79
3
170
0
171
3
172
1
173
0
174
0
175
0
176
0
177
0
178
0
179
2
271
2
272
2
273
2
274
3
275
0
276
0
277
2
278
46
279
2
280
0
281
0
282
0
283
0
284
8
285
0
286
0
288
1
289
3
290
0
340
4C
371
-2
372
-2
  0
DIMSTYLE
105
7D
330
4
100
AcDbSymbolTableRecord
100
AcDbDimStyleTableRecord
  2
EZ_M_50_H25_CM
 70
0
 40
1.0
 41
0.125
 42
0.0625
 43
3.75
 44
0.1875
 45
0.0
 46
0.0
 47
0.0
 48
0.0
 49
2.5
140
0.125
141
2.5
142
0.0625
143
0.03937007874
144
100.0
145
0.0
146
0.5
147
0.05
148
0.0
 69
0
 70
0
 71
0
 72
0
 73
0
 74
0
 75
0
 76
0
 77
1
 78
12
 79
3
170
0
171
3
172
1
173
0
174
0
175
0
176
0
177
0
178
0
179
2
271
2
272
2
273
2
274
3
275
0
276
0
277
2
278
46
279
2
280
0
281
0
282
0
283
0
284
8
285
0
286
0
288
1
289
3
290
0
340
4C
371
-2
372
-2
  0
DIMSTYLE
105
7E
330
4
100
AcDbSymbolTableRecord
100
AcDbDimStyleTableRecord
  2
EZ_M_25_H25_CM
 70
0
 40
1.0
 41
0.0625
 42
0.03125
 43
3.75
 44
0.09375
 45
0.0
 46
0.0
 47
0.0
 48
0.0
 49
2.5
140
0.0625
141
2.5
142
0.03125
143
0.03937007874
144
100.0
145
0.0
146
0.5
147
0.025
148
0.0
 69
0
 70
0
 71
0
 72
0
 73
0
 74
0
 75
0
 76
0
 77
1
 78
12
 79
3
170
0
171
3
172
1
173
0
174
0
175
0
176
0
177
0
178
0
179
2
271
2
272
2
273
2
274
3
275
0
276
0
277
2
278
46
279
2
280
0
281
0
282
0
283
0
284
8
285
0
286
0
288
1
289
3
290
0
340
4C
371
-2
372
-2
  0
DIMSTYLE
105
7F
330
4
100
AcDbSymbolTableRecord
100
AcDbDimStyleTableRecord
  2
EZ_M_20_H25_CM
 70
0
 40
1.0
 41
0.05
 42
0.025
 43
3.75
 44
0.07500000000000001
 45
0.0
 46
0.0
 47
0.0
 48
0.0
 49
2.5
140
0.05
141
2.5
142
0.025
143
0.03937007874
144
100.0
145
0.0
146
0.5
147
0.020000000000000004
148
0.0
 69
0
 70
0
 71
0
 72
0
 73
0
 74
0
 75
0
 76
0
 77
1
 78
12
 79
3
170
0
171
3
172
1
173
0
174
0
175
0
176
0
177
0
178
0
179
2
271
2
272
2
273
2
274
3
275
0
276
0
277
2
278
46
279
2
280
0
281
0
282
0
283
0
284
8
285
0
286
0
288
1
289
3
290
0
340
4C
371
-2
372
-2
  0
DIMSTYLE
105
80
330
4
100
AcDbSymbolTableRecord
100
AcDbDimStyleTableRecord
  2
EZ_M_10_H25_CM
 70
0
 40
1.0
 41
0.025
 42
0.0125
 43
3.75
 44
0.037500000000000006
 45
0.0
 46
0.0
 47
0.0
 48
0.0
 49
2.5
140
0.025
141
2.5
142
0.0125
143
0.03937007874
144
100.0
145
0.0
146
0.5
147
0.010000000000000002
148
0.0
 69
0
 70
0
 71
0
 72
0
 73
0
 74
0
 75
0
 76
0
 77
1
 78
12
 79
3
170
0
171
3
172
1
173
0
174
0
175
0
176
0
177
0
178
0
179
2
271
2
272
2
273
2
274
3
275
0
276
0
277
2
278
46
279
2
280
0
281
0
282
0
283
0
284
8
285
0
286
0
288
1
289
3
290
0
340
4C
371
-2
372
-2
  0
DIMSTYLE
105
81
330
4
100
AcDbSymbolTableRecord
100
AcDbDimStyleTableRecord
  2
EZ_M_5_H25_CM
 70
0
 40
1.0
 41
0.0125
 42
0.00625
 43
3.75
 44
0.018750000000000003
 45
0.0
 46
0.0
 47
0.0
 48
0.0
 49
2.5
140
0.0125
141
2.5
142
0.00625
143
0.03937007874
144
100.0
145
0.0
146
0.5
147
0.005000000000000001
148
0.0
 69
0
 70
0
 71
0
 72
0
 73
0
 74
0
 75
0
 76
0
 77
1
 78
12
 79
3
170
0
171
3
172
1
173
0
174
0
175
0
176
0
177
0
178
0
179
2
271
2
272
2
273
2
274
3
275
0
276
0
277
2
278
46
279
2
280
0
281
0
282
0
283
0
284
8
285
0
286
0
288
1
289
3
290
0
340
4C
371
-2
372
-2
  0
DIMSTYLE
105
82
330
4
100
AcDbSymbolTableRecord
100
AcDbDimStyleTableRecord
  2
EZ_M_1_H25_CM
 70
0
 40
1.0
 41
0.0025
 42
0.00125
 43
3.75
 44
0.00375
 45
0.0
 46
0.0
 47
0.0
 48
0.0
 49
2.5
140
0.0025
141
2.5
142
0.00125
143
0.03937007874
144
100.0
145
0.0
146
0.5
147
0.001
148
0.0
 69
0
 70
0
 71
0
 72
0
 73
0
 74
0
 75
0
 76
0
 77
1
 78
12
 79
3
170
0
171
3
172
1
173
0
174
0
175
0
176
0
177
0
178
0
179
2
271
2
272
2
273
2
274
3
275
0
276
0
277
2
278
46
279
2
280
0
281
0
282
0
283
0
284
8
285
0
286
0
288
1
289
3
290
0
340
4C
371
-2
372
-2
  0
DIMSTYLE
105
83
330
4
100
AcDbSymbolTableRecord
100
AcDbDimStyleTableRecord
  2
EZ_RADIUS
 70
0
 40
1.0
 41
0.25
 42
0.125
 43
3.75
 44
0.375
 45
0.0
 46
0.0
 47
0.0
 48
0.0
 49
2.5
140
0.25
141
0.0
142
0.0
143
0.03937007874
144
100.0
145
0.0
146
0.5
147
0.1
148
0.0
 69
0
 70
0
 71
0
 72
0
 73
0
 74
0
 75
0
 76
0
 77
1
 78
12
 79
3
170
0
171
3
172
0
173
0
174
0
175
0
176
0
177
0
178
0
179
2
271
2
272
2
273
2
274
3
275
0
276
0
277
2
278
46
279
1
280
0
281
0
282
0
283
0
284
8
285
0
286
0
288
1
289
3
290
0
340
4C
342
84
371
-2
372
-2
  0
DIMSTYLE
105
88
330
4
100
AcDbSymbolTableRecord
100
AcDbDimStyleTableRecord
  2
EZ_RADIUS_INSIDE
 70
0
 40
1.0
 41
0.25
 42
0.125
 43
3.75
 44
0.375
 45
0.0
 46
0.0
 47
0.0
 48
0.0
 49
2.5
140
0.25
141
0.0
142
0.0
143
0.03937007874
144
100.0
145
0.0
146
0.5
147
0.1
148
0.0
 69
0
 70
0
 71
0
 72
0
 73
0
 74
0
 75
0
 76
0
 77
0
 78
12
 79
3
170
0
171
3
172
0
173
0
174
1
175
0
176
0
177
0
178
0
179
2
271
2
272
2
273
2
274
3
275
0
276
0
277
2
278
46
279
0
280
0
281
0
282
0
283
0
284
8
285
0
286
0
288
1
289
0
290
0
340
4C
342
84
371
-2
372
-2
  0
DIMSTYLE
105
89
330
4
100
AcDbSymbolTableRecord
100
AcDbDimStyleTableRecord
  2
EZ_CURVED
 70
0
 40
1.0
 41
0.25
 42
0.125
 43
3.75
 44
0.375
 45
0.0
 46
0.0
 47
0.0
 48
0.0
 49
2.5
140
0.25
141
2.5
142
0.0
143
0.03937007874
144
100.0
145
0.0
146
0.5
147
0.1
148
0.0
 69
0
 70
0
 71
0
 72
0
 73
0
 74
0
 75
0
 76
0
 77
1
 78
12
 79
2
 90
2
170
0
171
3
172
1
173
0
174
0
175
0
176
0
177
0
178
0
179
2
271
2
272
2
273
2
274
3
275
0
276
0
277
2
278
46
279
2
280
0
281
0
282
0
283
0
284
8
285
0
286
0
288
1
289
3
290
0
340
4C
371
-2
372
-2
  0
DIMSTYLE
105
A6
330
4
100
AcDbSymbolTableRecord
100
AcDbDimStyleTableRecord
  2
1-500
 70
0
 40
1.0
 41
0.75
 42
0.6
 43
3.75
 44
0.35
 45
0.0
 46
0.0
 47
0.0
 48
0.0
 49
2.5
140
1.25
141
2.5
142
0.0
143
0.03937007874
144
100.0
145
0.0
146
0.5
147
0.35
148
0.0
 69
0
 70
0
 71
0
 72
0
 73
0
 74
0
 75
0
 76
0
 77
1
 78
12
 79
3
170
0
171
3
172
1
173
0
174
0
175
0
176
0
177
0
178
4
179
2
271
2
272
2
273
2
274
3
275
0
276
0
277
2
278
46
279
2
280
0
281
0
282
0
283
0
284
8
285
0
286
0
288
1
289
3
290
0
340
A5
342
74
371
-2
372
-2
  0
ENDTAB
  0
TABLE
  2
BLOCK_RECORD
  5
9
330
0
100
AcDbSymbolTable
 70
29
  0
BLOCK_RECORD
  5
17
330
9
100
AcDbSymbolTableRecord
100
AcDbBlockTableRecord
  2
*Model_Space
340
1A
 70
0
280
1
281
0
  0
BLOCK_RECORD
  5
1B
330
9
100
AcDbSymbolTableRecord
100
AcDbBlockTableRecord
  2
*Paper_Space
340
1E
 70
0
280
1
281
0
  0
BLOCK_RECORD
  5
74
330
9
100
AcDbSymbolTableRecord
100
AcDbBlockTableRecord
  2
_ARCHTICK
340
0
 70
0
280
1
281
0
  0
BLOCK_RECORD
  5
78
330
9
100
AcDbSymbolTableRecord
100
AcDbBlockTableRecord
  2
_CLOSEDFILLED
340
0
 70
0
280
1
281
0
  0
BLOCK_RECORD
  5
84
330
9
100
AcDbSymbolTableRecord
100
AcDbBlockTableRecord
  2
_CLOSEDBLANK
340
0
 70
0
280
1
281
0
  0
BLOCK_RECORD
  5
A7
330
9
100
AcDbSymbolTableRecord
100
AcDbBlockTableRecord
  2
SIG-3SEC
340
0
 70
0
280
1
281
0
  0
BLOCK_RECORD
  5
AE
330
9
100
AcDbSymbolTableRecord
100
AcDbBlockTableRecord
  2
SIG-PED
340
0
 70
0
280
1
281
0
  0
BLOCK_RECORD
  5
B3
330
9
100
AcDbSymbolTableRecord
100
AcDbBlockTableRecord
  2
SIG-PB
340
0
 70
0
280
1
281
0
  0
BLOCK_RECORD
  5
B8
330
9
100
AcDbSymbolTableRecord
100
AcDbBlockTableRecord
  2
SIG-POLE
340
0
 70
0
280
1
281
0
  0
BLOCK_RECORD
  5
BE
330
9
100
AcDbSymbolTableRecord
100
AcDbBlockTableRecord
  2
SIG-MASTARM
340
0
 70
0
280
1
281
0
  0
BLOCK_RECORD
  5
C5
330
9
100
AcDbSymbolTableRecord
100
AcDbBlockTableRecord
  2
SIG-CABINET
340
0
 70
0
280
1
281
0
  0
BLOCK_RECORD
  5
CA
330
9
100
AcDbSymbolTableRecord
100
AcDbBlockTableRecord
  2
SIG-JB
340
0
 70
0
280
1
281
0
  0
BLOCK_RECORD
  5
CF
330
9
100
AcDbSymbolTableRecord
100
AcDbBlockTableRecord
  2
SIGN-POST
340
0
 70
0
280
1
281
0
  0
BLOCK_RECORD
  5
D6
330
9
100
AcDbSymbolTableRecord
100
AcDbBlockTableRecord
  2
DET-LOOP
340
0
 70
0
280
1
281
0
  0
BLOCK_RECORD
  5
DC
330
9
100
AcDbSymbolTableRecord
100
AcDbBlockTableRecord
  2
CURB-RAMP-TWSI
340
0
 70
0
280
1
281
0
  0
BLOCK_RECORD
  5
F8
330
9
100
AcDbSymbolTableRecord
100
AcDbBlockTableRecord
  2
TRAN-STOP
340
0
 70
0
280
1
281
0
  0
BLOCK_RECORD
  5
FD
330
9
100
AcDbSymbolTableRecord
100
AcDbBlockTableRecord
  2
ARROW-T
340
0
 70
0
280
1
281
0
  0
BLOCK_RECORD
  5
102
330
9
100
AcDbSymbolTableRecord
100
AcDbBlockTableRecord
  2
ARROW-L
340
0
 70
0
280
1
281
0
  0
BLOCK_RECORD
  5
108
330
9
100
AcDbSymbolTableRecord
100
AcDbBlockTableRecord
  2
ARROW-R
340
0
 70
0
280
1
281
0
  0
BLOCK_RECORD
  5
10E
330
9
100
AcDbSymbolTableRecord
100
AcDbBlockTableRecord
  2
ARROW-LT
340
0
 70
0
280
1
281
0
  0
BLOCK_RECORD
  5
115
330
9
100
AcDbSymbolTableRecord
100
AcDbBlockTableRecord
  2
ARROW-TR
340
0
 70
0
280
1
281
0
  0
BLOCK_RECORD
  5
11C
330
9
100
AcDbSymbolTableRecord
100
AcDbBlockTableRecord
  2
ARROW-LR
340
0
 70
0
280
1
281
0
  0
BLOCK_RECORD
  5
124
330
9
100
AcDbSymbolTableRecord
100
AcDbBlockTableRecord
  2
ARROW-LTR
340
0
 70
0
280
1
281
0
  0
BLOCK_RECORD
  5
12D
330
9
100
AcDbSymbolTableRecord
100
AcDbBlockTableRecord
  2
NORTH-ARROW
340
0
 70
0
280
1
281
0
  0
BLOCK_RECORD
  5
132
330
9
100
AcDbSymbolTableRecord
100
AcDbBlockTableRecord
  2
SCALE-BAR-500
340
0
 70
0
280
1
281
0
  0
BLOCK_RECORD
  5
2BC
330
9
100
AcDbSymbolTableRecord
100
AcDbBlockTableRecord
  2
*D1
340
0
 70
0
280
1
281
0
  0
BLOCK_RECORD
  5
2CB
330
9
100
AcDbSymbolTableRecord
100
AcDbBlockTableRecord
  2
*D2
340
0
 70
0
280
1
281
0
  0
BLOCK_RECORD
  5
2DE
330
9
100
AcDbSymbolTableRecord
100
AcDbBlockTableRecord
  2
*D3
340
0
 70
0
280
1
281
0
  0
BLOCK_RECORD
  5
329
330
9
100
AcDbSymbolTableRecord
100
AcDbBlockTableRecord
  2
*Paper_Space0
340
32C
 70
0
280
1
281
0
  0
ENDTAB
  0
ENDSEC
  0
SECTION
  2
BLOCKS
  0
BLOCK
  5
18
330
17
100
AcDbEntity
  8
0
100
AcDbBlockBegin
  2
*Model_Space
 70
0
 10
0.0
 20
0.0
 30
0.0
  3
*Model_Space
  1

  0
ENDBLK
  5
19
330
17
100
AcDbEntity
  8
0
100
AcDbBlockEnd
  0
BLOCK
  5
1C
330
1B
100
AcDbEntity
  8
0
100
AcDbBlockBegin
  2
*Paper_Space
 70
0
 10
0.0
 20
0.0
 30
0.0
  3
*Paper_Space
  1

  0
ENDBLK
  5
1D
330
1B
100
AcDbEntity
  8
0
100
AcDbBlockEnd
  0
BLOCK
  5
75
330
74
100
AcDbEntity
  8
0
100
AcDbBlockBegin
  2
_ARCHTICK
 70
0
 10
0.0
 20
0.0
 30
0.0
  3
_ARCHTICK
  1

  0
LWPOLYLINE
  5
77
330
74
100
AcDbEntity
  8
0
  6
BYBLOCK
 62
0
100
AcDbPolyline
 90
2
 70
0
 43
0.15
 10
-0.5
 20
-0.5
 10
0.5
 20
0.5
  0
ENDBLK
  5
76
330
74
100
AcDbEntity
  8
0
100
AcDbBlockEnd
  0
BLOCK
  5
79
330
78
100
AcDbEntity
  8
0
100
AcDbBlockBegin
  2
_CLOSEDFILLED
 70
0
 10
0.0
 20
0.0
 30
0.0
  3
_CLOSEDFILLED
  1

  0
SOLID
  5
7B
330
78
100
AcDbEntity
  8
0
  6
BYBLOCK
 62
0
100
AcDbTrace
 10
-1.0
 20
0.16439898372402537
 30
0.0
 11
0.0
 21
0.0
 31
0.0
 12
-1.0
 22
-0.16439898372402537
 32
0.0
 13
-1.0
 23
-0.16439898372402537
 33
0.0
  0
ENDBLK
  5
7A
330
78
100
AcDbEntity
  8
0
100
AcDbBlockEnd
  0
BLOCK
  5
85
330
84
100
AcDbEntity
  8
0
100
AcDbBlockBegin
  2
_CLOSEDBLANK
 70
0
 10
0.0
 20
0.0
 30
0.0
  3
_CLOSEDBLANK
  1

  0
LWPOLYLINE
  5
87
330
84
100
AcDbEntity
  8
0
  6
BYBLOCK
 62
0
100
AcDbPolyline
 90
3
 70
1
 10
-1.0
 20
0.16439898372402537
 10
0.0
 20
0.0
 10
-1.0
 20
-0.16439898372402537
  0
ENDBLK
  5
86
330
84
100
AcDbEntity
  8
0
100
AcDbBlockEnd
  0
BLOCK
  5
A8
330
A7
100
AcDbEntity
  8
0
100
AcDbBlockBegin
  2
SIG-3SEC
 70
0
 10
0.0
 20
0.0
 30
0.0
  3
SIG-3SEC
  1

  0
LWPOLYLINE
  5
AA
330
A7
100
AcDbEntity
  8
0
100
AcDbPolyline
 90
4
 70
1
 10
-0.5
 20
0.0
 10
0.5
 20
0.0
 10
0.5
 20
3.0
 10
-0.5
 20
3.0
  0
CIRCLE
  5
AB
330
A7
100
AcDbEntity
  8
0
100
AcDbCircle
 10
0.0
 20
0.5
 30
0.0
 40
0.35
  0
CIRCLE
  5
AC
330
A7
100
AcDbEntity
  8
0
100
AcDbCircle
 10
0.0
 20
1.5
 30
0.0
 40
0.35
  0
CIRCLE
  5
AD
330
A7
100
AcDbEntity
  8
0
100
AcDbCircle
 10
0.0
 20
2.5
 30
0.0
 40
0.35
  0
ENDBLK
  5
A9
330
A7
100
AcDbEntity
  8
0
100
AcDbBlockEnd
  0
BLOCK
  5
AF
330
AE
100
AcDbEntity
  8
0
100
AcDbBlockBegin
  2
SIG-PED
 70
0
 10
0.0
 20
0.0
 30
0.0
  3
SIG-PED
  1

  0
LWPOLYLINE
  5
B1
330
AE
100
AcDbEntity
  8
0
100
AcDbPolyline
 90
4
 70
1
 10
-0.6
 20
0.0
 10
0.6
 20
0.0
 10
0.6
 20
1.6
 10
-0.6
 20
1.6
  0
TEXT
  5
B2
330
AE
100
AcDbEntity
  8
0
100
AcDbText
 10
0.0
 20
0.8
 30
0.0
 40
0.9
  1
P
  7
ANNO
 72
1
 11
0.0
 21
0.8
 31
0.0
100
AcDbText
 73
2
  0
ENDBLK
  5
B0
330
AE
100
AcDbEntity
  8
0
100
AcDbBlockEnd
  0
BLOCK
  5
B4
330
B3
100
AcDbEntity
  8
0
100
AcDbBlockBegin
  2
SIG-PB
 70
0
 10
0.0
 20
0.0
 30
0.0
  3
SIG-PB
  1

  0
CIRCLE
  5
B6
330
B3
100
AcDbEntity
  8
0
100
AcDbCircle
 10
0.0
 20
0.0
 30
0.0
 40
0.55
  0
TEXT
  5
B7
330
B3
100
AcDbEntity
  8
0
100
AcDbText
 10
0.0
 20
0.0
 30
0.0
 40
0.55
  1
PB
  7
ANNO
 72
1
 11
0.0
 21
0.0
 31
0.0
100
AcDbText
 73
2
  0
ENDBLK
  5
B5
330
B3
100
AcDbEntity
  8
0
100
AcDbBlockEnd
  0
BLOCK
  5
B9
330
B8
100
AcDbEntity
  8
0
100
AcDbBlockBegin
  2
SIG-POLE
 70
0
 10
0.0
 20
0.0
 30
0.0
  3
SIG-POLE
  1

  0
CIRCLE
  5
BB
330
B8
100
AcDbEntity
  8
0
100
AcDbCircle
 10
0.0
 20
0.0
 30
0.0
 40
0.6
  0
LINE
  5
BC
330
B8
100
AcDbEntity
  8
0
100
AcDbLine
 10
-0.42
 20
-0.42
 30
0.0
 11
0.42
 21
0.42
 31
0.0
  0
LINE
  5
BD
330
B8
100
AcDbEntity
  8
0
100
AcDbLine
 10
-0.42
 20
0.42
 30
0.0
 11
0.42
 21
-0.42
 31
0.0
  0
ENDBLK
  5
BA
330
B8
100
AcDbEntity
  8
0
100
AcDbBlockEnd
  0
BLOCK
  5
BF
330
BE
100
AcDbEntity
  8
0
100
AcDbBlockBegin
  2
SIG-MASTARM
 70
0
 10
0.0
 20
0.0
 30
0.0
  3
SIG-MASTARM
  1

  0
CIRCLE
  5
C1
330
BE
100
AcDbEntity
  8
0
100
AcDbCircle
 10
0.0
 20
0.0
 30
0.0
 40
0.8
  0
LINE
  5
C2
330
BE
100
AcDbEntity
  8
0
100
AcDbLine
 10
-0.57
 20
-0.57
 30
0.0
 11
0.57
 21
0.57
 31
0.0
  0
LINE
  5
C3
330
BE
100
AcDbEntity
  8
0
100
AcDbLine
 10
-0.57
 20
0.57
 30
0.0
 11
0.57
 21
-0.57
 31
0.0
  0
LWPOLYLINE
  5
C4
330
BE
100
AcDbEntity
  8
0
100
AcDbPolyline
 90
4
 70
1
 10
0.8
 20
0.25
 10
8.0
 20
0.25
 10
8.0
 20
-0.25
 10
0.8
 20
-0.25
  0
ENDBLK
  5
C0
330
BE
100
AcDbEntity
  8
0
100
AcDbBlockEnd
  0
BLOCK
  5
C6
330
C5
100
AcDbEntity
  8
0
100
AcDbBlockBegin
  2
SIG-CABINET
 70
0
 10
0.0
 20
0.0
 30
0.0
  3
SIG-CABINET
  1

  0
LWPOLYLINE
  5
C8
330
C5
100
AcDbEntity
  8
0
100
AcDbPolyline
 90
4
 70
1
 10
-0.9
 20
-0.6
 10
0.9
 20
-0.6
 10
0.9
 20
0.6
 10
-0.9
 20
0.6
  0
TEXT
  5
C9
330
C5
100
AcDbEntity
  8
0
100
AcDbText
 10
0.0
 20
0.0
 30
0.0
 40
0.5
  1
CTRL
  7
ANNO
 72
1
 11
0.0
 21
0.0
 31
0.0
100
AcDbText
 73
2
  0
ENDBLK
  5
C7
330
C5
100
AcDbEntity
  8
0
100
AcDbBlockEnd
  0
BLOCK
  5
CB
330
CA
100
AcDbEntity
  8
0
100
AcDbBlockBegin
  2
SIG-JB
 70
0
 10
0.0
 20
0.0
 30
0.0
  3
SIG-JB
  1

  0
LWPOLYLINE
  5
CD
330
CA
100
AcDbEntity
  8
0
100
AcDbPolyline
 90
4
 70
1
 10
-0.45
 20
-0.35
 10
0.45
 20
-0.35
 10
0.45
 20
0.35
 10
-0.45
 20
0.35
  0
LINE
  5
CE
330
CA
100
AcDbEntity
  8
0
100
AcDbLine
 10
-0.45
 20
-0.35
 30
0.0
 11
0.45
 21
0.35
 31
0.0
  0
ENDBLK
  5
CC
330
CA
100
AcDbEntity
  8
0
100
AcDbBlockEnd
  0
BLOCK
  5
D0
330
CF
100
AcDbEntity
  8
0
100
AcDbBlockBegin
  2
SIGN-POST
 70
2
 10
0.0
 20
0.0
 30
0.0
  3
SIGN-POST
  1

  0
CIRCLE
  5
D2
330
CF
100
AcDbEntity
  8
0
100
AcDbCircle
 10
0.0
 20
0.0
 30
0.0
 40
0.25
  0
LWPOLYLINE
  5
D3
330
CF
100
AcDbEntity
  8
0
100
AcDbPolyline
 90
4
 70
1
 10
-0.8
 20
0.6
 10
0.8
 20
0.6
 10
0.8
 20
2.0
 10
-0.8
 20
2.0
  0
LINE
  5
D4
330
CF
100
AcDbEntity
  8
0
100
AcDbLine
 10
0.0
 20
0.25
 30
0.0
 11
0.0
 21
0.6
 31
0.0
  0
ATTDEF
  5
D5
330
CF
100
AcDbEntity
  8
0
100
AcDbText
 10
0.0
 20
1.3
 30
0.0
 40
0.9
  1

  7
ANNO
 72
1
 11
0.0
 21
1.3
 31
0.0
100
AcDbAttributeDefinition
  3
OTM sign code
  2
CODE
 70
0
 74
2
  0
ENDBLK
  5
D1
330
CF
100
AcDbEntity
  8
0
100
AcDbBlockEnd
  0
BLOCK
  5
D7
330
D6
100
AcDbEntity
  8
0
100
AcDbBlockBegin
  2
DET-LOOP
 70
0
 10
0.0
 20
0.0
 30
0.0
  3
DET-LOOP
  1

  0
LWPOLYLINE
  5
D9
330
D6
100
AcDbEntity
  8
0
100
AcDbPolyline
 90
4
 70
1
 10
-1.0
 20
-1.0
 10
1.0
 20
-1.0
 10
1.0
 20
1.0
 10
-1.0
 20
1.0
  0
LINE
  5
DA
330
D6
100
AcDbEntity
  8
0
100
AcDbLine
 10
-1.0
 20
-1.0
 30
0.0
 11
1.0
 21
1.0
 31
0.0
  0
LINE
  5
DB
330
D6
100
AcDbEntity
  8
0
100
AcDbLine
 10
-1.0
 20
1.0
 30
0.0
 11
1.0
 21
-1.0
 31
0.0
  0
ENDBLK
  5
D8
330
D6
100
AcDbEntity
  8
0
100
AcDbBlockEnd
  0
BLOCK
  5
DD
330
DC
100
AcDbEntity
  8
0
100
AcDbBlockBegin
  2
CURB-RAMP-TWSI
 70
0
 10
0.0
 20
0.0
 30
0.0
  3
CURB-RAMP-TWSI
  1

  0
LWPOLYLINE
  5
DF
330
DC
100
AcDbEntity
  8
0
100
AcDbPolyline
 90
4
 70
1
 10
0.0
 20
0.0
 10
1.65
 20
0.0
 10
1.65
 20
0.61
 10
0.0
 20
0.61
  0
CIRCLE
  5
E0
330
DC
100
AcDbEntity
  8
0
100
AcDbCircle
 10
0.1
 20
0.11
 30
0.0
 40
0.045
  0
CIRCLE
  5
E1
330
DC
100
AcDbEntity
  8
0
100
AcDbCircle
 10
0.1
 20
0.3
 30
0.0
 40
0.045
  0
CIRCLE
  5
E2
330
DC
100
AcDbEntity
  8
0
100
AcDbCircle
 10
0.1
 20
0.49
 30
0.0
 40
0.045
  0
CIRCLE
  5
E3
330
DC
100
AcDbEntity
  8
0
100
AcDbCircle
 10
0.29000000000000004
 20
0.11
 30
0.0
 40
0.045
  0
CIRCLE
  5
E4
330
DC
100
AcDbEntity
  8
0
100
AcDbCircle
 10
0.29000000000000004
 20
0.3
 30
0.0
 40
0.045
  0
CIRCLE
  5
E5
330
DC
100
AcDbEntity
  8
0
100
AcDbCircle
 10
0.29000000000000004
 20
0.49
 30
0.0
 40
0.045
  0
CIRCLE
  5
E6
330
DC
100
AcDbEntity
  8
0
100
AcDbCircle
 10
0.48000000000000004
 20
0.11
 30
0.0
 40
0.045
  0
CIRCLE
  5
E7
330
DC
100
AcDbEntity
  8
0
100
AcDbCircle
 10
0.48000000000000004
 20
0.3
 30
0.0
 40
0.045
  0
CIRCLE
  5
E8
330
DC
100
AcDbEntity
  8
0
100
AcDbCircle
 10
0.48000000000000004
 20
0.49
 30
0.0
 40
0.045
  0
CIRCLE
  5
E9
330
DC
100
AcDbEntity
  8
0
100
AcDbCircle
 10
0.67
 20
0.11
 30
0.0
 40
0.045
  0
CIRCLE
  5
EA
330
DC
100
AcDbEntity
  8
0
100
AcDbCircle
 10
0.67
 20
0.3
 30
0.0
 40
0.045
  0
CIRCLE
  5
EB
330
DC
100
AcDbEntity
  8
0
100
AcDbCircle
 10
0.67
 20
0.49
 30
0.0
 40
0.045
  0
CIRCLE
  5
EC
330
DC
100
AcDbEntity
  8
0
100
AcDbCircle
 10
0.8600000000000001
 20
0.11
 30
0.0
 40
0.045
  0
CIRCLE
  5
ED
330
DC
100
AcDbEntity
  8
0
100
AcDbCircle
 10
0.8600000000000001
 20
0.3
 30
0.0
 40
0.045
  0
CIRCLE
  5
EE
330
DC
100
AcDbEntity
  8
0
100
AcDbCircle
 10
0.8600000000000001
 20
0.49
 30
0.0
 40
0.045
  0
CIRCLE
  5
EF
330
DC
100
AcDbEntity
  8
0
100
AcDbCircle
 10
1.05
 20
0.11
 30
0.0
 40
0.045
  0
CIRCLE
  5
F0
330
DC
100
AcDbEntity
  8
0
100
AcDbCircle
 10
1.05
 20
0.3
 30
0.0
 40
0.045
  0
CIRCLE
  5
F1
330
DC
100
AcDbEntity
  8
0
100
AcDbCircle
 10
1.05
 20
0.49
 30
0.0
 40
0.045
  0
CIRCLE
  5
F2
330
DC
100
AcDbEntity
  8
0
100
AcDbCircle
 10
1.24
 20
0.11
 30
0.0
 40
0.045
  0
CIRCLE
  5
F3
330
DC
100
AcDbEntity
  8
0
100
AcDbCircle
 10
1.24
 20
0.3
 30
0.0
 40
0.045
  0
CIRCLE
  5
F4
330
DC
100
AcDbEntity
  8
0
100
AcDbCircle
 10
1.24
 20
0.49
 30
0.0
 40
0.045
  0
CIRCLE
  5
F5
330
DC
100
AcDbEntity
  8
0
100
AcDbCircle
 10
1.43
 20
0.11
 30
0.0
 40
0.045
  0
CIRCLE
  5
F6
330
DC
100
AcDbEntity
  8
0
100
AcDbCircle
 10
1.43
 20
0.3
 30
0.0
 40
0.045
  0
CIRCLE
  5
F7
330
DC
100
AcDbEntity
  8
0
100
AcDbCircle
 10
1.43
 20
0.49
 30
0.0
 40
0.045
  0
ENDBLK
  5
DE
330
DC
100
AcDbEntity
  8
0
100
AcDbBlockEnd
  0
BLOCK
  5
F9
330
F8
100
AcDbEntity
  8
0
100
AcDbBlockBegin
  2
TRAN-STOP
 70
0
 10
0.0
 20
0.0
 30
0.0
  3
TRAN-STOP
  1

  0
CIRCLE
  5
FB
330
F8
100
AcDbEntity
  8
0
100
AcDbCircle
 10
0.0
 20
0.0
 30
0.0
 40
0.3
  0
LWPOLYLINE
  5
FC
330
F8
100
AcDbEntity
  8
0
100
AcDbPolyline
 90
5
 70
0
 10
0.0
 20
0.3
 10
0.0
 20
2.2
 10
1.4
 20
2.2
 10
1.4
 20
1.3
 10
0.0
 20
1.3
  0
ENDBLK
  5
FA
330
F8
100
AcDbEntity
  8
0
100
AcDbBlockEnd
  0
BLOCK
  5
FE
330
FD
100
AcDbEntity
  8
0
100
AcDbBlockBegin
  2
ARROW-T
 70
0
 10
0.0
 20
0.0
 30
0.0
  3
ARROW-T
  1

  0
LWPOLYLINE
  5
100
330
FD
100
AcDbEntity
  8
0
100
AcDbPolyline
 90
4
 70
1
 10
-0.25
 20
0.0
 10
0.25
 20
0.0
 10
0.25
 20
3.5
 10
-0.25
 20
3.5
  0
LWPOLYLINE
  5
101
330
FD
100
AcDbEntity
  8
0
100
AcDbPolyline
 90
3
 70
1
 10
-0.75
 20
3.2
 10
0.75
 20
3.2
 10
0.0
 20
4.2
  0
ENDBLK
  5
FF
330
FD
100
AcDbEntity
  8
0
100
AcDbBlockEnd
  0
BLOCK
  5
103
330
102
100
AcDbEntity
  8
0
100
AcDbBlockBegin
  2
ARROW-L
 70
0
 10
0.0
 20
0.0
 30
0.0
  3
ARROW-L
  1

  0
LWPOLYLINE
  5
105
330
102
100
AcDbEntity
  8
0
100
AcDbPolyline
 90
4
 70
1
 10
-0.25
 20
0.0
 10
0.25
 20
0.0
 10
0.25
 20
3.2
 10
-0.25
 20
3.2
  0
LWPOLYLINE
  5
106
330
102
100
AcDbEntity
  8
0
100
AcDbPolyline
 90
4
 70
1
 10
-0.25
 20
2.6
 10
-1.4
 20
2.6
 10
-1.4
 20
3.2
 10
-0.25
 20
3.2
  0
LWPOLYLINE
  5
107
330
102
100
AcDbEntity
  8
0
100
AcDbPolyline
 90
3
 70
1
 10
-1.4
 20
2.15
 10
-2.4
 20
2.9
 10
-1.4
 20
3.65
  0
ENDBLK
  5
104
330
102
100
AcDbEntity
  8
0
100
AcDbBlockEnd
  0
BLOCK
  5
109
330
108
100
AcDbEntity
  8
0
100
AcDbBlockBegin
  2
ARROW-R
 70
0
 10
0.0
 20
0.0
 30
0.0
  3
ARROW-R
  1

  0
LWPOLYLINE
  5
10B
330
108
100
AcDbEntity
  8
0
100
AcDbPolyline
 90
4
 70
1
 10
-0.25
 20
0.0
 10
0.25
 20
0.0
 10
0.25
 20
3.2
 10
-0.25
 20
3.2
  0
LWPOLYLINE
  5
10C
330
108
100
AcDbEntity
  8
0
100
AcDbPolyline
 90
4
 70
1
 10
0.25
 20
2.6
 10
1.4
 20
2.6
 10
1.4
 20
3.2
 10
0.25
 20
3.2
  0
LWPOLYLINE
  5
10D
330
108
100
AcDbEntity
  8
0
100
AcDbPolyline
 90
3
 70
1
 10
1.4
 20
2.15
 10
2.4
 20
2.9
 10
1.4
 20
3.65
  0
ENDBLK
  5
10A
330
108
100
AcDbEntity
  8
0
100
AcDbBlockEnd
  0
BLOCK
  5
10F
330
10E
100
AcDbEntity
  8
0
100
AcDbBlockBegin
  2
ARROW-LT
 70
0
 10
0.0
 20
0.0
 30
0.0
  3
ARROW-LT
  1

  0
LWPOLYLINE
  5
111
330
10E
100
AcDbEntity
  8
0
100
AcDbPolyline
 90
4
 70
1
 10
-0.25
 20
0.0
 10
0.25
 20
0.0
 10
0.25
 20
3.5
 10
-0.25
 20
3.5
  0
LWPOLYLINE
  5
112
330
10E
100
AcDbEntity
  8
0
100
AcDbPolyline
 90
3
 70
1
 10
-0.75
 20
3.2
 10
0.75
 20
3.2
 10
0.0
 20
4.2
  0
LWPOLYLINE
  5
113
330
10E
100
AcDbEntity
  8
0
100
AcDbPolyline
 90
4
 70
1
 10
-0.25
 20
2.6
 10
-1.4
 20
2.6
 10
-1.4
 20
3.2
 10
-0.25
 20
3.2
  0
LWPOLYLINE
  5
114
330
10E
100
AcDbEntity
  8
0
100
AcDbPolyline
 90
3
 70
1
 10
-1.4
 20
2.15
 10
-2.4
 20
2.9
 10
-1.4
 20
3.65
  0
ENDBLK
  5
110
330
10E
100
AcDbEntity
  8
0
100
AcDbBlockEnd
  0
BLOCK
  5
116
330
115
100
AcDbEntity
  8
0
100
AcDbBlockBegin
  2
ARROW-TR
 70
0
 10
0.0
 20
0.0
 30
0.0
  3
ARROW-TR
  1

  0
LWPOLYLINE
  5
118
330
115
100
AcDbEntity
  8
0
100
AcDbPolyline
 90
4
 70
1
 10
-0.25
 20
0.0
 10
0.25
 20
0.0
 10
0.25
 20
3.5
 10
-0.25
 20
3.5
  0
LWPOLYLINE
  5
119
330
115
100
AcDbEntity
  8
0
100
AcDbPolyline
 90
3
 70
1
 10
-0.75
 20
3.2
 10
0.75
 20
3.2
 10
0.0
 20
4.2
  0
LWPOLYLINE
  5
11A
330
115
100
AcDbEntity
  8
0
100
AcDbPolyline
 90
4
 70
1
 10
0.25
 20
2.6
 10
1.4
 20
2.6
 10
1.4
 20
3.2
 10
0.25
 20
3.2
  0
LWPOLYLINE
  5
11B
330
115
100
AcDbEntity
  8
0
100
AcDbPolyline
 90
3
 70
1
 10
1.4
 20
2.15
 10
2.4
 20
2.9
 10
1.4
 20
3.65
  0
ENDBLK
  5
117
330
115
100
AcDbEntity
  8
0
100
AcDbBlockEnd
  0
BLOCK
  5
11D
330
11C
100
AcDbEntity
  8
0
100
AcDbBlockBegin
  2
ARROW-LR
 70
0
 10
0.0
 20
0.0
 30
0.0
  3
ARROW-LR
  1

  0
LWPOLYLINE
  5
11F
330
11C
100
AcDbEntity
  8
0
100
AcDbPolyline
 90
4
 70
1
 10
-0.25
 20
0.0
 10
0.25
 20
0.0
 10
0.25
 20
3.2
 10
-0.25
 20
3.2
  0
LWPOLYLINE
  5
120
330
11C
100
AcDbEntity
  8
0
100
AcDbPolyline
 90
4
 70
1
 10
-0.25
 20
2.6
 10
-1.4
 20
2.6
 10
-1.4
 20
3.2
 10
-0.25
 20
3.2
  0
LWPOLYLINE
  5
121
330
11C
100
AcDbEntity
  8
0
100
AcDbPolyline
 90
3
 70
1
 10
-1.4
 20
2.15
 10
-2.4
 20
2.9
 10
-1.4
 20
3.65
  0
LWPOLYLINE
  5
122
330
11C
100
AcDbEntity
  8
0
100
AcDbPolyline
 90
4
 70
1
 10
0.25
 20
2.6
 10
1.4
 20
2.6
 10
1.4
 20
3.2
 10
0.25
 20
3.2
  0
LWPOLYLINE
  5
123
330
11C
100
AcDbEntity
  8
0
100
AcDbPolyline
 90
3
 70
1
 10
1.4
 20
2.15
 10
2.4
 20
2.9
 10
1.4
 20
3.65
  0
ENDBLK
  5
11E
330
11C
100
AcDbEntity
  8
0
100
AcDbBlockEnd
  0
BLOCK
  5
125
330
124
100
AcDbEntity
  8
0
100
AcDbBlockBegin
  2
ARROW-LTR
 70
0
 10
0.0
 20
0.0
 30
0.0
  3
ARROW-LTR
  1

  0
LWPOLYLINE
  5
127
330
124
100
AcDbEntity
  8
0
100
AcDbPolyline
 90
4
 70
1
 10
-0.25
 20
0.0
 10
0.25
 20
0.0
 10
0.25
 20
3.5
 10
-0.25
 20
3.5
  0
LWPOLYLINE
  5
128
330
124
100
AcDbEntity
  8
0
100
AcDbPolyline
 90
3
 70
1
 10
-0.75
 20
3.2
 10
0.75
 20
3.2
 10
0.0
 20
4.2
  0
LWPOLYLINE
  5
129
330
124
100
AcDbEntity
  8
0
100
AcDbPolyline
 90
4
 70
1
 10
-0.25
 20
2.6
 10
-1.4
 20
2.6
 10
-1.4
 20
3.2
 10
-0.25
 20
3.2
  0
LWPOLYLINE
  5
12A
330
124
100
AcDbEntity
  8
0
100
AcDbPolyline
 90
3
 70
1
 10
-1.4
 20
2.15
 10
-2.4
 20
2.9
 10
-1.4
 20
3.65
  0
LWPOLYLINE
  5
12B
330
124
100
AcDbEntity
  8
0
100
AcDbPolyline
 90
4
 70
1
 10
0.25
 20
2.6
 10
1.4
 20
2.6
 10
1.4
 20
3.2
 10
0.25
 20
3.2
  0
LWPOLYLINE
  5
12C
330
124
100
AcDbEntity
  8
0
100
AcDbPolyline
 90
3
 70
1
 10
1.4
 20
2.15
 10
2.4
 20
2.9
 10
1.4
 20
3.65
  0
ENDBLK
  5
126
330
124
100
AcDbEntity
  8
0
100
AcDbBlockEnd
  0
BLOCK
  5
12E
330
12D
100
AcDbEntity
  8
0
100
AcDbBlockBegin
  2
NORTH-ARROW
 70
0
 10
0.0
 20
0.0
 30
0.0
  3
NORTH-ARROW
  1

  0
LWPOLYLINE
  5
130
330
12D
100
AcDbEntity
  8
0
100
AcDbPolyline
 90
4
 70
1
 10
0.0
 20
0.0
 10
-2.2
 20
-3.0
 10
0.0
 20
9.0
 10
2.2
 20
-3.0
  0
TEXT
  5
131
330
12D
100
AcDbEntity
  8
0
100
AcDbText
 10
0.0
 20
10.0
 30
0.0
 40
2.5
  1
N
  7
ANNO
 72
1
 11
0.0
 21
10.0
 31
0.0
100
AcDbText
 73
1
  0
ENDBLK
  5
12F
330
12D
100
AcDbEntity
  8
0
100
AcDbBlockEnd
  0
BLOCK
  5
133
330
132
100
AcDbEntity
  8
0
100
AcDbBlockBegin
  2
SCALE-BAR-500
 70
0
 10
0.0
 20
0.0
 30
0.0
  3
SCALE-BAR-500
  1

  0
LWPOLYLINE
  5
135
330
132
100
AcDbEntity
  8
0
100
AcDbPolyline
 90
4
 70
1
 10
0.0
 20
0.0
 10
10.0
 20
0.0
 10
10.0
 20
1.2
 10
0.0
 20
1.2
  0
HATCH
  5
136
330
132
100
AcDbEntity
  8
0
 62
7
100
AcDbHatch
 10
0.0
 20
0.0
 30
0.0
210
0.0
220
0.0
230
1.0
  2
SOLID
 70
1
 71
0
 91
1
 92
3
 72
0
 73
1
 93
4
 10
0.0
 20
0.0
 10
10.0
 20
0.0
 10
10.0
 20
1.2
 10
0.0
 20
1.2
 97
0
 75
0
 76
1
 98
0
  0
TEXT
  5
137
330
132
100
AcDbEntity
  8
0
100
AcDbText
 10
0.0
 20
-0.6
 30
0.0
 40
1.25
  1
0
  7
ANNO
 72
1
 11
0.0
 21
-0.6
 31
0.0
100
AcDbText
 73
3
  0
LWPOLYLINE
  5
138
330
132
100
AcDbEntity
  8
0
100
AcDbPolyline
 90
4
 70
1
 10
10.0
 20
0.0
 10
20.0
 20
0.0
 10
20.0
 20
1.2
 10
10.0
 20
1.2
  0
TEXT
  5
139
330
132
100
AcDbEntity
  8
0
100
AcDbText
 10
10.0
 20
-0.6
 30
0.0
 40
1.25
  1
10
  7
ANNO
 72
1
 11
10.0
 21
-0.6
 31
0.0
100
AcDbText
 73
3
  0
LWPOLYLINE
  5
13A
330
132
100
AcDbEntity
  8
0
100
AcDbPolyline
 90
4
 70
1
 10
20.0
 20
0.0
 10
30.0
 20
0.0
 10
30.0
 20
1.2
 10
20.0
 20
1.2
  0
HATCH
  5
13B
330
132
100
AcDbEntity
  8
0
 62
7
100
AcDbHatch
 10
0.0
 20
0.0
 30
0.0
210
0.0
220
0.0
230
1.0
  2
SOLID
 70
1
 71
0
 91
1
 92
3
 72
0
 73
1
 93
4
 10
20.0
 20
0.0
 10
30.0
 20
0.0
 10
30.0
 20
1.2
 10
20.0
 20
1.2
 97
0
 75
0
 76
1
 98
0
  0
TEXT
  5
13C
330
132
100
AcDbEntity
  8
0
100
AcDbText
 10
20.0
 20
-0.6
 30
0.0
 40
1.25
  1
20
  7
ANNO
 72
1
 11
20.0
 21
-0.6
 31
0.0
100
AcDbText
 73
3
  0
LWPOLYLINE
  5
13D
330
132
100
AcDbEntity
  8
0
100
AcDbPolyline
 90
4
 70
1
 10
30.0
 20
0.0
 10
40.0
 20
0.0
 10
40.0
 20
1.2
 10
30.0
 20
1.2
  0
TEXT
  5
13E
330
132
100
AcDbEntity
  8
0
100
AcDbText
 10
30.0
 20
-0.6
 30
0.0
 40
1.25
  1
30
  7
ANNO
 72
1
 11
30.0
 21
-0.6
 31
0.0
100
AcDbText
 73
3
  0
LWPOLYLINE
  5
13F
330
132
100
AcDbEntity
  8
0
100
AcDbPolyline
 90
4
 70
1
 10
40.0
 20
0.0
 10
50.0
 20
0.0
 10
50.0
 20
1.2
 10
40.0
 20
1.2
  0
HATCH
  5
140
330
132
100
AcDbEntity
  8
0
 62
7
100
AcDbHatch
 10
0.0
 20
0.0
 30
0.0
210
0.0
220
0.0
230
1.0
  2
SOLID
 70
1
 71
0
 91
1
 92
3
 72
0
 73
1
 93
4
 10
40.0
 20
0.0
 10
50.0
 20
0.0
 10
50.0
 20
1.2
 10
40.0
 20
1.2
 97
0
 75
0
 76
1
 98
0
  0
TEXT
  5
141
330
132
100
AcDbEntity
  8
0
100
AcDbText
 10
40.0
 20
-0.6
 30
0.0
 40
1.25
  1
40
  7
ANNO
 72
1
 11
40.0
 21
-0.6
 31
0.0
100
AcDbText
 73
3
  0
TEXT
  5
142
330
132
100
AcDbEntity
  8
0
100
AcDbText
 10
50.0
 20
-0.6
 30
0.0
 40
1.25
  1
50
  7
ANNO
 72
1
 11
50.0
 21
-0.6
 31
0.0
100
AcDbText
 73
3
  0
TEXT
  5
143
330
132
100
AcDbEntity
  8
0
100
AcDbText
 10
25.0
 20
-2.4
 30
0.0
 40
1.25
  1
METRES   1:500
  7
ANNO
 72
1
 11
25.0
 21
-2.4
 31
0.0
100
AcDbText
 73
3
  0
ENDBLK
  5
134
330
132
100
AcDbEntity
  8
0
100
AcDbBlockEnd
  0
BLOCK
  5
2BD
330
2BC
100
AcDbEntity
  8
0
100
AcDbBlockBegin
  2
*D1
 70
1
 10
0.0
 20
0.0
 30
0.0
  3
*D1
  1

  0
LINE
  5
2BF
330
2BC
100
AcDbEntity
  8
0
100
AcDbLine
 10
-60.0
 20
-15.6
 30
0.0
 11
-60.0
 21
-30.35
 31
0.0
  0
LINE
  5
2C0
330
2BC
100
AcDbEntity
  8
0
100
AcDbLine
 10
-60.0
 20
-0.6
 30
0.0
 11
-60.0
 21
-30.35
 31
0.0
  0
INSERT
  5
2C1
330
2BC
100
AcDbEntity
  8
C-DIMS
100
AcDbBlockReference
  2
_ARCHTICK
 10
-60.0
 20
-30.0
 30
0.0
 41
0.75
 42
0.75
  0
INSERT
  5
2C3
330
2BC
100
AcDbEntity
  8
C-DIMS
100
AcDbBlockReference
  2
_ARCHTICK
 10
-60.0
 20
-30.0
 30
0.0
 41
0.75
 42
0.75
 50
180.0
  0
LINE
  5
2C5
330
2BC
100
AcDbEntity
  8
0
100
AcDbLine
 10
-60.0
 20
-30.0
 30
0.0
 11
-60.0
 21
-30.0
 31
0.0
  0
MTEXT
  5
2C6
330
2BC
100
AcDbEntity
  8
C-DIMS
 62
4
100
AcDbMText
 10
-60.0
 20
-28.675
 30
0.0
 40
1.25
 71
5
  1
15.00
  7
ANNO
  0
POINT
  5
2C7
330
2BC
100
AcDbEntity
  8
Defpoints
100
AcDbPoint
 10
-60.0
 20
-30.0
 30
0.0
  0
POINT
  5
2C8
330
2BC
100
AcDbEntity
  8
Defpoints
100
AcDbPoint
 10
-60.0
 20
-15.0
 30
0.0
  0
POINT
  5
2C9
330
2BC
100
AcDbEntity
  8
Defpoints
100
AcDbPoint
 10
-60.0
 20
0.0
 30
0.0
  0
ENDBLK
  5
2BE
330
2BC
100
AcDbEntity
  8
0
100
AcDbBlockEnd
  0
BLOCK
  5
2CC
330
2CB
100
AcDbEntity
  8
0
100
AcDbBlockBegin
  2
*D2
 70
1
 10
0.0
 20
0.0
 30
0.0
  3
*D2
  1

  0
LINE
  5
2CE
330
2CB
100
AcDbEntity
  8
0
100
AcDbLine
 10
-11.5
 20
-30.6
 30
0.0
 11
-11.5
 21
-37.35
 31
0.0
  0
LINE
  5
2CF
330
2CB
100
AcDbEntity
  8
0
100
AcDbLine
 10
11.5
 20
-30.6
 30
0.0
 11
11.5
 21
-37.35
 31
0.0
  0
INSERT
  5
2D0
330
2CB
100
AcDbEntity
  8
C-DIMS
100
AcDbBlockReference
  2
_ARCHTICK
 10
-11.5
 20
-37.0
 30
0.0
 41
0.75
 42
0.75
 50
180.0
  0
INSERT
  5
2D2
330
2CB
100
AcDbEntity
  8
C-DIMS
100
AcDbBlockReference
  2
_ARCHTICK
 10
11.5
 20
-37.0
 30
0.0
 41
0.75
 42
0.75
  0
LINE
  5
2D4
330
2CB
100
AcDbEntity
  8
0
100
AcDbLine
 10
-11.5
 20
-37.0
 30
0.0
 11
11.5
 21
-37.0
 31
0.0
  0
MTEXT
  5
2D5
330
2CB
100
AcDbEntity
  8
C-DIMS
 62
4
100
AcDbMText
 10
0.0
 20
-36.025
 30
0.0
 40
1.25
 71
5
  1
23.00
  7
ANNO
  0
POINT
  5
2D6
330
2CB
100
AcDbEntity
  8
Defpoints
100
AcDbPoint
 10
-11.5
 20
-37.0
 30
0.0
  0
POINT
  5
2D7
330
2CB
100
AcDbEntity
  8
Defpoints
100
AcDbPoint
 10
-11.5
 20
-30.0
 30
0.0
  0
POINT
  5
2D8
330
2CB
100
AcDbEntity
  8
Defpoints
100
AcDbPoint
 10
11.5
 20
-30.0
 30
0.0
  0
ENDBLK
  5
2CD
330
2CB
100
AcDbEntity
  8
0
100
AcDbBlockEnd
  0
BLOCK
  5
2DF
330
2DE
100
AcDbEntity
  8
0
100
AcDbBlockBegin
  2
*D3
 70
1
 10
0.0
 20
0.0
 30
0.0
  3
*D3
  1

  0
LINE
  5
2E1
330
2DE
100
AcDbEntity
  8
0
100
AcDbLine
 10
-10.9
 20
16.5
 30
0.0
 11
0.35
 21
16.5
 31
0.0
  0
LINE
  5
2E2
330
2DE
100
AcDbEntity
  8
0
100
AcDbLine
 10
-10.9
 20
19.5
 30
0.0
 11
0.35
 21
19.5
 31
0.0
  0
INSERT
  5
2E3
330
2DE
100
AcDbEntity
  8
C-DIMS
100
AcDbBlockReference
  2
_ARCHTICK
 10
0.0
 20
16.5
 30
0.0
 41
0.75
 42
0.75
 50
270.0
  0
INSERT
  5
2E5
330
2DE
100
AcDbEntity
  8
C-DIMS
100
AcDbBlockReference
  2
_ARCHTICK
 10
0.0
 20
19.5
 30
0.0
 41
0.75
 42
0.75
 50
90.0
  0
LINE
  5
2E7
330
2DE
100
AcDbEntity
  8
0
100
AcDbLine
 10
0.0
 20
16.5
 30
0.0
 11
0.0
 21
19.5
 31
0.0
  0
MTEXT
  5
2E8
330
2DE
100
AcDbEntity
  8
C-DIMS
 62
4
100
AcDbMText
 10
-1.325
 20
18.0
 30
0.0
 40
1.25
 71
5
  1
3.00
  7
ANNO
 50
90.0
  0
POINT
  5
2E9
330
2DE
100
AcDbEntity
  8
Defpoints
100
AcDbPoint
 10
0.0
 20
16.5
 30
0.0
  0
POINT
  5
2EA
330
2DE
100
AcDbEntity
  8
Defpoints
100
AcDbPoint
 10
-11.5
 20
16.5
 30
0.0
  0
POINT
  5
2EB
330
2DE
100
AcDbEntity
  8
Defpoints
100
AcDbPoint
 10
-11.5
 20
19.5
 30
0.0
  0
ENDBLK
  5
2E0
330
2DE
100
AcDbEntity
  8
0
100
AcDbBlockEnd
  0
BLOCK
  5
32A
330
329
100
AcDbEntity
  8
0
100
AcDbBlockBegin
  2
*Paper_Space0
 70
0
 10
0.0
 20
0.0
 30
0.0
  3
*Paper_Space0
  1

  0
VIEWPORT
  5
32D
330
329
100
AcDbEntity
 67
1
  8
VIEWPORTS
100
AcDbViewport
 10
420.5
 20
297.0
 30
0.0
 40
925.1
 41
653.4000000000001
 68
1
 69
1
 12
420.5
 22
297.0
 13
0.0
 23
0.0
 14
10.0
 24
10.0
 15
10.0
 25
10.0
 16
0.0
 26
0.0
 36
1.0
 17
0.0
 27
0.0
 37
0.0
 42
50.0
 43
0.0
 44
0.0
 45
653.4000000000001
 50
0.0
 51
0.0
 72
100
 90
557088
  1

281
0
 71
0
 74
0
110
0.0
120
0.0
130
0.0
111
1.0
121
0.0
131
0.0
112
0.0
122
1.0
132
0.0
 79
0
146
0.0
282
0
  0
LWPOLYLINE
  5
32E
330
329
100
AcDbEntity
 67
1
  8
C-ANNO
100
AcDbPolyline
 90
4
 70
1
 10
10.0
 20
10.0
 10
831.0
 20
10.0
 10
831.0
 20
584.0
 10
10.0
 20
584.0
  0
LWPOLYLINE
  5
32F
330
329
100
AcDbEntity
 67
1
  8
C-ANNO
100
AcDbPolyline
 90
4
 70
1
 10
641.0
 20
10.0
 10
831.0
 20
10.0
 10
831.0
 20
100.0
 10
641.0
 20
100.0
  0
LINE
  5
330
330
329
100
AcDbEntity
 67
1
  8
C-ANNO
100
AcDbLine
 10
641.0
 20
40.0
 30
0.0
 11
831.0
 21
40.0
 31
0.0
  0
LINE
  5
331
330
329
100
AcDbEntity
 67
1
  8
C-ANNO
100
AcDbLine
 10
641.0
 20
56.0
 30
0.0
 11
831.0
 21
56.0
 31
0.0
  0
LINE
  5
332
330
329
100
AcDbEntity
 67
1
  8
C-ANNO
100
AcDbLine
 10
641.0
 20
72.0
 30
0.0
 11
831.0
 21
72.0
 31
0.0
  0
LINE
  5
333
330
329
100
AcDbEntity
 67
1
  8
C-ANNO
100
AcDbLine
 10
641.0
 20
86.0
 30
0.0
 11
831.0
 21
86.0
 31
0.0
  0
TEXT
  5
334
330
329
100
AcDbEntity
 67
1
  8
C-ANNO
100
AcDbText
 10
646.0
 20
90.0
 30
0.0
 40
3.5
  1
INTERSECTION IMPROVEMENT PLAN
  7
ANNO
 11
646.0
 21
90.0
 31
0.0
100
AcDbText
 73
2
  0
TEXT
  5
335
330
329
100
AcDbEntity
 67
1
  8
C-ANNO
100
AcDbText
 10
646.0
 20
78.0
 30
0.0
 40
3.0
  1
LOCATION:  STEELES AVE AT YONGE ST
  7
ANNO
 11
646.0
 21
78.0
 31
0.0
100
AcDbText
 73
2
  0
TEXT
  5
336
330
329
100
AcDbEntity
 67
1
  8
C-ANNO
100
AcDbText
 10
646.0
 20
64.0
 30
0.0
 40
3.0
  1
DRAWING:  EXISTING CONDITIONS / PROPOSED
  7
ANNO
 11
646.0
 21
64.0
 31
0.0
100
AcDbText
 73
2
  0
TEXT
  5
337
330
329
100
AcDbEntity
 67
1
  8
C-ANNO
100
AcDbText
 10
646.0
 20
48.0
 30
0.0
 40
3.0
  1
SCALE 1:500        DATE:            SHEET  1 OF 2
  7
ANNO
 11
646.0
 21
48.0
 31
0.0
100
AcDbText
 73
2
  0
TEXT
  5
338
330
329
100
AcDbEntity
 67
1
  8
C-ANNO
100
AcDbText
 10
646.0
 20
30.0
 30
0.0
 40
3.0
  1
DRAWN BY:
  7
ANNO
 11
646.0
 21
30.0
 31
0.0
100
AcDbText
 73
2
  0
TEXT
  5
339
330
329
100
AcDbEntity
 67
1
  8
C-ANNO
100
AcDbText
 10
646.0
 20
24.0
 30
0.0
 40
2.5
  1
REFERENCES:  TAC GDG, OTM BOOK 11 / 12, AODA DOPS
  7
ANNO
 11
646.0
 21
24.0
 31
0.0
100
AcDbText
 73
2
  0
VIEWPORT
  5
33A
330
329
100
AcDbEntity
 67
1
  8
VIEWPORTS
100
AcDbViewport
 10
320.0
 20
300.0
 30
0.0
 40
610.0
 41
550.0
 68
1
 69
3
 12
0.0
 22
0.0
 13
0.0
 23
0.0
 14
10.0
 24
10.0
 15
10.0
 25
10.0
 16
0.0
 26
0.0
 36
1.0
 17
0.0
 27
0.0
 37
0.0
 42
50.0
 43
0.0
 44
0.0
 45
275.0
 50
0.0
 51
0.0
 72
100
 90
0
  1

281
0
 71
0
 74
0
110
0.0
120
0.0
130
0.0
111
1.0
121
0.0
131
0.0
112
0.0
122
1.0
132
0.0
 79
0
146
0.0
282
0
  0
ENDBLK
  5
32B
330
329
100
AcDbEntity
  8
0
100
AcDbBlockEnd
  0
ENDSEC
  0
SECTION
  2
ENTITIES
  0
LWPOLYLINE
  5
144
330
17
100
AcDbEntity
  8
C-CURB
100
AcDbPolyline
 90
2
 70
0
 10
-70.0
 20
15.0
 10
-26.5
 20
15.0
  0
LWPOLYLINE
  5
145
330
17
100
AcDbEntity
  8
C-CURB
100
AcDbPolyline
 90
2
 70
0
 10
-11.5
 20
70.0
 10
-11.5
 20
30.0
  0
ARC
  5
146
330
17
100
AcDbEntity
  8
C-CURB
100
AcDbCircle
 10
-26.5
 20
30.0
 30
0.0
 40
15.0
100
AcDbArc
 50
270.0
 51
360.0
  0
LWPOLYLINE
  5
147
330
17
100
AcDbEntity
  8
C-PED
100
AcDbPolyline
 90
2
 70
0
 10
-70.0
 20
17.5
 10
-26.5
 20
17.5
  0
LWPOLYLINE
  5
148
330
17
100
AcDbEntity
  8
C-PED
100
AcDbPolyline
 90
2
 70
0
 10
-14.0
 20
70.0
 10
-14.0
 20
30.0
  0
ARC
  5
149
330
17
100
AcDbEntity
  8
C-PED
100
AcDbCircle
 10
-26.5
 20
30.0
 30
0.0
 40
12.5
100
AcDbArc
 50
270.0
 51
360.0
  0
LWPOLYLINE
  5
14A
330
17
100
AcDbEntity
  8
C-PED
100
AcDbPolyline
 90
2
 70
0
 10
-70.0
 20
19.5
 10
-26.5
 20
19.5
  0
LWPOLYLINE
  5
14B
330
17
100
AcDbEntity
  8
C-PED
100
AcDbPolyline
 90
2
 70
0
 10
-16.0
 20
70.0
 10
-16.0
 20
30.0
  0
ARC
  5
14C
330
17
100
AcDbEntity
  8
C-PED
100
AcDbCircle
 10
-26.5
 20
30.0
 30
0.0
 40
10.5
100
AcDbArc
 50
270.0
 51
360.0
  0
LWPOLYLINE
  5
14D
330
17
100
AcDbEntity
  8
C-CURB
100
AcDbPolyline
 90
2
 70
0
 10
70.0
 20
15.0
 10
23.5
 20
15.0
  0
LWPOLYLINE
  5
14E
330
17
100
AcDbEntity
  8
C-CURB
100
AcDbPolyline
 90
2
 70
0
 10
11.5
 20
70.0
 10
11.5
 20
27.0
  0
ARC
  5
14F
330
17
100
AcDbEntity
  8
C-CURB
100
AcDbCircle
 10
23.5
 20
27.0
 30
0.0
 40
12.0
100
AcDbArc
 50
180.0
 51
270.0
  0
LWPOLYLINE
  5
150
330
17
100
AcDbEntity
  8
C-PED
100
AcDbPolyline
 90
2
 70
0
 10
70.0
 20
17.5
 10
23.5
 20
17.5
  0
LWPOLYLINE
  5
151
330
17
100
AcDbEntity
  8
C-PED
100
AcDbPolyline
 90
2
 70
0
 10
14.0
 20
70.0
 10
14.0
 20
27.0
  0
ARC
  5
152
330
17
100
AcDbEntity
  8
C-PED
100
AcDbCircle
 10
23.5
 20
27.0
 30
0.0
 40
9.5
100
AcDbArc
 50
180.0
 51
270.0
  0
LWPOLYLINE
  5
153
330
17
100
AcDbEntity
  8
C-PED
100
AcDbPolyline
 90
2
 70
0
 10
70.0
 20
19.5
 10
23.5
 20
19.5
  0
LWPOLYLINE
  5
154
330
17
100
AcDbEntity
  8
C-PED
100
AcDbPolyline
 90
2
 70
0
 10
16.0
 20
70.0
 10
16.0
 20
27.0
  0
ARC
  5
155
330
17
100
AcDbEntity
  8
C-PED
100
AcDbCircle
 10
23.5
 20
27.0
 30
0.0
 40
7.5
100
AcDbArc
 50
180.0
 51
270.0
  0
LWPOLYLINE
  5
156
330
17
100
AcDbEntity
  8
C-CURB
100
AcDbPolyline
 90
2
 70
0
 10
70.0
 20
-15.0
 10
23.5
 20
-15.0
  0
LWPOLYLINE
  5
157
330
17
100
AcDbEntity
  8
C-CURB
100
AcDbPolyline
 90
2
 70
0
 10
11.5
 20
-70.0
 10
11.5
 20
-27.0
  0
ARC
  5
158
330
17
100
AcDbEntity
  8
C-CURB
100
AcDbCircle
 10
23.5
 20
-27.0
 30
0.0
 40
12.0
100
AcDbArc
 50
90.0
 51
180.0
  0
LWPOLYLINE
  5
159
330
17
100
AcDbEntity
  8
C-PED
100
AcDbPolyline
 90
2
 70
0
 10
70.0
 20
-17.5
 10
23.5
 20
-17.5
  0
LWPOLYLINE
  5
15A
330
17
100
AcDbEntity
  8
C-PED
100
AcDbPolyline
 90
2
 70
0
 10
14.0
 20
-70.0
 10
14.0
 20
-27.0
  0
ARC
  5
15B
330
17
100
AcDbEntity
  8
C-PED
100
AcDbCircle
 10
23.5
 20
-27.0
 30
0.0
 40
9.5
100
AcDbArc
 50
90.0
 51
180.0
  0
LWPOLYLINE
  5
15C
330
17
100
AcDbEntity
  8
C-PED
100
AcDbPolyline
 90
2
 70
0
 10
70.0
 20
-19.5
 10
23.5
 20
-19.5
  0
LWPOLYLINE
  5
15D
330
17
100
AcDbEntity
  8
C-PED
100
AcDbPolyline
 90
2
 70
0
 10
16.0
 20
-70.0
 10
16.0
 20
-27.0
  0
ARC
  5
15E
330
17
100
AcDbEntity
  8
C-PED
100
AcDbCircle
 10
23.5
 20
-27.0
 30
0.0
 40
7.5
100
AcDbArc
 50
90.0
 51
180.0
  0
LWPOLYLINE
  5
15F
330
17
100
AcDbEntity
  8
C-CURB
100
AcDbPolyline
 90
2
 70
0
 10
-70.0
 20
-15.0
 10
-26.5
 20
-15.0
  0
LWPOLYLINE
  5
160
330
17
100
AcDbEntity
  8
C-CURB
100
AcDbPolyline
 90
2
 70
0
 10
-11.5
 20
-70.0
 10
-11.5
 20
-30.0
  0
ARC
  5
161
330
17
100
AcDbEntity
  8
C-CURB
100
AcDbCircle
 10
-26.5
 20
-30.0
 30
0.0
 40
15.0
100
AcDbArc
 50
0.0
 51
90.0
  0
LWPOLYLINE
  5
162
330
17
100
AcDbEntity
  8
C-PED
100
AcDbPolyline
 90
2
 70
0
 10
-70.0
 20
-17.5
 10
-26.5
 20
-17.5
  0
LWPOLYLINE
  5
163
330
17
100
AcDbEntity
  8
C-PED
100
AcDbPolyline
 90
2
 70
0
 10
-14.0
 20
-70.0
 10
-14.0
 20
-30.0
  0
ARC
  5
164
330
17
100
AcDbEntity
  8
C-PED
100
AcDbCircle
 10
-26.5
 20
-30.0
 30
0.0
 40
12.5
100
AcDbArc
 50
0.0
 51
90.0
  0
LWPOLYLINE
  5
165
330
17
100
AcDbEntity
  8
C-PED
100
AcDbPolyline
 90
2
 70
0
 10
-70.0
 20
-19.5
 10
-26.5
 20
-19.5
  0
LWPOLYLINE
  5
166
330
17
100
AcDbEntity
  8
C-PED
100
AcDbPolyline
 90
2
 70
0
 10
-16.0
 20
-70.0
 10
-16.0
 20
-30.0
  0
ARC
  5
167
330
17
100
AcDbEntity
  8
C-PED
100
AcDbCircle
 10
-26.5
 20
-30.0
 30
0.0
 40
10.5
100
AcDbArc
 50
0.0
 51
90.0
  0
LWPOLYLINE
  5
168
330
17
100
AcDbEntity
  8
C-MARK-LANE
100
AcDbPolyline
 90
2
 70
0
 10
-70.0
 20
4.5
 10
-17.6
 20
4.5
  0
LWPOLYLINE
  5
169
330
17
100
AcDbEntity
  8
C-MARK-LANE
100
AcDbPolyline
 90
2
 70
0
 10
17.6
 20
4.5
 10
70.0
 20
4.5
  0
LWPOLYLINE
  5
16A
330
17
100
AcDbEntity
  8
C-MARK-LANE
100
AcDbPolyline
 90
2
 70
0
 10
-70.0
 20
-4.5
 10
-17.6
 20
-4.5
  0
LWPOLYLINE
  5
16B
330
17
100
AcDbEntity
  8
C-MARK-LANE
100
AcDbPolyline
 90
2
 70
0
 10
17.6
 20
-4.5
 10
70.0
 20
-4.5
  0
LWPOLYLINE
  5
16C
330
17
100
AcDbEntity
  8
C-MARK-LANE
100
AcDbPolyline
 90
2
 70
0
 10
-70.0
 20
8.0
 10
-17.6
 20
8.0
  0
LWPOLYLINE
  5
16D
330
17
100
AcDbEntity
  8
C-MARK-LANE
100
AcDbPolyline
 90
2
 70
0
 10
17.6
 20
8.0
 10
70.0
 20
8.0
  0
LWPOLYLINE
  5
16E
330
17
100
AcDbEntity
  8
C-MARK-LANE
100
AcDbPolyline
 90
2
 70
0
 10
-70.0
 20
-8.0
 10
-17.6
 20
-8.0
  0
LWPOLYLINE
  5
16F
330
17
100
AcDbEntity
  8
C-MARK-LANE
100
AcDbPolyline
 90
2
 70
0
 10
17.6
 20
-8.0
 10
70.0
 20
-8.0
  0
LWPOLYLINE
  5
170
330
17
100
AcDbEntity
  8
C-MARK-LANE
100
AcDbPolyline
 90
2
 70
0
 10
-70.0
 20
11.5
 10
-17.6
 20
11.5
  0
LWPOLYLINE
  5
171
330
17
100
AcDbEntity
  8
C-MARK-LANE
100
AcDbPolyline
 90
2
 70
0
 10
17.6
 20
11.5
 10
70.0
 20
11.5
  0
LWPOLYLINE
  5
172
330
17
100
AcDbEntity
  8
C-MARK-LANE
100
AcDbPolyline
 90
2
 70
0
 10
-70.0
 20
-11.5
 10
-17.6
 20
-11.5
  0
LWPOLYLINE
  5
173
330
17
100
AcDbEntity
  8
C-MARK-LANE
100
AcDbPolyline
 90
2
 70
0
 10
17.6
 20
-11.5
 10
70.0
 20
-11.5
  0
LWPOLYLINE
  5
174
330
17
100
AcDbEntity
  8
C-MARK-LANE
100
AcDbPolyline
 90
2
 70
0
 10
4.5
 20
-70.0
 10
4.5
 20
-21.1
  0
LWPOLYLINE
  5
175
330
17
100
AcDbEntity
  8
C-MARK-LANE
100
AcDbPolyline
 90
2
 70
0
 10
4.5
 20
21.1
 10
4.5
 20
70.0
  0
LWPOLYLINE
  5
176
330
17
100
AcDbEntity
  8
C-MARK-LANE
100
AcDbPolyline
 90
2
 70
0
 10
-4.5
 20
-70.0
 10
-4.5
 20
-21.1
  0
LWPOLYLINE
  5
177
330
17
100
AcDbEntity
  8
C-MARK-LANE
100
AcDbPolyline
 90
2
 70
0
 10
-4.5
 20
21.1
 10
-4.5
 20
70.0
  0
LWPOLYLINE
  5
178
330
17
100
AcDbEntity
  8
C-MARK-LANE
100
AcDbPolyline
 90
2
 70
0
 10
8.0
 20
-70.0
 10
8.0
 20
-21.1
  0
LWPOLYLINE
  5
179
330
17
100
AcDbEntity
  8
C-MARK-LANE
100
AcDbPolyline
 90
2
 70
0
 10
8.0
 20
21.1
 10
8.0
 20
70.0
  0
LWPOLYLINE
  5
17A
330
17
100
AcDbEntity
  8
C-MARK-LANE
100
AcDbPolyline
 90
2
 70
0
 10
-8.0
 20
-70.0
 10
-8.0
 20
-21.1
  0
LWPOLYLINE
  5
17B
330
17
100
AcDbEntity
  8
C-MARK-LANE
100
AcDbPolyline
 90
2
 70
0
 10
-8.0
 20
21.1
 10
-8.0
 20
70.0
  0
LWPOLYLINE
  5
17C
330
17
100
AcDbEntity
  8
C-MARK-EXT
100
AcDbPolyline
 90
2
 70
0
 10
-13.0
 20
4.5
 10
13.0
 20
4.5
  0
LWPOLYLINE
  5
17D
330
17
100
AcDbEntity
  8
C-MARK-EXT
100
AcDbPolyline
 90
2
 70
0
 10
-13.0
 20
-4.5
 10
13.0
 20
-4.5
  0
LWPOLYLINE
  5
17E
330
17
100
AcDbEntity
  8
C-MARK-EXT
100
AcDbPolyline
 90
2
 70
0
 10
-13.0
 20
8.0
 10
13.0
 20
8.0
  0
LWPOLYLINE
  5
17F
330
17
100
AcDbEntity
  8
C-MARK-EXT
100
AcDbPolyline
 90
2
 70
0
 10
-13.0
 20
-8.0
 10
13.0
 20
-8.0
  0
LWPOLYLINE
  5
180
330
17
100
AcDbEntity
  8
C-MARK-EXT
100
AcDbPolyline
 90
2
 70
0
 10
-13.0
 20
11.5
 10
13.0
 20
11.5
  0
LWPOLYLINE
  5
181
330
17
100
AcDbEntity
  8
C-MARK-EXT
100
AcDbPolyline
 90
2
 70
0
 10
-13.0
 20
-11.5
 10
13.0
 20
-11.5
  0
LWPOLYLINE
  5
182
330
17
100
AcDbEntity
  8
C-MARK-EXT
100
AcDbPolyline
 90
2
 70
0
 10
4.5
 20
-16.5
 10
4.5
 20
16.5
  0
LWPOLYLINE
  5
183
330
17
100
AcDbEntity
  8
C-MARK-EXT
100
AcDbPolyline
 90
2
 70
0
 10
-4.5
 20
-16.5
 10
-4.5
 20
16.5
  0
LWPOLYLINE
  5
184
330
17
100
AcDbEntity
  8
C-MARK-EXT
100
AcDbPolyline
 90
2
 70
0
 10
8.0
 20
-16.5
 10
8.0
 20
16.5
  0
LWPOLYLINE
  5
185
330
17
100
AcDbEntity
  8
C-MARK-EXT
100
AcDbPolyline
 90
2
 70
0
 10
-8.0
 20
-16.5
 10
-8.0
 20
16.5
  0
LWPOLYLINE
  5
186
330
17
100
AcDbEntity
  8
C-MARK-STOP
100
AcDbPolyline
 90
4
 70
1
 10
-17.6
 20
-15.0
 10
-17.0
 20
-15.0
 10
-17.0
 20
-1.0
 10
-17.6
 20
-1.0
  0
HATCH
  5
187
330
17
100
AcDbEntity
  8
C-MARK-STOP
 62
7
100
AcDbHatch
 10
0.0
 20
0.0
 30
0.0
210
0.0
220
0.0
230
1.0
  2
SOLID
 70
1
 71
0
 91
1
 92
3
 72
0
 73
1
 93
4
 10
-17.6
 20
-15.0
 10
-17.0
 20
-15.0
 10
-17.0
 20
-1.0
 10
-17.6
 20
-1.0
 97
0
 75
0
 76
1
 98
0
  0
LWPOLYLINE
  5
188
330
17
100
AcDbEntity
  8
C-MARK-STOP
100
AcDbPolyline
 90
4
 70
1
 10
17.0
 20
1.0
 10
17.6
 20
1.0
 10
17.6
 20
15.0
 10
17.0
 20
15.0
  0
HATCH
  5
189
330
17
100
AcDbEntity
  8
C-MARK-STOP
 62
7
100
AcDbHatch
 10
0.0
 20
0.0
 30
0.0
210
0.0
220
0.0
230
1.0
  2
SOLID
 70
1
 71
0
 91
1
 92
3
 72
0
 73
1
 93
4
 10
17.0
 20
1.0
 10
17.6
 20
1.0
 10
17.6
 20
15.0
 10
17.0
 20
15.0
 97
0
 75
0
 76
1
 98
0
  0
LWPOLYLINE
  5
18A
330
17
100
AcDbEntity
  8
C-MARK-STOP
100
AcDbPolyline
 90
4
 70
1
 10
1.0
 20
-21.1
 10
11.5
 20
-21.1
 10
11.5
 20
-20.5
 10
1.0
 20
-20.5
  0
HATCH
  5
18B
330
17
100
AcDbEntity
  8
C-MARK-STOP
 62
7
100
AcDbHatch
 10
0.0
 20
0.0
 30
0.0
210
0.0
220
0.0
230
1.0
  2
SOLID
 70
1
 71
0
 91
1
 92
3
 72
0
 73
1
 93
4
 10
1.0
 20
-21.1
 10
11.5
 20
-21.1
 10
11.5
 20
-20.5
 10
1.0
 20
-20.5
 97
0
 75
0
 76
1
 98
0
  0
LWPOLYLINE
  5
18C
330
17
100
AcDbEntity
  8
C-MARK-STOP
100
AcDbPolyline
 90
4
 70
1
 10
-11.5
 20
20.5
 10
-1.0
 20
20.5
 10
-1.0
 20
21.1
 10
-11.5
 20
21.1
  0
HATCH
  5
18D
330
17
100
AcDbEntity
  8
C-MARK-STOP
 62
7
100
AcDbHatch
 10
0.0
 20
0.0
 30
0.0
210
0.0
220
0.0
230
1.0
  2
SOLID
 70
1
 71
0
 91
1
 92
3
 72
0
 73
1
 93
4
 10
-11.5
 20
20.5
 10
-1.0
 20
20.5
 10
-1.0
 20
21.1
 10
-11.5
 20
21.1
 97
0
 75
0
 76
1
 98
0
  0
LWPOLYLINE
  5
18E
330
17
100
AcDbEntity
  8
C-MARK
100
AcDbPolyline
 90
2
 70
0
 10
-16.0
 20
-15.0
 10
-13.0
 20
-15.0
  0
LWPOLYLINE
  5
18F
330
17
100
AcDbEntity
  8
C-MARK
100
AcDbPolyline
 90
2
 70
0
 10
-16.0
 20
15.0
 10
-13.0
 20
15.0
  0
LWPOLYLINE
  5
190
330
17
100
AcDbEntity
  8
C-MARK
100
AcDbPolyline
 90
4
 70
1
 10
-16.0
 20
-14.5
 10
-13.0
 20
-14.5
 10
-13.0
 20
-14.0
 10
-16.0
 20
-14.0
  0
LWPOLYLINE
  5
191
330
17
100
AcDbEntity
  8
C-MARK
100
AcDbPolyline
 90
4
 70
1
 10
-16.0
 20
-13.5
 10
-13.0
 20
-13.5
 10
-13.0
 20
-13.0
 10
-16.0
 20
-13.0
  0
LWPOLYLINE
  5
192
330
17
100
AcDbEntity
  8
C-MARK
100
AcDbPolyline
 90
4
 70
1
 10
-16.0
 20
-12.5
 10
-13.0
 20
-12.5
 10
-13.0
 20
-12.0
 10
-16.0
 20
-12.0
  0
LWPOLYLINE
  5
193
330
17
100
AcDbEntity
  8
C-MARK
100
AcDbPolyline
 90
4
 70
1
 10
-16.0
 20
-11.5
 10
-13.0
 20
-11.5
 10
-13.0
 20
-11.0
 10
-16.0
 20
-11.0
  0
LWPOLYLINE
  5
194
330
17
100
AcDbEntity
  8
C-MARK
100
AcDbPolyline
 90
4
 70
1
 10
-16.0
 20
-10.5
 10
-13.0
 20
-10.5
 10
-13.0
 20
-10.0
 10
-16.0
 20
-10.0
  0
LWPOLYLINE
  5
195
330
17
100
AcDbEntity
  8
C-MARK
100
AcDbPolyline
 90
4
 70
1
 10
-16.0
 20
-9.5
 10
-13.0
 20
-9.5
 10
-13.0
 20
-9.0
 10
-16.0
 20
-9.0
  0
LWPOLYLINE
  5
196
330
17
100
AcDbEntity
  8
C-MARK
100
AcDbPolyline
 90
4
 70
1
 10
-16.0
 20
-8.5
 10
-13.0
 20
-8.5
 10
-13.0
 20
-8.0
 10
-16.0
 20
-8.0
  0
LWPOLYLINE
  5
197
330
17
100
AcDbEntity
  8
C-MARK
100
AcDbPolyline
 90
4
 70
1
 10
-16.0
 20
-7.5
 10
-13.0
 20
-7.5
 10
-13.0
 20
-7.0
 10
-16.0
 20
-7.0
  0
LWPOLYLINE
  5
198
330
17
100
AcDbEntity
  8
C-MARK
100
AcDbPolyline
 90
4
 70
1
 10
-16.0
 20
-6.5
 10
-13.0
 20
-6.5
 10
-13.0
 20
-6.0
 10
-16.0
 20
-6.0
  0
LWPOLYLINE
  5
199
330
17
100
AcDbEntity
  8
C-MARK
100
AcDbPolyline
 90
4
 70
1
 10
-16.0
 20
-5.5
 10
-13.0
 20
-5.5
 10
-13.0
 20
-5.0
 10
-16.0
 20
-5.0
  0
LWPOLYLINE
  5
19A
330
17
100
AcDbEntity
  8
C-MARK
100
AcDbPolyline
 90
4
 70
1
 10
-16.0
 20
-4.5
 10
-13.0
 20
-4.5
 10
-13.0
 20
-4.0
 10
-16.0
 20
-4.0
  0
LWPOLYLINE
  5
19B
330
17
100
AcDbEntity
  8
C-MARK
100
AcDbPolyline
 90
4
 70
1
 10
-16.0
 20
-3.5
 10
-13.0
 20
-3.5
 10
-13.0
 20
-3.0
 10
-16.0
 20
-3.0
  0
LWPOLYLINE
  5
19C
330
17
100
AcDbEntity
  8
C-MARK
100
AcDbPolyline
 90
4
 70
1
 10
-16.0
 20
-2.5
 10
-13.0
 20
-2.5
 10
-13.0
 20
-2.0
 10
-16.0
 20
-2.0
  0
LWPOLYLINE
  5
19D
330
17
100
AcDbEntity
  8
C-MARK
100
AcDbPolyline
 90
4
 70
1
 10
-16.0
 20
-1.5
 10
-13.0
 20
-1.5
 10
-13.0
 20
-1.0
 10
-16.0
 20
-1.0
  0
LWPOLYLINE
  5
19E
330
17
100
AcDbEntity
  8
C-MARK
100
AcDbPolyline
 90
4
 70
1
 10
-16.0
 20
-0.5
 10
-13.0
 20
-0.5
 10
-13.0
 20
0.0
 10
-16.0
 20
0.0
  0
LWPOLYLINE
  5
19F
330
17
100
AcDbEntity
  8
C-MARK
100
AcDbPolyline
 90
4
 70
1
 10
-16.0
 20
0.5
 10
-13.0
 20
0.5
 10
-13.0
 20
1.0
 10
-16.0
 20
1.0
  0
LWPOLYLINE
  5
1A0
330
17
100
AcDbEntity
  8
C-MARK
100
AcDbPolyline
 90
4
 70
1
 10
-16.0
 20
1.5
 10
-13.0
 20
1.5
 10
-13.0
 20
2.0
 10
-16.0
 20
2.0
  0
LWPOLYLINE
  5
1A1
330
17
100
AcDbEntity
  8
C-MARK
100
AcDbPolyline
 90
4
 70
1
 10
-16.0
 20
2.5
 10
-13.0
 20
2.5
 10
-13.0
 20
3.0
 10
-16.0
 20
3.0
  0
LWPOLYLINE
  5
1A2
330
17
100
AcDbEntity
  8
C-MARK
100
AcDbPolyline
 90
4
 70
1
 10
-16.0
 20
3.5
 10
-13.0
 20
3.5
 10
-13.0
 20
4.0
 10
-16.0
 20
4.0
  0
LWPOLYLINE
  5
1A3
330
17
100
AcDbEntity
  8
C-MARK
100
AcDbPolyline
 90
4
 70
1
 10
-16.0
 20
4.5
 10
-13.0
 20
4.5
 10
-13.0
 20
5.0
 10
-16.0
 20
5.0
  0
LWPOLYLINE
  5
1A4
330
17
100
AcDbEntity
  8
C-MARK
100
AcDbPolyline
 90
4
 70
1
 10
-16.0
 20
5.5
 10
-13.0
 20
5.5
 10
-13.0
 20
6.0
 10
-16.0
 20
6.0
  0
LWPOLYLINE
  5
1A5
330
17
100
AcDbEntity
  8
C-MARK
100
AcDbPolyline
 90
4
 70
1
 10
-16.0
 20
6.5
 10
-13.0
 20
6.5
 10
-13.0
 20
7.0
 10
-16.0
 20
7.0
  0
LWPOLYLINE
  5
1A6
330
17
100
AcDbEntity
  8
C-MARK
100
AcDbPolyline
 90
4
 70
1
 10
-16.0
 20
7.5
 10
-13.0
 20
7.5
 10
-13.0
 20
8.0
 10
-16.0
 20
8.0
  0
LWPOLYLINE
  5
1A7
330
17
100
AcDbEntity
  8
C-MARK
100
AcDbPolyline
 90
4
 70
1
 10
-16.0
 20
8.5
 10
-13.0
 20
8.5
 10
-13.0
 20
9.0
 10
-16.0
 20
9.0
  0
LWPOLYLINE
  5
1A8
330
17
100
AcDbEntity
  8
C-MARK
100
AcDbPolyline
 90
4
 70
1
 10
-16.0
 20
9.5
 10
-13.0
 20
9.5
 10
-13.0
 20
10.0
 10
-16.0
 20
10.0
  0
LWPOLYLINE
  5
1A9
330
17
100
AcDbEntity
  8
C-MARK
100
AcDbPolyline
 90
4
 70
1
 10
-16.0
 20
10.5
 10
-13.0
 20
10.5
 10
-13.0
 20
11.0
 10
-16.0
 20
11.0
  0
LWPOLYLINE
  5
1AA
330
17
100
AcDbEntity
  8
C-MARK
100
AcDbPolyline
 90
4
 70
1
 10
-16.0
 20
11.5
 10
-13.0
 20
11.5
 10
-13.0
 20
12.0
 10
-16.0
 20
12.0
  0
LWPOLYLINE
  5
1AB
330
17
100
AcDbEntity
  8
C-MARK
100
AcDbPolyline
 90
4
 70
1
 10
-16.0
 20
12.5
 10
-13.0
 20
12.5
 10
-13.0
 20
13.0
 10
-16.0
 20
13.0
  0
LWPOLYLINE
  5
1AC
330
17
100
AcDbEntity
  8
C-MARK
100
AcDbPolyline
 90
4
 70
1
 10
-16.0
 20
13.5
 10
-13.0
 20
13.5
 10
-13.0
 20
14.0
 10
-16.0
 20
14.0
  0
LWPOLYLINE
  5
1AD
330
17
100
AcDbEntity
  8
C-MARK
100
AcDbPolyline
 90
2
 70
0
 10
13.0
 20
-15.0
 10
16.0
 20
-15.0
  0
LWPOLYLINE
  5
1AE
330
17
100
AcDbEntity
  8
C-MARK
100
AcDbPolyline
 90
2
 70
0
 10
13.0
 20
15.0
 10
16.0
 20
15.0
  0
LWPOLYLINE
  5
1AF
330
17
100
AcDbEntity
  8
C-MARK
100
AcDbPolyline
 90
4
 70
1
 10
13.0
 20
-14.5
 10
16.0
 20
-14.5
 10
16.0
 20
-14.0
 10
13.0
 20
-14.0
  0
LWPOLYLINE
  5
1B0
330
17
100
AcDbEntity
  8
C-MARK
100
AcDbPolyline
 90
4
 70
1
 10
13.0
 20
-13.5
 10
16.0
 20
-13.5
 10
16.0
 20
-13.0
 10
13.0
 20
-13.0
  0
LWPOLYLINE
  5
1B1
330
17
100
AcDbEntity
  8
C-MARK
100
AcDbPolyline
 90
4
 70
1
 10
13.0
 20
-12.5
 10
16.0
 20
-12.5
 10
16.0
 20
-12.0
 10
13.0
 20
-12.0
  0
LWPOLYLINE
  5
1B2
330
17
100
AcDbEntity
  8
C-MARK
100
AcDbPolyline
 90
4
 70
1
 10
13.0
 20
-11.5
 10
16.0
 20
-11.5
 10
16.0
 20
-11.0
 10
13.0
 20
-11.0
  0
LWPOLYLINE
  5
1B3
330
17
100
AcDbEntity
  8
C-MARK
100
AcDbPolyline
 90
4
 70
1
 10
13.0
 20
-10.5
 10
16.0
 20
-10.5
 10
16.0
 20
-10.0
 10
13.0
 20
-10.0
  0
LWPOLYLINE
  5
1B4
330
17
100
AcDbEntity
  8
C-MARK
100
AcDbPolyline
 90
4
 70
1
 10
13.0
 20
-9.5
 10
16.0
 20
-9.5
 10
16.0
 20
-9.0
 10
13.0
 20
-9.0
  0
LWPOLYLINE
  5
1B5
330
17
100
AcDbEntity
  8
C-MARK
100
AcDbPolyline
 90
4
 70
1
 10
13.0
 20
-8.5
 10
16.0
 20
-8.5
 10
16.0
 20
-8.0
 10
13.0
 20
-8.0
  0
LWPOLYLINE
  5
1B6
330
17
100
AcDbEntity
  8
C-MARK
100
AcDbPolyline
 90
4
 70
1
 10
13.0
 20
-7.5
 10
16.0
 20
-7.5
 10
16.0
 20
-7.0
 10
13.0
 20
-7.0
  0
LWPOLYLINE
  5
1B7
330
17
100
AcDbEntity
  8
C-MARK
100
AcDbPolyline
 90
4
 70
1
 10
13.0
 20
-6.5
 10
16.0
 20
-6.5
 10
16.0
 20
-6.0
 10
13.0
 20
-6.0
  0
LWPOLYLINE
  5
1B8
330
17
100
AcDbEntity
  8
C-MARK
100
AcDbPolyline
 90
4
 70
1
 10
13.0
 20
-5.5
 10
16.0
 20
-5.5
 10
16.0
 20
-5.0
 10
13.0
 20
-5.0
  0
LWPOLYLINE
  5
1B9
330
17
100
AcDbEntity
  8
C-MARK
100
AcDbPolyline
 90
4
 70
1
 10
13.0
 20
-4.5
 10
16.0
 20
-4.5
 10
16.0
 20
-4.0
 10
13.0
 20
-4.0
  0
LWPOLYLINE
  5
1BA
330
17
100
AcDbEntity
  8
C-MARK
100
AcDbPolyline
 90
4
 70
1
 10
13.0
 20
-3.5
 10
16.0
 20
-3.5
 10
16.0
 20
-3.0
 10
13.0
 20
-3.0
  0
LWPOLYLINE
  5
1BB
330
17
100
AcDbEntity
  8
C-MARK
100
AcDbPolyline
 90
4
 70
1
 10
13.0
 20
-2.5
 10
16.0
 20
-2.5
 10
16.0
 20
-2.0
 10
13.0
 20
-2.0
  0
LWPOLYLINE
  5
1BC
330
17
100
AcDbEntity
  8
C-MARK
100
AcDbPolyline
 90
4
 70
1
 10
13.0
 20
-1.5
 10
16.0
 20
-1.5
 10
16.0
 20
-1.0
 10
13.0
 20
-1.0
  0
LWPOLYLINE
  5
1BD
330
17
100
AcDbEntity
  8
C-MARK
100
AcDbPolyline
 90
4
 70
1
 10
13.0
 20
-0.5
 10
16.0
 20
-0.5
 10
16.0
 20
0.0
 10
13.0
 20
0.0
  0
LWPOLYLINE
  5
1BE
330
17
100
AcDbEntity
  8
C-MARK
100
AcDbPolyline
 90
4
 70
1
 10
13.0
 20
0.5
 10
16.0
 20
0.5
 10
16.0
 20
1.0
 10
13.0
 20
1.0
  0
LWPOLYLINE
  5
1BF
330
17
100
AcDbEntity
  8
C-MARK
100
AcDbPolyline
 90
4
 70
1
 10
13.0
 20
1.5
 10
16.0
 20
1.5
 10
16.0
 20
2.0
 10
13.0
 20
2.0
  0
LWPOLYLINE
  5
1C0
330
17
100
AcDbEntity
  8
C-MARK
100
AcDbPolyline
 90
4
 70
1
 10
13.0
 20
2.5
 10
16.0
 20
2.5
 10
16.0
 20
3.0
 10
13.0
 20
3.0
  0
LWPOLYLINE
  5
1C1
330
17
100
AcDbEntity
  8
C-MARK
100
AcDbPolyline
 90
4
 70
1
 10
13.0
 20
3.5
 10
16.0
 20
3.5
 10
16.0
 20
4.0
 10
13.0
 20
4.0
  0
LWPOLYLINE
  5
1C2
330
17
100
AcDbEntity
  8
C-MARK
100
AcDbPolyline
 90
4
 70
1
 10
13.0
 20
4.5
 10
16.0
 20
4.5
 10
16.0
 20
5.0
 10
13.0
 20
5.0
  0
LWPOLYLINE
  5
1C3
330
17
100
AcDbEntity
  8
C-MARK
100
AcDbPolyline
 90
4
 70
1
 10
13.0
 20
5.5
 10
16.0
 20
5.5
 10
16.0
 20
6.0
 10
13.0
 20
6.0
  0
LWPOLYLINE
  5
1C4
330
17
100
AcDbEntity
  8
C-MARK
100
AcDbPolyline
 90
4
 70
1
 10
13.0
 20
6.5
 10
16.0
 20
6.5
 10
16.0
 20
7.0
 10
13.0
 20
7.0
  0
LWPOLYLINE
  5
1C5
330
17
100
AcDbEntity
  8
C-MARK
100
AcDbPolyline
 90
4
 70
1
 10
13.0
 20
7.5
 10
16.0
 20
7.5
 10
16.0
 20
8.0
 10
13.0
 20
8.0
  0
LWPOLYLINE
  5
1C6
330
17
100
AcDbEntity
  8
C-MARK
100
AcDbPolyline
 90
4
 70
1
 10
13.0
 20
8.5
 10
16.0
 20
8.5
 10
16.0
 20
9.0
 10
13.0
 20
9.0
  0
LWPOLYLINE
  5
1C7
330
17
100
AcDbEntity
  8
C-MARK
100
AcDbPolyline
 90
4
 70
1
 10
13.0
 20
9.5
 10
16.0
 20
9.5
 10
16.0
 20
10.0
 10
13.0
 20
10.0
  0
LWPOLYLINE
  5
1C8
330
17
100
AcDbEntity
  8
C-MARK
100
AcDbPolyline
 90
4
 70
1
 10
13.0
 20
10.5
 10
16.0
 20
10.5
 10
16.0
 20
11.0
 10
13.0
 20
11.0
  0
LWPOLYLINE
  5
1C9
330
17
100
AcDbEntity
  8
C-MARK
100
AcDbPolyline
 90
4
 70
1
 10
13.0
 20
11.5
 10
16.0
 20
11.5
 10
16.0
 20
12.0
 10
13.0
 20
12.0
  0
LWPOLYLINE
  5
1CA
330
17
100
AcDbEntity
  8
C-MARK
100
AcDbPolyline
 90
4
 70
1
 10
13.0
 20
12.5
 10
16.0
 20
12.5
 10
16.0
 20
13.0
 10
13.0
 20
13.0
  0
LWPOLYLINE
  5
1CB
330
17
100
AcDbEntity
  8
C-MARK
100
AcDbPolyline
 90
4
 70
1
 10
13.0
 20
13.5
 10
16.0
 20
13.5
 10
16.0
 20
14.0
 10
13.0
 20
14.0
  0
LWPOLYLINE
  5
1CC
330
17
100
AcDbEntity
  8
C-MARK
100
AcDbPolyline
 90
2
 70
0
 10
-11.5
 20
-19.5
 10
11.5
 20
-19.5
  0
LWPOLYLINE
  5
1CD
330
17
100
AcDbEntity
  8
C-MARK
100
AcDbPolyline
 90
2
 70
0
 10
-11.5
 20
-16.5
 10
11.5
 20
-16.5
  0
LWPOLYLINE
  5
1CE
330
17
100
AcDbEntity
  8
C-MARK
100
AcDbPolyline
 90
4
 70
1
 10
-11.0
 20
-19.5
 10
-10.5
 20
-19.5
 10
-10.5
 20
-16.5
 10
-11.0
 20
-16.5
  0
LWPOLYLINE
  5
1CF
330
17
100
AcDbEntity
  8
C-MARK
100
AcDbPolyline
 90
4
 70
1
 10
-10.0
 20
-19.5
 10
-9.5
 20
-19.5
 10
-9.5
 20
-16.5
 10
-10.0
 20
-16.5
  0
LWPOLYLINE
  5
1D0
330
17
100
AcDbEntity
  8
C-MARK
100
AcDbPolyline
 90
4
 70
1
 10
-9.0
 20
-19.5
 10
-8.5
 20
-19.5
 10
-8.5
 20
-16.5
 10
-9.0
 20
-16.5
  0
LWPOLYLINE
  5
1D1
330
17
100
AcDbEntity
  8
C-MARK
100
AcDbPolyline
 90
4
 70
1
 10
-8.0
 20
-19.5
 10
-7.5
 20
-19.5
 10
-7.5
 20
-16.5
 10
-8.0
 20
-16.5
  0
LWPOLYLINE
  5
1D2
330
17
100
AcDbEntity
  8
C-MARK
100
AcDbPolyline
 90
4
 70
1
 10
-7.0
 20
-19.5
 10
-6.5
 20
-19.5
 10
-6.5
 20
-16.5
 10
-7.0
 20
-16.5
  0
LWPOLYLINE
  5
1D3
330
17
100
AcDbEntity
  8
C-MARK
100
AcDbPolyline
 90
4
 70
1
 10
-6.0
 20
-19.5
 10
-5.5
 20
-19.5
 10
-5.5
 20
-16.5
 10
-6.0
 20
-16.5
  0
LWPOLYLINE
  5
1D4
330
17
100
AcDbEntity
  8
C-MARK
100
AcDbPolyline
 90
4
 70
1
 10
-5.0
 20
-19.5
 10
-4.5
 20
-19.5
 10
-4.5
 20
-16.5
 10
-5.0
 20
-16.5
  0
LWPOLYLINE
  5
1D5
330
17
100
AcDbEntity
  8
C-MARK
100
AcDbPolyline
 90
4
 70
1
 10
-4.0
 20
-19.5
 10
-3.5
 20
-19.5
 10
-3.5
 20
-16.5
 10
-4.0
 20
-16.5
  0
LWPOLYLINE
  5
1D6
330
17
100
AcDbEntity
  8
C-MARK
100
AcDbPolyline
 90
4
 70
1
 10
-3.0
 20
-19.5
 10
-2.5
 20
-19.5
 10
-2.5
 20
-16.5
 10
-3.0
 20
-16.5
  0
LWPOLYLINE
  5
1D7
330
17
100
AcDbEntity
  8
C-MARK
100
AcDbPolyline
 90
4
 70
1
 10
-2.0
 20
-19.5
 10
-1.5
 20
-19.5
 10
-1.5
 20
-16.5
 10
-2.0
 20
-16.5
  0
LWPOLYLINE
  5
1D8
330
17
100
AcDbEntity
  8
C-MARK
100
AcDbPolyline
 90
4
 70
1
 10
-1.0
 20
-19.5
 10
-0.5
 20
-19.5
 10
-0.5
 20
-16.5
 10
-1.0
 20
-16.5
  0
LWPOLYLINE
  5
1D9
330
17
100
AcDbEntity
  8
C-MARK
100
AcDbPolyline
 90
4
 70
1
 10
0.0
 20
-19.5
 10
0.5
 20
-19.5
 10
0.5
 20
-16.5
 10
0.0
 20
-16.5
  0
LWPOLYLINE
  5
1DA
330
17
100
AcDbEntity
  8
C-MARK
100
AcDbPolyline
 90
4
 70
1
 10
1.0
 20
-19.5
 10
1.5
 20
-19.5
 10
1.5
 20
-16.5
 10
1.0
 20
-16.5
  0
LWPOLYLINE
  5
1DB
330
17
100
AcDbEntity
  8
C-MARK
100
AcDbPolyline
 90
4
 70
1
 10
2.0
 20
-19.5
 10
2.5
 20
-19.5
 10
2.5
 20
-16.5
 10
2.0
 20
-16.5
  0
LWPOLYLINE
  5
1DC
330
17
100
AcDbEntity
  8
C-MARK
100
AcDbPolyline
 90
4
 70
1
 10
3.0
 20
-19.5
 10
3.5
 20
-19.5
 10
3.5
 20
-16.5
 10
3.0
 20
-16.5
  0
LWPOLYLINE
  5
1DD
330
17
100
AcDbEntity
  8
C-MARK
100
AcDbPolyline
 90
4
 70
1
 10
4.0
 20
-19.5
 10
4.5
 20
-19.5
 10
4.5
 20
-16.5
 10
4.0
 20
-16.5
  0
LWPOLYLINE
  5
1DE
330
17
100
AcDbEntity
  8
C-MARK
100
AcDbPolyline
 90
4
 70
1
 10
5.0
 20
-19.5
 10
5.5
 20
-19.5
 10
5.5
 20
-16.5
 10
5.0
 20
-16.5
  0
LWPOLYLINE
  5
1DF
330
17
100
AcDbEntity
  8
C-MARK
100
AcDbPolyline
 90
4
 70
1
 10
6.0
 20
-19.5
 10
6.5
 20
-19.5
 10
6.5
 20
-16.5
 10
6.0
 20
-16.5
  0
LWPOLYLINE
  5
1E0
330
17
100
AcDbEntity
  8
C-MARK
100
AcDbPolyline
 90
4
 70
1
 10
7.0
 20
-19.5
 10
7.5
 20
-19.5
 10
7.5
 20
-16.5
 10
7.0
 20
-16.5
  0
LWPOLYLINE
  5
1E1
330
17
100
AcDbEntity
  8
C-MARK
100
AcDbPolyline
 90
4
 70
1
 10
8.0
 20
-19.5
 10
8.5
 20
-19.5
 10
8.5
 20
-16.5
 10
8.0
 20
-16.5
  0
LWPOLYLINE
  5
1E2
330
17
100
AcDbEntity
  8
C-MARK
100
AcDbPolyline
 90
4
 70
1
 10
9.0
 20
-19.5
 10
9.5
 20
-19.5
 10
9.5
 20
-16.5
 10
9.0
 20
-16.5
  0
LWPOLYLINE
  5
1E3
330
17
100
AcDbEntity
  8
C-MARK
100
AcDbPolyline
 90
4
 70
1
 10
10.0
 20
-19.5
 10
10.5
 20
-19.5
 10
10.5
 20
-16.5
 10
10.0
 20
-16.5
  0
LWPOLYLINE
  5
1E4
330
17
100
AcDbEntity
  8
C-MARK
100
AcDbPolyline
 90
2
 70
0
 10
-11.5
 20
16.5
 10
11.5
 20
16.5
  0
LWPOLYLINE
  5
1E5
330
17
100
AcDbEntity
  8
C-MARK
100
AcDbPolyline
 90
2
 70
0
 10
-11.5
 20
19.5
 10
11.5
 20
19.5
  0
LWPOLYLINE
  5
1E6
330
17
100
AcDbEntity
  8
C-MARK
100
AcDbPolyline
 90
4
 70
1
 10
-11.0
 20
16.5
 10
-10.5
 20
16.5
 10
-10.5
 20
19.5
 10
-11.0
 20
19.5
  0
LWPOLYLINE
  5
1E7
330
17
100
AcDbEntity
  8
C-MARK
100
AcDbPolyline
 90
4
 70
1
 10
-10.0
 20
16.5
 10
-9.5
 20
16.5
 10
-9.5
 20
19.5
 10
-10.0
 20
19.5
  0
LWPOLYLINE
  5
1E8
330
17
100
AcDbEntity
  8
C-MARK
100
AcDbPolyline
 90
4
 70
1
 10
-9.0
 20
16.5
 10
-8.5
 20
16.5
 10
-8.5
 20
19.5
 10
-9.0
 20
19.5
  0
LWPOLYLINE
  5
1E9
330
17
100
AcDbEntity
  8
C-MARK
100
AcDbPolyline
 90
4
 70
1
 10
-8.0
 20
16.5
 10
-7.5
 20
16.5
 10
-7.5
 20
19.5
 10
-8.0
 20
19.5
  0
LWPOLYLINE
  5
1EA
330
17
100
AcDbEntity
  8
C-MARK
100
AcDbPolyline
 90
4
 70
1
 10
-7.0
 20
16.5
 10
-6.5
 20
16.5
 10
-6.5
 20
19.5
 10
-7.0
 20
19.5
  0
LWPOLYLINE
  5
1EB
330
17
100
AcDbEntity
  8
C-MARK
100
AcDbPolyline
 90
4
 70
1
 10
-6.0
 20
16.5
 10
-5.5
 20
16.5
 10
-5.5
 20
19.5
 10
-6.0
 20
19.5
  0
LWPOLYLINE
  5
1EC
330
17
100
AcDbEntity
  8
C-MARK
100
AcDbPolyline
 90
4
 70
1
 10
-5.0
 20
16.5
 10
-4.5
 20
16.5
 10
-4.5
 20
19.5
 10
-5.0
 20
19.5
  0
LWPOLYLINE
  5
1ED
330
17
100
AcDbEntity
  8
C-MARK
100
AcDbPolyline
 90
4
 70
1
 10
-4.0
 20
16.5
 10
-3.5
 20
16.5
 10
-3.5
 20
19.5
 10
-4.0
 20
19.5
  0
LWPOLYLINE
  5
1EE
330
17
100
AcDbEntity
  8
C-MARK
100
AcDbPolyline
 90
4
 70
1
 10
-3.0
 20
16.5
 10
-2.5
 20
16.5
 10
-2.5
 20
19.5
 10
-3.0
 20
19.5
  0
LWPOLYLINE
  5
1EF
330
17
100
AcDbEntity
  8
C-MARK
100
AcDbPolyline
 90
4
 70
1
 10
-2.0
 20
16.5
 10
-1.5
 20
16.5
 10
-1.5
 20
19.5
 10
-2.0
 20
19.5
  0
LWPOLYLINE
  5
1F0
330
17
100
AcDbEntity
  8
C-MARK
100
AcDbPolyline
 90
4
 70
1
 10
-1.0
 20
16.5
 10
-0.5
 20
16.5
 10
-0.5
 20
19.5
 10
-1.0
 20
19.5
  0
LWPOLYLINE
  5
1F1
330
17
100
AcDbEntity
  8
C-MARK
100
AcDbPolyline
 90
4
 70
1
 10
0.0
 20
16.5
 10
0.5
 20
16.5
 10
0.5
 20
19.5
 10
0.0
 20
19.5
  0
LWPOLYLINE
  5
1F2
330
17
100
AcDbEntity
  8
C-MARK
100
AcDbPolyline
 90
4
 70
1
 10
1.0
 20
16.5
 10
1.5
 20
16.5
 10
1.5
 20
19.5
 10
1.0
 20
19.5
  0
LWPOLYLINE
  5
1F3
330
17
100
AcDbEntity
  8
C-MARK
100
AcDbPolyline
 90
4
 70
1
 10
2.0
 20
16.5
 10
2.5
 20
16.5
 10
2.5
 20
19.5
 10
2.0
 20
19.5
  0
LWPOLYLINE
  5
1F4
330
17
100
AcDbEntity
  8
C-MARK
100
AcDbPolyline
 90
4
 70
1
 10
3.0
 20
16.5
 10
3.5
 20
16.5
 10
3.5
 20
19.5
 10
3.0
 20
19.5
  0
LWPOLYLINE
  5
1F5
330
17
100
AcDbEntity
  8
C-MARK
100
AcDbPolyline
 90
4
 70
1
 10
4.0
 20
16.5
 10
4.5
 20
16.5
 10
4.5
 20
19.5
 10
4.0
 20
19.5
  0
LWPOLYLINE
  5
1F6
330
17
100
AcDbEntity
  8
C-MARK
100
AcDbPolyline
 90
4
 70
1
 10
5.0
 20
16.5
 10
5.5
 20
16.5
 10
5.5
 20
19.5
 10
5.0
 20
19.5
  0
LWPOLYLINE
  5
1F7
330
17
100
AcDbEntity
  8
C-MARK
100
AcDbPolyline
 90
4
 70
1
 10
6.0
 20
16.5
 10
6.5
 20
16.5
 10
6.5
 20
19.5
 10
6.0
 20
19.5
  0
LWPOLYLINE
  5
1F8
330
17
100
AcDbEntity
  8
C-MARK
100
AcDbPolyline
 90
4
 70
1
 10
7.0
 20
16.5
 10
7.5
 20
16.5
 10
7.5
 20
19.5
 10
7.0
 20
19.5
  0
LWPOLYLINE
  5
1F9
330
17
100
AcDbEntity
  8
C-MARK
100
AcDbPolyline
 90
4
 70
1
 10
8.0
 20
16.5
 10
8.5
 20
16.5
 10
8.5
 20
19.5
 10
8.0
 20
19.5
  0
LWPOLYLINE
  5
1FA
330
17
100
AcDbEntity
  8
C-MARK
100
AcDbPolyline
 90
4
 70
1
 10
9.0
 20
16.5
 10
9.5
 20
16.5
 10
9.5
 20
19.5
 10
9.0
 20
19.5
  0
LWPOLYLINE
  5
1FB
330
17
100
AcDbEntity
  8
C-MARK
100
AcDbPolyline
 90
4
 70
1
 10
10.0
 20
16.5
 10
10.5
 20
16.5
 10
10.5
 20
19.5
 10
10.0
 20
19.5
  0
INSERT
  5
1FC
330
17
100
AcDbEntity
  8
C-MARK
100
AcDbBlockReference
  2
ARROW-L
 10
-26.0
 20
-2.75
 30
0.0
 50
270.0
  0
INSERT
  5
1FE
330
17
100
AcDbEntity
  8
C-MARK
100
AcDbBlockReference
  2
ARROW-T
 10
-26.0
 20
-6.25
 30
0.0
 50
270.0
  0
INSERT
  5
200
330
17
100
AcDbEntity
  8
C-MARK
100
AcDbBlockReference
  2
ARROW-T
 10
-26.0
 20
-9.75
 30
0.0
 50
270.0
  0
INSERT
  5
202
330
17
100
AcDbEntity
  8
C-MARK
100
AcDbBlockReference
  2
ARROW-TR
 10
-26.0
 20
-13.25
 30
0.0
 50
270.0
  0
INSERT
  5
204
330
17
100
AcDbEntity
  8
C-MARK
100
AcDbBlockReference
  2
ARROW-L
 10
26.0
 20
2.75
 30
0.0
 50
90.0
  0
INSERT
  5
206
330
17
100
AcDbEntity
  8
C-MARK
100
AcDbBlockReference
  2
ARROW-T
 10
26.0
 20
6.25
 30
0.0
 50
90.0
  0
INSERT
  5
208
330
17
100
AcDbEntity
  8
C-MARK
100
AcDbBlockReference
  2
ARROW-TR
 10
26.0
 20
9.75
 30
0.0
 50
90.0
  0
INSERT
  5
20A
330
17
100
AcDbEntity
  8
C-MARK
100
AcDbBlockReference
  2
ARROW-L
 10
2.75
 20
-29.5
 30
0.0
  0
INSERT
  5
20C
330
17
100
AcDbEntity
  8
C-MARK
100
AcDbBlockReference
  2
ARROW-T
 10
6.25
 20
-29.5
 30
0.0
  0
INSERT
  5
20E
330
17
100
AcDbEntity
  8
C-MARK
100
AcDbBlockReference
  2
ARROW-TR
 10
9.75
 20
-29.5
 30
0.0
  0
INSERT
  5
210
330
17
100
AcDbEntity
  8
C-MARK
100
AcDbBlockReference
  2
ARROW-L
 10
-2.75
 20
29.5
 30
0.0
 50
180.0
  0
INSERT
  5
212
330
17
100
AcDbEntity
  8
C-MARK
100
AcDbBlockReference
  2
ARROW-T
 10
-6.25
 20
29.5
 30
0.0
 50
180.0
  0
INSERT
  5
214
330
17
100
AcDbEntity
  8
C-MARK
100
AcDbBlockReference
  2
ARROW-TR
 10
-9.75
 20
29.5
 30
0.0
 50
180.0
  0
INSERT
  5
216
330
17
100
AcDbEntity
  8
C-MARK
100
AcDbBlockReference
  2
ARROW-L
 10
-42.0
 20
-2.75
 30
0.0
 50
270.0
  0
INSERT
  5
218
330
17
100
AcDbEntity
  8
C-MARK
100
AcDbBlockReference
  2
ARROW-T
 10
-42.0
 20
-6.25
 30
0.0
 50
270.0
  0
INSERT
  5
21A
330
17
100
AcDbEntity
  8
C-MARK
100
AcDbBlockReference
  2
ARROW-T
 10
-42.0
 20
-9.75
 30
0.0
 50
270.0
  0
INSERT
  5
21C
330
17
100
AcDbEntity
  8
C-MARK
100
AcDbBlockReference
  2
ARROW-TR
 10
-42.0
 20
-13.25
 30
0.0
 50
270.0
  0
INSERT
  5
21E
330
17
100
AcDbEntity
  8
C-MARK
100
AcDbBlockReference
  2
ARROW-L
 10
42.0
 20
2.75
 30
0.0
 50
90.0
  0
INSERT
  5
220
330
17
100
AcDbEntity
  8
C-MARK
100
AcDbBlockReference
  2
ARROW-T
 10
42.0
 20
6.25
 30
0.0
 50
90.0
  0
INSERT
  5
222
330
17
100
AcDbEntity
  8
C-MARK
100
AcDbBlockReference
  2
ARROW-TR
 10
42.0
 20
9.75
 30
0.0
 50
90.0
  0
INSERT
  5
224
330
17
100
AcDbEntity
  8
C-MARK
100
AcDbBlockReference
  2
ARROW-L
 10
2.75
 20
-45.5
 30
0.0
  0
INSERT
  5
226
330
17
100
AcDbEntity
  8
C-MARK
100
AcDbBlockReference
  2
ARROW-T
 10
6.25
 20
-45.5
 30
0.0
  0
INSERT
  5
228
330
17
100
AcDbEntity
  8
C-MARK
100
AcDbBlockReference
  2
ARROW-TR
 10
9.75
 20
-45.5
 30
0.0
  0
INSERT
  5
22A
330
17
100
AcDbEntity
  8
C-MARK
100
AcDbBlockReference
  2
ARROW-L
 10
-2.75
 20
45.5
 30
0.0
 50
180.0
  0
INSERT
  5
22C
330
17
100
AcDbEntity
  8
C-MARK
100
AcDbBlockReference
  2
ARROW-T
 10
-6.25
 20
45.5
 30
0.0
 50
180.0
  0
INSERT
  5
22E
330
17
100
AcDbEntity
  8
C-MARK
100
AcDbBlockReference
  2
ARROW-TR
 10
-9.75
 20
45.5
 30
0.0
 50
180.0
  0
LWPOLYLINE
  5
230
330
17
100
AcDbEntity
  8
C-ISLD
100
AcDbPolyline
 90
6
 70
0
 10
-70.0
 20
1.0
 10
-32.0
 20
1.0
 10
-20.0
 20
0.3
 10
-20.0
 20
-0.3
 10
-32.0
 20
-1.0
 10
-70.0
 20
-1.0
  0
LWPOLYLINE
  5
231
330
17
100
AcDbEntity
  8
C-ISLD
100
AcDbPolyline
 90
6
 70
0
 10
70.0
 20
1.0
 10
32.0
 20
1.0
 10
20.0
 20
0.3
 10
20.0
 20
-0.3
 10
32.0
 20
-1.0
 10
70.0
 20
-1.0
  0
LWPOLYLINE
  5
232
330
17
100
AcDbEntity
  8
C-ISLD
100
AcDbPolyline
 90
6
 70
0
 10
1.0
 20
-70.0
 10
1.0
 20
-35.5
 10
0.3
 20
-23.5
 10
-0.3
 20
-23.5
 10
-1.0
 20
-35.5
 10
-1.0
 20
-70.0
  0
LWPOLYLINE
  5
233
330
17
100
AcDbEntity
  8
C-ISLD
100
AcDbPolyline
 90
6
 70
0
 10
1.0
 20
70.0
 10
1.0
 20
35.5
 10
0.3
 20
23.5
 10
-0.3
 20
23.5
 10
-1.0
 20
35.5
 10
-1.0
 20
70.0
  0
INSERT
  5
234
330
17
100
AcDbEntity
  8
C-SGNL
100
AcDbBlockReference
  2
SIG-MASTARM
 10
-16.5
 20
22.0
 30
0.0
  0
INSERT
  5
236
330
17
100
AcDbEntity
  8
C-SGNL
100
AcDbBlockReference
  2
SIG-MASTARM
 10
16.5
 20
22.0
 30
0.0
 50
270.0
  0
INSERT
  5
238
330
17
100
AcDbEntity
  8
C-SGNL
100
AcDbBlockReference
  2
SIG-MASTARM
 10
16.5
 20
-22.0
 30
0.0
 50
180.0
  0
INSERT
  5
23A
330
17
100
AcDbEntity
  8
C-SGNL
100
AcDbBlockReference
  2
SIG-MASTARM
 10
-16.5
 20
-22.0
 30
0.0
 50
90.0
  0
INSERT
  5
23C
330
17
100
AcDbEntity
  8
C-SGNL
100
AcDbBlockReference
  2
SIG-3SEC
 10
2.75
 20
21.5
 30
0.0
 50
180.0
  0
INSERT
  5
23E
330
17
100
AcDbEntity
  8
C-SGNL
100
AcDbBlockReference
  2
SIG-3SEC
 10
6.25
 20
21.5
 30
0.0
 50
180.0
  0
INSERT
  5
240
330
17
100
AcDbEntity
  8
C-SGNL
100
AcDbBlockReference
  2
SIG-3SEC
 10
9.75
 20
21.5
 30
0.0
 50
180.0
  0
INSERT
  5
242
330
17
100
AcDbEntity
  8
C-SGNL
100
AcDbBlockReference
  2
SIG-3SEC
 10
-2.75
 20
-21.5
 30
0.0
  0
INSERT
  5
244
330
17
100
AcDbEntity
  8
C-SGNL
100
AcDbBlockReference
  2
SIG-3SEC
 10
-6.25
 20
-21.5
 30
0.0
  0
INSERT
  5
246
330
17
100
AcDbEntity
  8
C-SGNL
100
AcDbBlockReference
  2
SIG-3SEC
 10
-9.75
 20
-21.5
 30
0.0
  0
INSERT
  5
248
330
17
100
AcDbEntity
  8
C-SGNL
100
AcDbBlockReference
  2
SIG-3SEC
 10
21.5
 20
-2.75
 30
0.0
 50
90.0
  0
INSERT
  5
24A
330
17
100
AcDbEntity
  8
C-SGNL
100
AcDbBlockReference
  2
SIG-3SEC
 10
21.5
 20
-6.25
 30
0.0
 50
90.0
  0
INSERT
  5
24C
330
17
100
AcDbEntity
  8
C-SGNL
100
AcDbBlockReference
  2
SIG-3SEC
 10
21.5
 20
-9.75
 30
0.0
 50
90.0
  0
INSERT
  5
24E
330
17
100
AcDbEntity
  8
C-SGNL
100
AcDbBlockReference
  2
SIG-3SEC
 10
21.5
 20
-13.25
 30
0.0
 50
90.0
  0
INSERT
  5
250
330
17
100
AcDbEntity
  8
C-SGNL
100
AcDbBlockReference
  2
SIG-3SEC
 10
-21.5
 20
2.75
 30
0.0
 50
270.0
  0
INSERT
  5
252
330
17
100
AcDbEntity
  8
C-SGNL
100
AcDbBlockReference
  2
SIG-3SEC
 10
-21.5
 20
6.25
 30
0.0
 50
270.0
  0
INSERT
  5
254
330
17
100
AcDbEntity
  8
C-SGNL
100
AcDbBlockReference
  2
SIG-3SEC
 10
-21.5
 20
9.75
 30
0.0
 50
270.0
  0
INSERT
  5
256
330
17
100
AcDbEntity
  8
C-SGNL
100
AcDbBlockReference
  2
SIG-PED
 10
-13.5
 20
22.5
 30
0.0
  0
INSERT
  5
258
330
17
100
AcDbEntity
  8
C-SGNL
100
AcDbBlockReference
  2
SIG-PED
 10
-19.0
 20
17.0
 30
0.0
 50
270.0
  0
INSERT
  5
25A
330
17
100
AcDbEntity
  8
C-SGNL
100
AcDbBlockReference
  2
SIG-PB
 10
-13.5
 20
19.5
 30
0.0
  0
INSERT
  5
25C
330
17
100
AcDbEntity
  8
C-SGNL
100
AcDbBlockReference
  2
SIG-PB
 10
-16.0
 20
17.0
 30
0.0
  0
INSERT
  5
25E
330
17
100
AcDbEntity
  8
C-PED
100
AcDbBlockReference
  2
CURB-RAMP-TWSI
 10
-15.325
 20
14.29
 30
0.0
  0
INSERT
  5
260
330
17
100
AcDbEntity
  8
C-PED
100
AcDbBlockReference
  2
CURB-RAMP-TWSI
 10
-10.79
 20
18.825
 30
0.0
 50
270.0
  0
INSERT
  5
262
330
17
100
AcDbEntity
  8
C-SGNL-UG
100
AcDbBlockReference
  2
SIG-JB
 10
-18.0
 20
20.5
 30
0.0
  0
INSERT
  5
264
330
17
100
AcDbEntity
  8
C-SGNL
100
AcDbBlockReference
  2
SIG-PED
 10
13.5
 20
22.5
 30
0.0
  0
INSERT
  5
266
330
17
100
AcDbEntity
  8
C-SGNL
100
AcDbBlockReference
  2
SIG-PED
 10
19.0
 20
17.0
 30
0.0
 50
90.0
  0
INSERT
  5
268
330
17
100
AcDbEntity
  8
C-SGNL
100
AcDbBlockReference
  2
SIG-PB
 10
13.5
 20
19.5
 30
0.0
  0
INSERT
  5
26A
330
17
100
AcDbEntity
  8
C-SGNL
100
AcDbBlockReference
  2
SIG-PB
 10
16.0
 20
17.0
 30
0.0
  0
INSERT
  5
26C
330
17
100
AcDbEntity
  8
C-PED
100
AcDbBlockReference
  2
CURB-RAMP-TWSI
 10
13.675
 20
14.29
 30
0.0
  0
INSERT
  5
26E
330
17
100
AcDbEntity
  8
C-PED
100
AcDbBlockReference
  2
CURB-RAMP-TWSI
 10
10.79
 20
18.825
 30
0.0
 50
270.0
  0
INSERT
  5
270
330
17
100
AcDbEntity
  8
C-SGNL-UG
100
AcDbBlockReference
  2
SIG-JB
 10
18.0
 20
20.5
 30
0.0
  0
INSERT
  5
272
330
17
100
AcDbEntity
  8
C-SGNL
100
AcDbBlockReference
  2
SIG-PED
 10
13.5
 20
-22.5
 30
0.0
 50
180.0
  0
INSERT
  5
274
330
17
100
AcDbEntity
  8
C-SGNL
100
AcDbBlockReference
  2
SIG-PED
 10
19.0
 20
-17.0
 30
0.0
 50
90.0
  0
INSERT
  5
276
330
17
100
AcDbEntity
  8
C-SGNL
100
AcDbBlockReference
  2
SIG-PB
 10
13.5
 20
-19.5
 30
0.0
  0
INSERT
  5
278
330
17
100
AcDbEntity
  8
C-SGNL
100
AcDbBlockReference
  2
SIG-PB
 10
16.0
 20
-17.0
 30
0.0
  0
INSERT
  5
27A
330
17
100
AcDbEntity
  8
C-PED
100
AcDbBlockReference
  2
CURB-RAMP-TWSI
 10
13.675
 20
-14.29
 30
0.0
  0
INSERT
  5
27C
330
17
100
AcDbEntity
  8
C-PED
100
AcDbBlockReference
  2
CURB-RAMP-TWSI
 10
10.79
 20
-17.175
 30
0.0
 50
270.0
  0
INSERT
  5
27E
330
17
100
AcDbEntity
  8
C-SGNL-UG
100
AcDbBlockReference
  2
SIG-JB
 10
18.0
 20
-20.5
 30
0.0
  0
INSERT
  5
280
330
17
100
AcDbEntity
  8
C-SGNL
100
AcDbBlockReference
  2
SIG-PED
 10
-13.5
 20
-22.5
 30
0.0
 50
180.0
  0
INSERT
  5
282
330
17
100
AcDbEntity
  8
C-SGNL
100
AcDbBlockReference
  2
SIG-PED
 10
-19.0
 20
-17.0
 30
0.0
 50
270.0
  0
INSERT
  5
284
330
17
100
AcDbEntity
  8
C-SGNL
100
AcDbBlockReference
  2
SIG-PB
 10
-13.5
 20
-19.5
 30
0.0
  0
INSERT
  5
286
330
17
100
AcDbEntity
  8
C-SGNL
100
AcDbBlockReference
  2
SIG-PB
 10
-16.0
 20
-17.0
 30
0.0
  0
INSERT
  5
288
330
17
100
AcDbEntity
  8
C-PED
100
AcDbBlockReference
  2
CURB-RAMP-TWSI
 10
-15.325
 20
-14.29
 30
0.0
  0
INSERT
  5
28A
330
17
100
AcDbEntity
  8
C-PED
100
AcDbBlockReference
  2
CURB-RAMP-TWSI
 10
-10.79
 20
-17.175
 30
0.0
 50
270.0
  0
INSERT
  5
28C
330
17
100
AcDbEntity
  8
C-SGNL-UG
100
AcDbBlockReference
  2
SIG-JB
 10
-18.0
 20
-20.5
 30
0.0
  0
LWPOLYLINE
  5
28E
330
17
100
AcDbEntity
  8
C-SGNL-UG
100
AcDbPolyline
 90
5
 70
0
 10
-18.0
 20
20.5
 10
18.0
 20
20.5
 10
18.0
 20
-20.5
 10
-18.0
 20
-20.5
 10
-18.0
 20
20.5
  0
INSERT
  5
28F
330
17
100
AcDbEntity
  8
C-SGNL
100
AcDbBlockReference
  2
SIG-CABINET
 10
-21.0
 20
24.5
 30
0.0
  0
LWPOLYLINE
  5
291
330
17
100
AcDbEntity
  8
C-SGNL-UG
100
AcDbPolyline
 90
2
 70
0
 10
-21.0
 20
24.5
 10
-18.0
 20
20.5
  0
INSERT
  5
292
330
17
100
AcDbEntity
  8
C-SGNL-DET
100
AcDbBlockReference
  2
DET-LOOP
 10
-21.0
 20
-2.75
 30
0.0
  0
INSERT
  5
294
330
17
100
AcDbEntity
  8
C-SGNL-DET
100
AcDbBlockReference
  2
DET-LOOP
 10
-21.0
 20
-6.25
 30
0.0
  0
INSERT
  5
296
330
17
100
AcDbEntity
  8
C-SGNL-DET
100
AcDbBlockReference
  2
DET-LOOP
 10
-21.0
 20
-9.75
 30
0.0
  0
INSERT
  5
298
330
17
100
AcDbEntity
  8
C-SGNL-DET
100
AcDbBlockReference
  2
DET-LOOP
 10
-21.0
 20
-13.25
 30
0.0
  0
INSERT
  5
29A
330
17
100
AcDbEntity
  8
C-SGNL-DET
100
AcDbBlockReference
  2
DET-LOOP
 10
21.0
 20
2.75
 30
0.0
  0
INSERT
  5
29C
330
17
100
AcDbEntity
  8
C-SGNL-DET
100
AcDbBlockReference
  2
DET-LOOP
 10
21.0
 20
6.25
 30
0.0
  0
INSERT
  5
29E
330
17
100
AcDbEntity
  8
C-SGNL-DET
100
AcDbBlockReference
  2
DET-LOOP
 10
21.0
 20
9.75
 30
0.0
  0
INSERT
  5
2A0
330
17
100
AcDbEntity
  8
C-SGNL-DET
100
AcDbBlockReference
  2
DET-LOOP
 10
2.75
 20
-24.5
 30
0.0
  0
INSERT
  5
2A2
330
17
100
AcDbEntity
  8
C-SGNL-DET
100
AcDbBlockReference
  2
DET-LOOP
 10
6.25
 20
-24.5
 30
0.0
  0
INSERT
  5
2A4
330
17
100
AcDbEntity
  8
C-SGNL-DET
100
AcDbBlockReference
  2
DET-LOOP
 10
9.75
 20
-24.5
 30
0.0
  0
INSERT
  5
2A6
330
17
100
AcDbEntity
  8
C-SGNL-DET
100
AcDbBlockReference
  2
DET-LOOP
 10
-2.75
 20
24.5
 30
0.0
  0
INSERT
  5
2A8
330
17
100
AcDbEntity
  8
C-SGNL-DET
100
AcDbBlockReference
  2
DET-LOOP
 10
-6.25
 20
24.5
 30
0.0
  0
INSERT
  5
2AA
330
17
100
AcDbEntity
  8
C-SGNL-DET
100
AcDbBlockReference
  2
DET-LOOP
 10
-9.75
 20
24.5
 30
0.0
  0
INSERT
  5
2AC
330
17
100
AcDbEntity
  8
C-SIGN
100
AcDbBlockReference
 66
1
  2
SIGN-POST
 10
-22.0
 20
24.5
 30
0.0
  0
ATTRIB
  5
2AE
330
17
100
AcDbEntity
  8
0
100
AcDbText
 10
-22.0
 20
25.8
 30
0.0
 40
0.9
  1
Rb-11
  7
ANNO
 72
1
 11
-22.0
 21
25.8
 31
0.0
100
AcDbAttribute
  2
CODE
 70
0
 74
2
  0
SEQEND
  5
2AD
330
2AC
100
AcDbEntity
  8
C-SIGN
  0
INSERT
  5
2AF
330
17
100
AcDbEntity
  8
C-SIGN
100
AcDbBlockReference
 66
1
  2
SIGN-POST
 10
22.0
 20
24.5
 30
0.0
  0
ATTRIB
  5
2B1
330
17
100
AcDbEntity
  8
0
100
AcDbText
 10
22.0
 20
25.8
 30
0.0
 40
0.9
  1
Rb-11
  7
ANNO
 72
1
 11
22.0
 21
25.8
 31
0.0
100
AcDbAttribute
  2
CODE
 70
0
 74
2
  0
SEQEND
  5
2B0
330
2AF
100
AcDbEntity
  8
C-SIGN
  0
INSERT
  5
2B2
330
17
100
AcDbEntity
  8
C-SIGN
100
AcDbBlockReference
 66
1
  2
SIGN-POST
 10
22.0
 20
-24.5
 30
0.0
  0
ATTRIB
  5
2B4
330
17
100
AcDbEntity
  8
0
100
AcDbText
 10
22.0
 20
-23.2
 30
0.0
 40
0.9
  1
Rb-11
  7
ANNO
 72
1
 11
22.0
 21
-23.2
 31
0.0
100
AcDbAttribute
  2
CODE
 70
0
 74
2
  0
SEQEND
  5
2B3
330
2B2
100
AcDbEntity
  8
C-SIGN
  0
INSERT
  5
2B5
330
17
100
AcDbEntity
  8
C-SIGN
100
AcDbBlockReference
 66
1
  2
SIGN-POST
 10
-22.0
 20
-24.5
 30
0.0
  0
ATTRIB
  5
2B7
330
17
100
AcDbEntity
  8
0
100
AcDbText
 10
-22.0
 20
-23.2
 30
0.0
 40
0.9
  1
Rb-11
  7
ANNO
 72
1
 11
-22.0
 21
-23.2
 31
0.0
100
AcDbAttribute
  2
CODE
 70
0
 74
2
  0
SEQEND
  5
2B6
330
2B5
100
AcDbEntity
  8
C-SIGN
  0
INSERT
  5
2B8
330
17
100
AcDbEntity
  8
C-TRAN
100
AcDbBlockReference
  2
TRAN-STOP
 10
30.0
 20
16.5
 30
0.0
  0
LWPOLYLINE
  5
2BA
330
17
100
AcDbEntity
  8
C-TRAN
100
AcDbPolyline
 90
4
 70
1
 10
24.0
 20
15.0
 10
40.0
 20
15.0
 10
40.0
 20
17.0
 10
24.0
 20
17.0
  0
DIMENSION
  5
2BB
330
17
100
AcDbEntity
  8
C-DIMS
100
AcDbDimension
280
0
  2
*D1
  3
1-500
 10
-60.0
 20
-30.0
 30
0.0
 11
-60.0
 21
-28.675
 31
0.0
 70
32
 71
5
  1
15.00
100
AcDbAlignedDimension
 13
-60.0
 23
-15.0
 33
0.0
 14
-60.0
 24
0.0
 34
0.0
 50
0.0
100
AcDbRotatedDimension
  0
DIMENSION
  5
2CA
330
17
100
AcDbEntity
  8
C-DIMS
100
AcDbDimension
280
0
  2
*D2
  3
1-500
 10
-11.5
 20
-37.0
 30
0.0
 11
0.0
 21
-36.025
 31
0.0
 70
32
 71
5
  1
23.00
100
AcDbAlignedDimension
 13
-11.5
 23
-30.0
 33
0.0
 14
11.5
 24
-30.0
 34
0.0
 50
0.0
100
AcDbRotatedDimension
  0
TEXT
  5
2D9
330
17
100
AcDbEntity
  8
C-DIMS
100
AcDbText
 10
-29.5
 20
33.0
 30
0.0
 40
1.25
  1
R15.0
  7
ANNO
 11
-29.5
 21
33.0
 31
0.0
100
AcDbText
 73
2
  0
TEXT
  5
2DA
330
17
100
AcDbEntity
  8
C-DIMS
100
AcDbText
 10
26.5
 20
30.0
 30
0.0
 40
1.25
  1
R12.0
  7
ANNO
 11
26.5
 21
30.0
 31
0.0
100
AcDbText
 73
2
  0
TEXT
  5
2DB
330
17
100
AcDbEntity
  8
C-DIMS
100
AcDbText
 10
26.5
 20
-30.0
 30
0.0
 40
1.25
  1
R12.0
  7
ANNO
 11
26.5
 21
-30.0
 31
0.0
100
AcDbText
 73
2
  0
TEXT
  5
2DC
330
17
100
AcDbEntity
  8
C-DIMS
100
AcDbText
 10
-29.5
 20
-33.0
 30
0.0
 40
1.25
  1
R15.0
  7
ANNO
 11
-29.5
 21
-33.0
 31
0.0
100
AcDbText
 73
2
  0
DIMENSION
  5
2DD
330
17
100
AcDbEntity
  8
C-DIMS
100
AcDbDimension
280
0
  2
*D3
  3
1-500
 10
0.0
 20
16.5
 30
0.0
 11
-1.325
 21
18.0
 31
0.0
 70
32
 71
5
  1
3.00
100
AcDbAlignedDimension
 13
-11.5
 23
16.5
 33
0.0
 14
-11.5
 24
19.5
 34
0.0
 50
90.0
100
AcDbRotatedDimension
  0
TEXT
  5
2EC
330
17
100
AcDbEntity
  8
C-ANNO
100
AcDbText
 10
-66.0
 20
2.5
 30
0.0
 40
2.5
  1
STEELES AVE
  7
ANNO
 11
-66.0
 21
2.5
 31
0.0
100
AcDbText
 73
2
  0
TEXT
  5
2ED
330
17
100
AcDbEntity
  8
C-ANNO
100
AcDbText
 10
2.5
 20
62.0
 30
0.0
 40
2.5
  1
YONGE ST
 50
90.0
  7
ANNO
 11
2.5
 21
62.0
 31
0.0
100
AcDbText
 73
2
  0
TEXT
  5
2EE
330
17
100
AcDbEntity
  8
C-ANNO
100
AcDbText
 10
-42.0
 20
-38.0
 30
0.0
 40
1.25
  1
3.5 m LANES TYP.   LADDER CROSSWALKS PER OTM BOOK 11
  7
ANNO
 11
-42.0
 21
-38.0
 31
0.0
100
AcDbText
 73
2
  0
TEXT
  5
2EF
330
17
100
AcDbEntity
  8
C-ANNO
100
AcDbText
 10
-42.0
 20
-41.0
 30
0.0
 40
1.25
  1
TWSI 0.61 x 1.65 m AT EACH RAMP PER AODA DOPS
  7
ANNO
 11
-42.0
 21
-41.0
 31
0.0
100
AcDbText
 73
2
  0
INSERT
  5
2F0
330
17
100
AcDbEntity
  8
C-LEGEND
100
AcDbBlockReference
  2
NORTH-ARROW
 10
-50.0
 20
30.0
 30
0.0
  0
INSERT
  5
2F2
330
17
100
AcDbEntity
  8
C-LEGEND
100
AcDbBlockReference
  2
SCALE-BAR-500
 10
-55.0
 20
-50.0
 30
0.0
  0
TEXT
  5
2F4
330
17
100
AcDbEntity
  8
PALETTE
100
AcDbText
 10
160.0
 20
8.0
 30
0.0
 40
2.5
  1
SYMBOL PALETTE
  7
ANNO
 11
160.0
 21
8.0
 31
0.0
100
AcDbText
 73
1
  0
INSERT
  5
2F5
330
17
100
AcDbEntity
  8
PALETTE
100
AcDbBlockReference
  2
SIG-3SEC
 10
160.0
 20
0.0
 30
0.0
  0
TEXT
  5
2F7
330
17
100
AcDbEntity
  8
PALETTE
100
AcDbText
 10
174.0
 20
0.0
 30
0.0
 40
1.25
  1
SIG-3SEC
  7
ANNO
 11
174.0
 21
0.0
 31
0.0
100
AcDbText
 73
2
  0
INSERT
  5
2F8
330
17
100
AcDbEntity
  8
PALETTE
100
AcDbBlockReference
  2
SIG-PED
 10
160.0
 20
-8.0
 30
0.0
  0
TEXT
  5
2FA
330
17
100
AcDbEntity
  8
PALETTE
100
AcDbText
 10
174.0
 20
-8.0
 30
0.0
 40
1.25
  1
SIG-PED
  7
ANNO
 11
174.0
 21
-8.0
 31
0.0
100
AcDbText
 73
2
  0
INSERT
  5
2FB
330
17
100
AcDbEntity
  8
PALETTE
100
AcDbBlockReference
  2
SIG-PB
 10
160.0
 20
-16.0
 30
0.0
  0
TEXT
  5
2FD
330
17
100
AcDbEntity
  8
PALETTE
100
AcDbText
 10
174.0
 20
-16.0
 30
0.0
 40
1.25
  1
SIG-PB
  7
ANNO
 11
174.0
 21
-16.0
 31
0.0
100
AcDbText
 73
2
  0
INSERT
  5
2FE
330
17
100
AcDbEntity
  8
PALETTE
100
AcDbBlockReference
  2
SIG-POLE
 10
160.0
 20
-24.0
 30
0.0
  0
TEXT
  5
300
330
17
100
AcDbEntity
  8
PALETTE
100
AcDbText
 10
174.0
 20
-24.0
 30
0.0
 40
1.25
  1
SIG-POLE
  7
ANNO
 11
174.0
 21
-24.0
 31
0.0
100
AcDbText
 73
2
  0
INSERT
  5
301
330
17
100
AcDbEntity
  8
PALETTE
100
AcDbBlockReference
  2
SIG-MASTARM
 10
160.0
 20
-32.0
 30
0.0
  0
TEXT
  5
303
330
17
100
AcDbEntity
  8
PALETTE
100
AcDbText
 10
174.0
 20
-32.0
 30
0.0
 40
1.25
  1
SIG-MASTARM
  7
ANNO
 11
174.0
 21
-32.0
 31
0.0
100
AcDbText
 73
2
  0
INSERT
  5
304
330
17
100
AcDbEntity
  8
PALETTE
100
AcDbBlockReference
  2
SIG-CABINET
 10
160.0
 20
-40.0
 30
0.0
  0
TEXT
  5
306
330
17
100
AcDbEntity
  8
PALETTE
100
AcDbText
 10
174.0
 20
-40.0
 30
0.0
 40
1.25
  1
SIG-CABINET
  7
ANNO
 11
174.0
 21
-40.0
 31
0.0
100
AcDbText
 73
2
  0
INSERT
  5
307
330
17
100
AcDbEntity
  8
PALETTE
100
AcDbBlockReference
  2
SIG-JB
 10
160.0
 20
-48.0
 30
0.0
  0
TEXT
  5
309
330
17
100
AcDbEntity
  8
PALETTE
100
AcDbText
 10
174.0
 20
-48.0
 30
0.0
 40
1.25
  1
SIG-JB
  7
ANNO
 11
174.0
 21
-48.0
 31
0.0
100
AcDbText
 73
2
  0
INSERT
  5
30A
330
17
100
AcDbEntity
  8
PALETTE
100
AcDbBlockReference
 66
1
  2
SIGN-POST
 10
160.0
 20
-56.0
 30
0.0
  0
ATTRIB
  5
30C
330
17
100
AcDbEntity
  8
0
100
AcDbText
 10
160.0
 20
-54.7
 30
0.0
 40
0.9
  1
Ra-1
  7
ANNO
 72
1
 11
160.0
 21
-54.7
 31
0.0
100
AcDbAttribute
  2
CODE
 70
0
 74
2
  0
SEQEND
  5
30B
330
30A
100
AcDbEntity
  8
PALETTE
  0
TEXT
  5
30D
330
17
100
AcDbEntity
  8
PALETTE
100
AcDbText
 10
174.0
 20
-56.0
 30
0.0
 40
1.25
  1
SIGN-POST
  7
ANNO
 11
174.0
 21
-56.0
 31
0.0
100
AcDbText
 73
2
  0
INSERT
  5
30E
330
17
100
AcDbEntity
  8
PALETTE
100
AcDbBlockReference
  2
DET-LOOP
 10
160.0
 20
-64.0
 30
0.0
  0
TEXT
  5
310
330
17
100
AcDbEntity
  8
PALETTE
100
AcDbText
 10
174.0
 20
-64.0
 30
0.0
 40
1.25
  1
DET-LOOP
  7
ANNO
 11
174.0
 21
-64.0
 31
0.0
100
AcDbText
 73
2
  0
INSERT
  5
311
330
17
100
AcDbEntity
  8
PALETTE
100
AcDbBlockReference
  2
CURB-RAMP-TWSI
 10
160.0
 20
-72.0
 30
0.0
  0
TEXT
  5
313
330
17
100
AcDbEntity
  8
PALETTE
100
AcDbText
 10
174.0
 20
-72.0
 30
0.0
 40
1.25
  1
CURB-RAMP-TWSI
  7
ANNO
 11
174.0
 21
-72.0
 31
0.0
100
AcDbText
 73
2
  0
INSERT
  5
314
330
17
100
AcDbEntity
  8
PALETTE
100
AcDbBlockReference
  2
TRAN-STOP
 10
160.0
 20
-80.0
 30
0.0
  0
TEXT
  5
316
330
17
100
AcDbEntity
  8
PALETTE
100
AcDbText
 10
174.0
 20
-80.0
 30
0.0
 40
1.25
  1
TRAN-STOP
  7
ANNO
 11
174.0
 21
-80.0
 31
0.0
100
AcDbText
 73
2
  0
INSERT
  5
317
330
17
100
AcDbEntity
  8
PALETTE
100
AcDbBlockReference
  2
ARROW-T
 10
160.0
 20
-88.0
 30
0.0
  0
TEXT
  5
319
330
17
100
AcDbEntity
  8
PALETTE
100
AcDbText
 10
174.0
 20
-88.0
 30
0.0
 40
1.25
  1
ARROW-T
  7
ANNO
 11
174.0
 21
-88.0
 31
0.0
100
AcDbText
 73
2
  0
INSERT
  5
31A
330
17
100
AcDbEntity
  8
PALETTE
100
AcDbBlockReference
  2
ARROW-L
 10
160.0
 20
-96.0
 30
0.0
  0
TEXT
  5
31C
330
17
100
AcDbEntity
  8
PALETTE
100
AcDbText
 10
174.0
 20
-96.0
 30
0.0
 40
1.25
  1
ARROW-L
  7
ANNO
 11
174.0
 21
-96.0
 31
0.0
100
AcDbText
 73
2
  0
INSERT
  5
31D
330
17
100
AcDbEntity
  8
PALETTE
100
AcDbBlockReference
  2
ARROW-R
 10
160.0
 20
-104.0
 30
0.0
  0
TEXT
  5
31F
330
17
100
AcDbEntity
  8
PALETTE
100
AcDbText
 10
174.0
 20
-104.0
 30
0.0
 40
1.25
  1
ARROW-R
  7
ANNO
 11
174.0
 21
-104.0
 31
0.0
100
AcDbText
 73
2
  0
INSERT
  5
320
330
17
100
AcDbEntity
  8
PALETTE
100
AcDbBlockReference
  2
ARROW-LT
 10
160.0
 20
-112.0
 30
0.0
  0
TEXT
  5
322
330
17
100
AcDbEntity
  8
PALETTE
100
AcDbText
 10
174.0
 20
-112.0
 30
0.0
 40
1.25
  1
ARROW-LT
  7
ANNO
 11
174.0
 21
-112.0
 31
0.0
100
AcDbText
 73
2
  0
INSERT
  5
323
330
17
100
AcDbEntity
  8
PALETTE
100
AcDbBlockReference
  2
ARROW-TR
 10
160.0
 20
-120.0
 30
0.0
  0
TEXT
  5
325
330
17
100
AcDbEntity
  8
PALETTE
100
AcDbText
 10
174.0
 20
-120.0
 30
0.0
 40
1.25
  1
ARROW-TR
  7
ANNO
 11
174.0
 21
-120.0
 31
0.0
100
AcDbText
 73
2
  0
INSERT
  5
326
330
17
100
AcDbEntity
  8
PALETTE
100
AcDbBlockReference
  2
ARROW-LTR
 10
160.0
 20
-128.0
 30
0.0
  0
TEXT
  5
328
330
17
100
AcDbEntity
  8
PALETTE
100
AcDbText
 10
174.0
 20
-128.0
 30
0.0
 40
1.25
  1
ARROW-LTR
  7
ANNO
 11
174.0
 21
-128.0
 31
0.0
100
AcDbText
 73
2
  0
ENDSEC
  0
SECTION
  2
OBJECTS
  0
DICTIONARY
  5
A
330
0
100
AcDbDictionary
281
1
  3
ACAD_COLOR
350
B
  3
ACAD_GROUP
350
C
  3
ACAD_LAYOUT
350
D
  3
ACAD_MATERIAL
350
E
  3
ACAD_MLEADERSTYLE
350
F
  3
ACAD_MLINESTYLE
350
10
  3
ACAD_PLOTSETTINGS
350
11
  3
ACAD_PLOTSTYLENAME
350
12
  3
ACAD_SCALELIST
350
14
  3
ACAD_TABLESTYLE
350
15
  3
ACAD_VISUALSTYLE
350
16
  3
EZDXF_META
350
2D
  0
DICTIONARY
  5
B
330
A
100
AcDbDictionary
281
1
  0
DICTIONARY
  5
C
330
A
100
AcDbDictionary
281
1
  0
DICTIONARY
  5
D
330
A
100
AcDbDictionary
281
1
  3
Model
350
1A
  3
Layout1
350
1E
  3
A1 - 1to500
350
32C
  0
DICTIONARY
  5
E
330
A
100
AcDbDictionary
281
1
  3
ByBlock
350
1F
  3
ByLayer
350
20
  3
Global
350
21
  0
DICTIONARY
  5
F
330
A
100
AcDbDictionary
281
1
  3
Standard
350
2C
  0
DICTIONARY
  5
10
330
A
100
AcDbDictionary
281
1
  3
Standard
350
22
  0
DICTIONARY
  5
11
330
A
100
AcDbDictionary
281
1
  0
ACDBDICTIONARYWDFLT
  5
12
330
A
100
AcDbDictionary
281
1
  3
Normal
350
13
100
AcDbDictionaryWithDefault
340
13
  0
ACDBPLACEHOLDER
  5
13
330
12
  0
DICTIONARY
  5
14
330
A
100
AcDbDictionary
281
1
  0
DICTIONARY
  5
15
330
A
100
AcDbDictionary
281
1
  0
DICTIONARY
  5
16
330
A
100
AcDbDictionary
281
1
  3
2dWireframe
350
5A
  3
Basic
350
5B
  3
Brighten
350
5C
  3
ColorChange
350
5D
  3
Conceptual
350
5E
  3
Dim
350
5F
  3
EdgeColorOff
350
60
  3
Facepattern
350
61
  3
Flat
350
62
  3
FlatWithEdges
350
63
  3
Gouraud
350
64
  3
GouraudWithEdges
350
65
  3
Hidden
350
66
  3
JitterOff
350
67
  3
Linepattern
350
68
  3
Modeling
350
69
  3
OverhangOff
350
6A
  3
Realistic
350
6B
  3
Shaded
350
6C
  3
Shaded with edges
350
6D
  3
Shades of Gray
350
6E
  3
Sketchy
350
6F
  3
Thicken
350
70
  3
Wireframe
350
71
  3
X-Ray
350
72
  0
LAYOUT
  5
1A
330
D
100
AcDbPlotSettings
  1

  4
A3
  6

 40
7.5
 41
20.0
 42
7.5
 43
20.0
 44
420.0
 45
297.0
 46
0.0
 47
0.0
 48
0.0
 49
0.0
140
0.0
141
0.0
142
1.0
143
1.0
 70
1024
 72
1
 73
0
 74
5
  7

 75
16
 76
0
 77
2
 78
300
147
1.0
148
0.0
149
0.0
100
AcDbLayout
  1
Model
 70
1
 71
0
 10
0.0
 20
0.0
 11
420.0
 21
297.0
 12
0.0
 22
0.0
 32
0.0
 14
1e+20
 24
1e+20
 34
1e+20
 15
-1e+20
 25
-1e+20
 35
-1e+20
146
0.0
 13
0.0
 23
0.0
 33
0.0
 16
1.0
 26
0.0
 36
0.0
 17
0.0
 27
1.0
 37
0.0
 76
1
330
17
  0
LAYOUT
  5
1E
330
D
100
AcDbPlotSettings
  1

  4
A3
  6

 40
7.5
 41
20.0
 42
7.5
 43
20.0
 44
420.0
 45
297.0
 46
0.0
 47
0.0
 48
0.0
 49
0.0
140
0.0
141
0.0
142
1.0
143
1.0
 70
0
 72
1
 73
0
 74
5
  7

 75
16
 76
0
 77
2
 78
300
147
1.0
148
0.0
149
0.0
100
AcDbLayout
  1
Layout1
 70
1
 71
1
 10
0.0
 20
0.0
 11
420.0
 21
297.0
 12
0.0
 22
0.0
 32
0.0
 14
1e+20
 24
1e+20
 34
1e+20
 15
-1e+20
 25
-1e+20
 35
-1e+20
146
0.0
 13
0.0
 23
0.0
 33
0.0
 16
1.0
 26
0.0
 36
0.0
 17
0.0
 27
1.0
 37
0.0
 76
1
330
1B
  0
MATERIAL
  5
1F
102
{ACAD_REACTORS
330
E
102
}
330
E
100
AcDbMaterial
  1
ByBlock
  2

 70
0
 40
1.0
 71
1
 41
1.0
 91
-1023410177
 42
1.0
 72
1
  3

 73
1
 74
1
 75
1
 44
0.5
 73
0
 45
1.0
 46
1.0
 77
1
  4

 78
1
 79
1
170
1
 48
1.0
171
1
  6

172
1
173
1
174
1
140
1.0
141
1.0
175
1
  7

176
1
177
1
178
1
143
1.0
179
1
  8

270
1
271
1
272
1
145
1.0
146
1.0
273
1
  9

274
1
275
1
276
1
 42
1.0
 72
1
  3

 73
1
 74
1
 75
1
 94
63
  0
MATERIAL
  5
20
102
{ACAD_REACTORS
330
E
102
}
330
E
100
AcDbMaterial
  1
ByLayer
  2

 70
0
 40
1.0
 71
1
 41
1.0
 91
-1023410177
 42
1.0
 72
1
  3

 73
1
 74
1
 75
1
 44
0.5
 73
0
 45
1.0
 46
1.0
 77
1
  4

 78
1
 79
1
170
1
 48
1.0
171
1
  6

172
1
173
1
174
1
140
1.0
141
1.0
175
1
  7

176
1
177
1
178
1
143
1.0
179
1
  8

270
1
271
1
272
1
145
1.0
146
1.0
273
1
  9

274
1
275
1
276
1
 42
1.0
 72
1
  3

 73
1
 74
1
 75
1
 94
63
  0
MATERIAL
  5
21
102
{ACAD_REACTORS
330
E
102
}
330
E
100
AcDbMaterial
  1
Global
  2

 70
0
 40
1.0
 71
1
 41
1.0
 91
-1023410177
 42
1.0
 72
1
  3

 73
1
 74
1
 75
1
 44
0.5
 73
0
 45
1.0
 46
1.0
 77
1
  4

 78
1
 79
1
170
1
 48
1.0
171
1
  6

172
1
173
1
174
1
140
1.0
141
1.0
175
1
  7

176
1
177
1
178
1
143
1.0
179
1
  8

270
1
271
1
272
1
145
1.0
146
1.0
273
1
  9

274
1
275
1
276
1
 42
1.0
 72
1
  3

 73
1
 74
1
 75
1
 94
63
  0
MLINESTYLE
  5
22
102
{ACAD_REACTORS
330
10
102
}
330
10
100
AcDbMlineStyle
  2
Standard
 70
0
  3

 62
256
 51
90.0
 52
90.0
 71
2
 49
0.5
 62
256
  6
BYLAYER
 49
-0.5
 62
256
  6
BYLAYER
  0
MLEADERSTYLE
  5
2C
102
{ACAD_REACTORS
330
F
102
}
330
F
100
AcDbMLeaderStyle
179
2
170
2
171
1
172
0
 90
2
 40
0.0
 41
0.0
173
1
 91
-1056964608
 92
-2
290
1
 42
2.0
291
1
 43
8.0
  3
Standard
 44
4.0
300

342
29
174
1
175
1
176
0
178
1
 93
-1056964608
 45
4.0
292
0
297
0
 46
4.0
 94
-1056964608
 47
1.0
 49
1.0
140
1.0
294
1
141
0.0
177
0
142
1.0
295
0
296
0
143
3.75
271
0
272
9
273
9
  0
DICTIONARY
  5
2D
330
A
100
AcDbDictionary
280
1
281
1
  3
CREATED_BY_EZDXF
350
2E
  3
WRITTEN_BY_EZDXF
350
33D
  0
DICTIONARYVAR
  5
2E
330
2D
100
DictionaryVariables
280
0
  1
1.4.4 @ 2026-09-03T19:14:36.178031+00:00
  0
VISUALSTYLE
  5
5A
102
{ACAD_REACTORS
330
16
102
}
330
16
100
AcDbVisualStyle
  2
2dWireframe
 70
4
 90
0
 40
0.6
 62
7
290
0
291
0
  0
VISUALSTYLE
  5
5B
102
{ACAD_REACTORS
330
16
102
}
330
16
100
AcDbVisualStyle
  2
Basic
 70
7
 90
1
 40
0.6
 62
7
290
0
291
1
  0
VISUALSTYLE
  5
5C
102
{ACAD_REACTORS
330
16
102
}
330
16
100
AcDbVisualStyle
  2
Brighten
 70
12
 90
2
 40
0.6
 62
7
290
0
291
1
  0
VISUALSTYLE
  5
5D
102
{ACAD_REACTORS
330
16
102
}
330
16
100
AcDbVisualStyle
  2
ColorChange
 70
16
 90
2
 40
0.6
 62
8
290
0
291
1
  0
VISUALSTYLE
  5
5E
102
{ACAD_REACTORS
330
16
102
}
330
16
100
AcDbVisualStyle
  2
Conceptual
 70
9
 90
3
 40
0.6
 62
7
290
0
291
0
  0
VISUALSTYLE
  5
5F
102
{ACAD_REACTORS
330
16
102
}
330
16
100
AcDbVisualStyle
  2
Dim
 70
11
 90
2
 40
0.6
 62
7
290
0
291
1
  0
VISUALSTYLE
  5
60
102
{ACAD_REACTORS
330
16
102
}
330
16
100
AcDbVisualStyle
  2
EdgeColorOff
 70
22
 90
2
 40
0.6
 62
7
290
0
291
1
  0
VISUALSTYLE
  5
61
102
{ACAD_REACTORS
330
16
102
}
330
16
100
AcDbVisualStyle
  2
Facepattern
 70
15
 90
2
 40
0.6
 62
7
290
0
291
1
  0
VISUALSTYLE
  5
62
102
{ACAD_REACTORS
330
16
102
}
330
16
100
AcDbVisualStyle
  2
Flat
 70
0
 90
2
 40
0.6
 62
7
290
0
291
1
  0
VISUALSTYLE
  5
63
102
{ACAD_REACTORS
330
16
102
}
330
16
100
AcDbVisualStyle
  2
FlatWithEdges
 70
1
 90
2
 40
0.6
 62
7
290
0
291
1
  0
VISUALSTYLE
  5
64
102
{ACAD_REACTORS
330
16
102
}
330
16
100
AcDbVisualStyle
  2
Gouraud
 70
2
 90
2
 40
0.6
 62
7
290
0
291
1
  0
VISUALSTYLE
  5
65
102
{ACAD_REACTORS
330
16
102
}
330
16
100
AcDbVisualStyle
  2
GouraudWithEdges
 70
3
 90
2
 40
0.6
 62
7
290
0
291
1
  0
VISUALSTYLE
  5
66
102
{ACAD_REACTORS
330
16
102
}
330
16
100
AcDbVisualStyle
  2
Hidden
 70
6
 90
1
 40
0.6
 62
7
290
0
291
0
  0
VISUALSTYLE
  5
67
102
{ACAD_REACTORS
330
16
102
}
330
16
100
AcDbVisualStyle
  2
JitterOff
 70
20
 90
2
 40
0.6
 62
7
290
0
291
1
  0
VISUALSTYLE
  5
68
102
{ACAD_REACTORS
330
16
102
}
330
16
100
AcDbVisualStyle
  2
Linepattern
 70
14
 90
2
 40
0.6
 62
7
290
0
291
1
  0
VISUALSTYLE
  5
69
102
{ACAD_REACTORS
330
16
102
}
330
16
100
AcDbVisualStyle
  2
Modeling
 70
10
 90
2
 40
0.6
 62
7
290
0
291
0
  0
VISUALSTYLE
  5
6A
102
{ACAD_REACTORS
330
16
102
}
330
16
100
AcDbVisualStyle
  2
OverhangOff
 70
21
 90
2
 40
0.6
 62
7
290
0
291
1
  0
VISUALSTYLE
  5
6B
102
{ACAD_REACTORS
330
16
102
}
330
16
100
AcDbVisualStyle
  2
Realistic
 70
8
 90
2
 40
0.6
 62
7
290
0
291
0
  0
VISUALSTYLE
  5
6C
102
{ACAD_REACTORS
330
16
102
}
330
16
100
AcDbVisualStyle
  2
Shaded
 70
27
 90
2
 40
0.6
 62
7
290
0
291
0
  0
VISUALSTYLE
  5
6D
102
{ACAD_REACTORS
330
16
102
}
330
16
100
AcDbVisualStyle
  2
Shaded with edges
 70
26
 90
2
 40
0.6
 62
7
290
0
291
0
  0
VISUALSTYLE
  5
6E
102
{ACAD_REACTORS
330
16
102
}
330
16
100
AcDbVisualStyle
  2
Shades of Gray
 70
23
 90
2
 40
0.6
 62
7
290
0
291
0
  0
VISUALSTYLE
  5
6F
102
{ACAD_REACTORS
330
16
102
}
330
16
100
AcDbVisualStyle
  2
Sketchy
 70
24
 90
1
 40
0.6
 62
7
290
0
291
0
  0
VISUALSTYLE
  5
70
102
{ACAD_REACTORS
330
16
102
}
330
16
100
AcDbVisualStyle
  2
Thicken
 70
13
 90
2
 40
0.6
 62
7
290
0
291
1
  0
VISUALSTYLE
  5
71
102
{ACAD_REACTORS
330
16
102
}
330
16
100
AcDbVisualStyle
  2
Wireframe
 70
5
 90
0
 40
0.6
 62
7
290
0
291
0
  0
VISUALSTYLE
  5
72
102
{ACAD_REACTORS
330
16
102
}
330
16
100
AcDbVisualStyle
  2
X-Ray
 70
25
 90
2
 40
0.5
 62
7
290
0
291
0
  0
LAYOUT
  5
32C
330
D
100
AcDbPlotSettings
  1

  2
DWG to PDF.pc3
  4
ezdxf_(841.00_x_594.00_MM)
  6

 40
0.0
 41
0.0
 42
0.0
 43
0.0
 44
841.0
 45
594.0
 46
0.0
 47
0.0
 48
0.0
 49
0.0
140
0.0
141
0.0
142
1.0
143
1.0
 70
672
 72
1
 73
0
 74
5
  7

 75
16
 76
0
 77
2
 78
300
147
1.0
148
0.0
149
0.0
100
AcDbLayout
  1
A1 - 1to500
 70
1
 71
3
 10
-0.0
 20
-0.0
 11
841.0
 21
594.0
 12
0.0
 22
0.0
 32
0.0
 14
1e+20
 24
1e+20
 34
1e+20
 15
-1e+20
 25
-1e+20
 35
-1e+20
146
0.0
 13
0.0
 23
0.0
 33
0.0
 16
1.0
 26
0.0
 36
0.0
 17
0.0
 27
1.0
 37
0.0
 76
1
330
329
331
32D
  0
DICTIONARYVAR
  5
33D
330
2D
100
DictionaryVariables
280
0
  1
1.4.4 @ 2026-09-03T19:14:36.219808+00:00
  0
ENDSEC
  0
EOF
